<?xml version="1.0" encoding="UTF-8" ?>
<!DOCTYPE svg PUBLIC "-//W3C//DTD SVG 1.1//EN" "http://www.w3.org/Graphics/SVG/1.1/DTD/svg11.dtd">
<svg width="3508pt" height="2480pt" viewBox="0 0 3508 2480" version="1.1" xmlns="http://www.w3.org/2000/svg">
<g id="#000000ff">
<path fill="#000000" opacity="1.00" d=" M 504.96 514.26 C 505.68 514.07 507.13 513.70 507.86 513.52 C 515.34 518.44 522.99 523.24 529.49 529.48 C 555.92 554.14 573.64 587.20 582.81 621.95 C 587.87 640.88 588.67 660.59 587.78 680.08 C 586.35 720.37 579.64 760.45 567.97 799.04 C 539.35 894.97 496.29 986.35 442.85 1070.91 C 432.81 1086.74 422.28 1102.25 411.29 1117.43 C 400.24 1132.51 389.27 1147.85 375.44 1160.56 C 362.18 1173.02 347.12 1183.54 330.96 1191.88 C 321.39 1196.75 311.56 1201.45 301.00 1203.66 C 283.88 1207.02 266.30 1201.84 251.40 1193.45 C 237.34 1185.50 225.03 1174.40 215.83 1161.11 C 209.47 1151.60 204.55 1140.63 204.21 1129.03 C 203.62 1115.01 204.00 1100.92 205.98 1087.02 C 210.70 1056.32 218.43 1026.21 225.61 996.02 C 232.89 965.88 239.84 935.66 247.38 905.58 C 253.51 881.37 260.60 857.42 267.59 833.44 C 273.28 814.28 278.64 795.01 285.21 776.12 C 288.34 767.02 290.47 757.60 291.78 748.07 C 275.97 750.69 261.00 756.75 246.70 763.78 C 227.15 773.10 206.63 780.07 186.10 786.84 C 164.42 794.37 142.27 802.28 119.02 802.29 C 107.27 802.86 96.05 797.94 86.46 791.55 C 75.63 784.24 66.68 773.07 64.55 759.92 C 64.58 758.82 63.50 756.56 65.28 756.41 C 69.23 755.66 73.27 756.31 77.20 756.85 C 87.73 758.70 98.47 757.43 108.97 756.02 C 127.96 753.00 146.49 747.59 164.77 741.70 C 193.96 731.87 222.82 720.88 250.66 707.65 C 268.62 698.05 287.05 689.35 305.35 680.40 C 307.48 679.48 309.66 678.49 312.00 678.28 C 316.11 678.49 319.76 680.75 323.03 683.07 C 334.63 691.52 343.10 703.41 350.42 715.57 C 353.42 720.88 356.85 726.58 356.36 732.92 C 355.48 744.32 351.72 755.20 349.56 766.37 C 345.18 791.98 339.96 817.44 335.08 842.96 C 328.29 879.49 318.49 915.35 309.59 951.39 C 302.21 980.45 294.89 1009.52 288.59 1038.84 C 283.42 1062.88 278.18 1086.90 273.09 1110.95 C 270.95 1123.16 266.09 1134.86 265.96 1147.40 C 273.01 1142.07 281.85 1140.06 288.99 1134.90 C 321.98 1112.71 347.65 1081.55 370.18 1049.19 C 401.61 1004.38 427.53 955.97 450.59 906.39 C 466.70 871.91 481.12 836.66 494.14 800.90 C 501.67 780.09 508.73 759.10 514.65 737.77 C 519.29 720.27 523.64 702.69 527.60 685.02 C 533.61 657.40 533.59 628.82 530.76 600.81 C 529.22 584.67 525.04 568.87 519.25 553.75 C 514.40 540.62 508.52 527.83 504.96 514.26 M 527.93 851.10 C 522.45 856.80 518.88 863.96 516.40 871.40 C 513.59 879.87 509.52 887.82 506.02 896.02 C 502.24 904.70 499.01 913.60 495.19 922.27 C 488.97 936.95 481.66 951.13 474.17 965.19 C 454.36 1001.97 432.05 1037.33 409.38 1072.40 C 397.46 1090.70 386.07 1109.43 372.23 1126.39 C 367.65 1132.52 362.02 1137.83 357.77 1144.20 C 369.79 1135.19 379.68 1123.69 389.14 1112.12 C 402.85 1094.89 415.35 1076.72 427.29 1058.24 C 451.09 1020.96 472.37 982.07 490.85 941.90 C 499.24 923.83 506.19 905.14 513.76 886.73 C 518.40 874.82 523.48 863.08 527.93 851.10 M 442.42 960.16 C 440.96 960.69 439.85 963.87 441.55 964.55 C 442.67 963.74 443.98 960.94 442.42 960.16 M 448.94 984.67 C 450.49 985.09 451.78 982.51 450.95 981.30 C 449.43 980.93 448.19 983.44 448.94 984.67 M 408.04 1019.95 C 412.55 1013.14 418.29 1006.94 420.76 999.00 C 416.63 1006.05 411.38 1012.45 408.04 1019.95 M 411.08 1046.98 C 417.27 1037.42 426.19 1029.19 428.96 1017.77 C 423.29 1027.68 416.99 1037.22 411.08 1046.98 M 351.81 1102.14 C 360.08 1097.08 365.24 1088.57 370.83 1080.93 C 383.08 1062.88 394.25 1044.10 404.90 1025.07 C 387.07 1050.66 366.88 1074.73 351.81 1102.14 M 366.00 1110.63 C 373.03 1106.37 378.31 1099.81 382.86 1093.08 C 387.17 1086.19 391.38 1079.22 395.00 1071.95 C 385.75 1085.14 374.85 1097.14 366.00 1110.63 Z" />
<path fill="#000000" opacity="1.00" d=" M 1744.64 604.79 C 1768.79 602.01 1793.29 600.82 1817.49 603.74 C 1856.00 608.43 1893.19 621.90 1926.73 641.22 C 1958.38 659.60 1987.04 683.31 2010.37 711.56 C 2029.20 734.30 2043.40 760.43 2055.93 787.05 C 2062.66 801.70 2068.98 816.59 2074.02 831.92 C 2080.52 851.98 2084.38 872.91 2085.20 893.98 C 2085.76 911.66 2085.12 929.40 2083.23 946.98 C 2081.34 964.71 2076.76 981.98 2071.82 999.06 C 2067.69 1013.20 2062.90 1027.14 2057.78 1040.96 C 2052.55 1054.81 2045.27 1067.82 2036.85 1079.98 C 2028.58 1091.95 2020.74 1104.28 2011.27 1115.36 C 1992.21 1137.92 1970.26 1158.00 1946.45 1175.46 C 1922.29 1193.11 1896.11 1208.12 1868.32 1219.27 C 1852.81 1225.33 1836.66 1230.02 1820.07 1231.74 C 1796.20 1235.06 1771.58 1236.54 1748.00 1230.56 C 1730.60 1226.05 1712.97 1221.44 1697.03 1212.89 C 1682.60 1205.50 1669.78 1195.23 1658.69 1183.47 C 1641.75 1165.74 1629.14 1144.20 1620.70 1121.26 C 1614.18 1101.94 1613.92 1080.01 1622.13 1061.14 C 1630.04 1044.34 1640.66 1028.85 1653.24 1015.19 C 1656.88 1011.21 1661.13 1007.78 1664.36 1003.44 C 1666.83 1000.51 1665.80 996.48 1666.00 993.00 C 1665.74 968.95 1672.96 945.72 1680.00 922.99 C 1688.26 896.23 1700.18 870.76 1708.20 843.92 C 1714.91 823.98 1720.95 803.75 1724.89 783.06 C 1727.06 771.53 1727.25 758.94 1721.62 748.32 C 1717.71 740.01 1710.95 733.56 1706.55 725.56 C 1704.29 721.47 1703.43 716.65 1703.83 712.03 C 1703.94 709.76 1705.71 707.70 1708.05 707.61 C 1712.54 707.18 1717.34 707.43 1721.34 709.73 C 1735.04 717.22 1744.90 729.91 1752.85 743.04 C 1764.09 761.45 1771.41 782.06 1776.08 803.05 C 1781.11 825.02 1779.47 847.84 1776.22 869.94 C 1773.49 888.83 1766.92 906.81 1761.76 925.11 C 1757.69 939.21 1753.77 953.35 1750.08 967.55 C 1763.99 965.20 1777.86 962.42 1791.94 961.34 C 1814.37 960.20 1837.05 961.46 1858.99 966.49 C 1872.83 969.78 1885.11 977.91 1894.94 988.04 C 1901.04 994.28 1906.77 1000.92 1911.93 1007.98 C 1917.58 1015.48 1923.26 1023.18 1926.60 1032.04 C 1928.52 1036.79 1925.79 1041.56 1923.90 1045.83 C 1916.83 1046.68 1910.92 1042.33 1905.48 1038.51 C 1898.17 1033.61 1893.36 1025.91 1885.95 1021.13 C 1878.54 1015.53 1868.90 1015.23 1860.02 1014.78 C 1839.10 1014.35 1818.22 1017.27 1797.82 1021.73 C 1774.15 1027.23 1750.51 1034.64 1729.95 1047.91 C 1730.00 1061.65 1729.76 1075.50 1732.13 1089.09 C 1733.51 1096.53 1736.90 1103.45 1741.45 1109.46 C 1745.46 1115.35 1750.92 1120.37 1753.61 1127.09 C 1756.28 1132.25 1749.81 1138.32 1744.72 1136.34 C 1733.78 1133.06 1722.45 1129.83 1713.25 1122.77 C 1702.31 1114.20 1695.17 1102.01 1687.09 1090.94 C 1679.91 1100.81 1677.05 1113.01 1676.03 1124.99 C 1675.42 1134.51 1674.30 1145.02 1679.48 1153.57 C 1683.41 1159.75 1690.65 1162.40 1697.18 1164.91 C 1715.00 1171.23 1734.19 1173.03 1752.99 1172.30 C 1774.92 1171.30 1796.28 1165.33 1816.75 1157.69 C 1834.48 1151.13 1851.15 1142.04 1867.36 1132.36 C 1917.96 1101.57 1962.10 1058.81 1990.36 1006.42 C 2006.29 976.82 2017.89 944.83 2024.27 911.82 C 2029.03 887.23 2029.31 861.93 2026.31 837.11 C 2022.69 805.09 2012.65 773.44 1994.35 746.70 C 1975.12 718.87 1947.89 697.24 1918.00 681.78 C 1901.48 673.34 1884.08 666.55 1866.05 662.16 C 1854.90 659.42 1843.47 658.13 1832.14 656.40 C 1805.97 652.42 1779.30 654.29 1753.27 658.35 C 1735.40 661.29 1717.34 663.94 1700.24 670.11 C 1668.40 681.42 1638.61 699.70 1616.07 725.07 C 1598.67 745.05 1585.05 769.95 1584.49 796.98 C 1583.98 808.37 1585.76 820.77 1593.63 829.57 C 1600.94 837.58 1607.65 846.11 1613.89 854.98 C 1612.43 856.80 1610.60 859.01 1607.95 858.22 C 1601.97 856.81 1596.52 853.77 1591.20 850.79 C 1560.46 832.33 1540.55 796.15 1543.49 760.14 C 1546.09 738.82 1555.00 718.61 1567.13 701.02 C 1574.86 689.99 1583.38 679.48 1592.91 669.94 C 1606.19 656.12 1622.14 645.10 1638.88 635.87 C 1671.39 617.98 1708.09 609.44 1744.64 604.79 M 1608.19 671.19 C 1602.86 675.50 1597.42 680.25 1594.65 686.68 C 1598.88 683.65 1602.60 679.97 1606.63 676.67 C 1613.73 670.41 1621.13 664.47 1628.05 658.01 C 1620.97 661.66 1614.52 666.39 1608.19 671.19 M 1634.21 684.21 C 1623.03 690.53 1613.42 699.31 1605.13 709.05 C 1601.13 714.23 1597.19 719.67 1594.94 725.86 C 1608.00 711.04 1621.47 696.34 1637.49 684.64 C 1643.06 680.51 1650.40 678.36 1654.19 672.17 C 1647.61 676.31 1641.04 680.48 1634.21 684.21 M 1619.10 680.16 C 1613.02 684.99 1607.26 690.24 1602.08 696.01 C 1603.59 695.27 1605.16 694.57 1606.52 693.52 C 1614.80 686.98 1623.16 680.43 1630.40 672.72 C 1626.19 674.47 1622.69 677.44 1619.10 680.16 M 1662.24 1030.28 C 1660.01 1033.04 1657.26 1035.42 1655.67 1038.66 C 1659.99 1034.65 1664.25 1030.42 1667.67 1025.60 C 1665.17 1026.23 1663.83 1028.49 1662.24 1030.28 M 1667.77 1051.63 C 1669.70 1051.57 1670.06 1049.11 1671.13 1047.89 C 1668.06 1046.54 1668.89 1049.87 1667.77 1051.63 M 1671.88 1075.20 C 1674.88 1073.14 1676.29 1069.59 1676.12 1066.01 C 1673.90 1068.63 1672.43 1071.80 1671.88 1075.20 M 1995.75 1090.76 C 1970.95 1122.71 1938.57 1147.48 1906.18 1171.22 C 1903.14 1173.55 1899.42 1175.30 1897.55 1178.82 C 1914.79 1170.78 1931.01 1160.59 1946.13 1149.06 C 1971.97 1129.24 1994.64 1104.73 2010.20 1075.99 C 2004.36 1079.81 2000.15 1085.47 1995.75 1090.76 M 1919.86 1116.81 C 1908.96 1125.57 1896.31 1132.52 1887.72 1143.83 C 1899.12 1137.10 1909.95 1129.44 1920.44 1121.37 C 1934.33 1110.79 1947.20 1098.56 1957.08 1084.09 C 1945.58 1096.00 1932.71 1106.44 1919.86 1116.81 M 1926.31 1135.32 C 1922.63 1139.37 1917.96 1142.47 1914.68 1146.87 C 1923.46 1141.07 1931.66 1134.42 1939.74 1127.69 C 1951.69 1117.75 1962.12 1106.13 1971.68 1093.90 C 1953.68 1104.27 1941.12 1121.21 1926.31 1135.32 M 1969.02 1142.13 C 1976.92 1137.95 1983.25 1131.20 1988.15 1123.81 C 1981.59 1129.72 1975.26 1135.89 1969.02 1142.13 M 1906.32 1151.62 C 1907.36 1152.65 1910.05 1151.35 1909.13 1149.84 C 1908.02 1148.76 1905.37 1150.09 1906.32 1151.62 Z" />
<path fill="#000000" opacity="1.00" d=" M 2283.25 820.02 C 2285.80 815.63 2291.26 817.49 2295.02 818.95 C 2303.09 822.74 2309.20 829.79 2313.66 837.36 C 2317.79 844.48 2321.22 852.59 2320.21 861.01 C 2318.93 873.95 2315.27 886.49 2312.06 899.04 C 2304.53 927.79 2294.91 955.93 2286.63 984.46 C 2282.60 997.68 2277.73 1010.63 2273.91 1023.92 C 2267.07 1048.29 2260.28 1072.67 2253.44 1097.05 C 2246.35 1122.90 2238.31 1148.56 2233.50 1174.98 C 2230.39 1190.84 2228.48 1206.94 2227.85 1223.09 C 2227.59 1233.03 2227.39 1243.09 2229.69 1252.85 C 2231.69 1263.50 2235.69 1273.69 2237.42 1284.39 C 2227.24 1286.58 2216.69 1282.61 2209.11 1275.84 C 2202.50 1270.40 2197.11 1263.51 2193.16 1255.94 C 2188.10 1246.14 2187.84 1234.87 2187.13 1224.11 C 2186.01 1193.14 2191.56 1162.46 2197.34 1132.18 C 2209.02 1073.33 2224.71 1015.31 2242.83 958.14 C 2247.38 943.17 2253.41 928.72 2258.87 914.08 C 2265.26 897.26 2271.45 880.35 2277.51 863.40 C 2280.83 853.68 2284.68 844.08 2286.92 834.03 C 2288.16 829.01 2285.44 824.31 2283.25 820.02 M 2285.18 937.24 C 2284.24 938.45 2284.45 939.17 2285.80 939.42 C 2286.68 938.19 2286.47 937.47 2285.18 937.24 M 2269.15 985.94 C 2261.16 1011.78 2253.84 1037.84 2246.39 1063.85 C 2242.37 1079.69 2237.29 1095.23 2233.37 1111.10 C 2226.08 1140.07 2219.38 1169.41 2217.29 1199.27 C 2220.88 1182.94 2222.81 1166.29 2226.52 1149.99 C 2229.66 1136.69 2233.13 1123.47 2236.25 1110.16 C 2242.29 1083.95 2249.23 1057.94 2257.09 1032.21 C 2265.00 1006.89 2273.91 981.82 2279.65 955.88 C 2275.23 965.54 2272.51 975.88 2269.15 985.94 Z" />
<path fill="#000000" opacity="1.00" d=" M 2747.00 865.99 C 2748.42 863.40 2751.16 862.25 2753.97 861.81 C 2756.24 863.01 2758.56 864.16 2760.90 865.32 C 2759.88 867.63 2758.84 869.93 2757.98 872.31 C 2760.79 869.98 2762.74 866.86 2765.03 864.05 C 2765.72 865.14 2766.44 866.25 2767.19 867.37 C 2768.63 867.22 2770.11 867.08 2771.63 866.95 C 2770.84 869.27 2770.02 871.57 2769.26 873.89 C 2770.48 872.79 2771.80 871.73 2773.09 870.65 C 2775.12 871.39 2777.15 872.13 2779.23 872.88 C 2779.20 874.61 2779.21 876.37 2779.26 878.13 C 2780.55 877.79 2781.87 877.47 2783.23 877.15 C 2785.95 879.26 2789.22 880.90 2791.26 883.79 C 2793.02 887.12 2791.27 890.84 2790.31 894.14 C 2784.64 911.12 2778.70 928.02 2772.80 944.93 C 2776.84 944.68 2781.02 945.16 2784.97 943.94 C 2793.78 941.63 2802.95 942.12 2811.97 941.81 C 2817.14 941.95 2823.09 941.91 2827.07 945.80 C 2829.77 948.47 2832.79 951.18 2834.00 954.92 C 2834.76 958.22 2838.77 958.22 2841.35 959.30 C 2836.50 964.78 2829.77 968.04 2822.90 970.18 C 2803.01 976.98 2781.95 978.78 2761.32 982.06 C 2754.83 1003.52 2748.97 1025.17 2743.95 1047.02 C 2738.31 1071.46 2733.90 1096.15 2729.33 1120.81 C 2721.49 1165.27 2713.05 1209.80 2710.80 1254.99 C 2709.93 1274.99 2709.30 1295.29 2713.76 1314.97 C 2714.55 1319.61 2716.82 1324.23 2715.76 1329.02 C 2714.12 1332.65 2709.33 1332.95 2705.92 1333.51 C 2704.14 1333.92 2703.14 1332.34 2702.14 1331.29 C 2701.17 1332.77 2700.23 1334.24 2699.29 1335.73 C 2691.85 1331.60 2682.94 1330.95 2675.95 1325.89 C 2669.17 1321.56 2665.76 1313.85 2663.35 1306.50 C 2658.79 1292.14 2658.67 1276.91 2658.75 1262.00 C 2658.22 1199.80 2668.17 1138.21 2677.26 1076.88 C 2679.47 1053.64 2686.32 1031.18 2689.73 1008.13 C 2690.22 1003.99 2692.12 1000.08 2692.03 995.87 C 2692.27 994.11 2690.24 993.62 2688.98 993.56 C 2682.71 992.71 2676.41 994.22 2670.15 993.66 C 2663.33 991.85 2657.91 986.96 2653.33 981.82 C 2653.44 980.58 2653.59 979.36 2653.77 978.16 C 2652.13 977.30 2650.53 976.44 2648.94 975.60 C 2649.79 972.90 2650.00 969.31 2652.90 967.94 C 2665.63 962.92 2679.58 963.04 2692.73 959.63 C 2702.30 946.91 2711.46 933.75 2718.33 919.34 C 2722.75 910.59 2725.83 901.20 2730.82 892.72 C 2736.06 883.72 2741.32 874.72 2747.00 865.99 M 2758.57 923.58 C 2755.23 932.23 2751.23 940.73 2749.45 949.87 C 2751.05 949.18 2753.34 948.91 2753.94 946.92 C 2759.76 933.26 2763.27 918.77 2768.77 904.99 C 2763.21 909.79 2761.36 917.10 2758.57 923.58 M 2735.88 950.92 C 2739.48 947.07 2739.81 941.59 2740.84 936.69 C 2737.35 940.61 2736.81 945.98 2735.88 950.92 M 2737.90 985.91 C 2736.46 988.44 2736.04 991.42 2735.15 994.17 C 2728.50 1016.81 2723.29 1039.86 2719.13 1063.09 C 2714.47 1088.69 2709.45 1114.23 2705.77 1140.00 C 2702.79 1160.26 2699.92 1180.55 2697.44 1200.89 C 2694.44 1228.62 2693.06 1256.62 2694.54 1284.48 C 2695.56 1278.04 2695.38 1271.49 2695.92 1265.01 C 2701.25 1170.40 2718.65 1076.85 2742.13 985.17 C 2740.67 985.37 2739.27 985.55 2737.90 985.91 M 2720.66 999.96 C 2708.92 1043.63 2701.74 1088.35 2695.02 1133.01 C 2693.68 1144.38 2691.32 1155.71 2691.34 1167.19 C 2697.50 1129.09 2702.98 1090.85 2710.89 1053.06 C 2715.34 1031.61 2720.41 1010.29 2724.63 988.79 C 2722.81 992.32 2721.72 996.15 2720.66 999.96 M 2700.55 1023.42 C 2694.99 1047.35 2690.97 1071.61 2687.26 1095.89 C 2686.02 1105.06 2684.35 1114.23 2684.28 1123.51 C 2686.36 1117.55 2686.64 1111.16 2687.95 1105.02 C 2690.93 1087.72 2693.76 1070.39 2696.57 1053.05 C 2699.76 1033.18 2704.28 1013.56 2708.79 993.97 C 2705.29 1003.55 2702.92 1013.50 2700.55 1023.42 M 2741.34 1018.42 C 2742.17 1016.27 2742.81 1014.06 2743.34 1011.82 C 2741.46 1013.48 2740.56 1015.96 2741.34 1018.42 M 2735.20 1045.26 C 2733.80 1045.50 2732.87 1048.40 2734.58 1048.71 C 2735.48 1048.12 2736.44 1045.81 2735.20 1045.26 M 2733.25 1051.10 C 2732.08 1051.62 2731.36 1053.38 2732.19 1054.47 C 2733.61 1054.85 2734.78 1051.42 2733.25 1051.10 M 2731.18 1059.33 C 2731.77 1059.72 2731.77 1059.72 2731.18 1059.33 M 2727.18 1078.53 C 2726.24 1079.72 2726.46 1080.44 2727.83 1080.70 C 2728.69 1079.49 2728.47 1078.76 2727.18 1078.53 M 2724.15 1093.55 C 2723.23 1094.74 2723.46 1095.46 2724.84 1095.70 C 2725.69 1094.48 2725.46 1093.76 2724.15 1093.55 M 2718.29 1125.50 C 2717.32 1126.10 2717.26 1128.57 2718.72 1128.49 C 2719.60 1127.84 2719.68 1125.39 2718.29 1125.50 M 2682.74 1128.80 C 2680.81 1143.97 2678.71 1159.16 2677.38 1174.40 C 2678.59 1171.39 2678.54 1168.08 2678.98 1164.92 C 2680.24 1153.95 2681.96 1143.03 2683.62 1132.12 C 2683.96 1130.82 2683.71 1129.66 2682.74 1128.80 Z" />
<path fill="#000000" opacity="1.00" d=" M 561.20 928.21 C 562.51 926.31 564.71 925.50 566.83 924.84 C 567.50 925.67 568.19 926.51 568.89 927.35 C 569.52 927.46 570.78 927.66 571.41 927.76 C 571.47 929.02 571.53 930.29 571.60 931.58 C 572.77 930.66 573.97 929.76 575.15 928.86 C 576.99 929.76 578.83 930.68 580.66 931.63 C 580.37 932.56 579.80 934.44 579.52 935.38 C 581.64 935.71 583.76 936.04 585.90 936.39 C 585.94 938.18 585.98 939.97 586.05 941.78 C 586.73 941.64 588.09 941.35 588.76 941.20 C 590.78 943.15 593.19 945.11 593.74 948.04 C 595.77 961.10 588.09 972.96 588.14 985.88 C 587.48 993.70 590.52 1001.23 590.19 1009.02 C 588.83 1011.18 585.32 1011.26 582.99 1010.80 C 580.15 1009.44 577.27 1008.18 574.12 1007.79 C 570.14 1005.69 567.25 1002.07 564.63 998.52 C 558.30 989.65 553.29 979.62 551.32 968.83 C 549.79 960.46 551.35 951.89 553.76 943.85 C 555.49 938.33 557.64 932.82 561.20 928.21 Z" />
<path fill="#000000" opacity="1.00" d=" M 1021.74 960.70 C 1026.66 955.48 1032.61 950.65 1039.86 949.33 C 1048.17 947.58 1056.53 950.46 1064.01 953.90 C 1073.45 958.12 1082.18 964.67 1087.41 973.75 C 1086.26 974.87 1085.13 976.01 1084.00 977.16 C 1077.72 976.38 1071.08 972.41 1064.93 975.77 C 1058.51 979.80 1054.74 986.73 1051.11 993.16 C 1048.03 999.58 1044.37 1005.85 1042.79 1012.86 C 1041.34 1018.97 1040.93 1025.28 1041.01 1031.56 C 1047.34 1026.37 1053.44 1020.92 1059.39 1015.31 C 1066.97 1008.12 1078.29 1004.79 1088.48 1007.37 C 1094.19 1009.32 1099.50 1012.30 1104.67 1015.39 C 1098.44 1020.67 1091.84 1025.50 1085.09 1030.08 C 1075.94 1036.53 1069.31 1045.69 1062.67 1054.52 C 1059.49 1058.83 1056.35 1063.18 1053.41 1067.66 C 1061.34 1083.07 1068.72 1098.79 1075.10 1114.91 C 1080.57 1129.59 1082.63 1145.38 1082.46 1160.99 C 1082.17 1175.88 1074.55 1189.86 1063.70 1199.76 C 1051.33 1210.93 1034.84 1217.98 1018.03 1217.53 C 1006.97 1217.28 995.72 1213.97 987.11 1206.86 C 980.46 1201.44 974.80 1193.79 974.52 1184.92 C 973.68 1167.17 979.86 1150.18 985.73 1133.73 C 994.34 1110.35 1005.46 1088.02 1016.92 1065.94 C 1013.27 1057.62 1009.72 1049.25 1006.21 1040.87 C 1001.54 1030.01 999.24 1017.94 1000.68 1006.14 C 1003.05 989.39 1010.22 973.18 1021.74 960.70 M 1023.85 974.10 C 1021.33 977.41 1019.52 981.18 1018.04 985.05 C 1020.49 981.71 1022.75 978.13 1023.85 974.10 M 1027.12 989.14 C 1030.07 986.35 1032.22 982.74 1032.75 978.67 C 1030.38 981.87 1028.83 985.56 1027.12 989.14 M 1031.01 1004.12 C 1035.05 1000.11 1037.36 994.78 1039.70 989.69 C 1041.44 985.80 1043.66 982.16 1045.58 978.36 C 1036.02 983.25 1034.02 994.83 1031.01 1004.12 M 1017.42 1113.45 C 1012.36 1126.25 1007.91 1139.29 1003.25 1152.25 C 999.46 1162.48 998.02 1173.42 997.22 1184.23 C 999.51 1174.90 1001.19 1165.39 1004.13 1156.21 C 1010.82 1134.18 1020.73 1113.32 1029.03 1091.90 C 1023.19 1097.81 1020.78 1106.04 1017.42 1113.45 M 1029.34 1115.33 C 1021.90 1133.16 1014.97 1151.26 1009.95 1169.93 C 1007.86 1178.22 1005.84 1187.42 1009.96 1195.46 C 1015.29 1194.50 1019.69 1191.09 1023.78 1187.75 C 1034.74 1178.04 1040.10 1163.27 1041.16 1148.94 C 1041.94 1134.20 1037.76 1119.88 1034.59 1105.65 C 1031.81 1108.20 1030.98 1112.06 1029.34 1115.33 M 990.07 1146.09 C 995.28 1136.23 998.88 1125.61 1001.92 1114.91 C 997.75 1125.21 993.36 1135.47 990.07 1146.09 M 1062.01 1184.34 C 1066.76 1177.46 1070.98 1169.33 1069.50 1160.69 C 1066.60 1168.40 1061.58 1175.80 1062.01 1184.34 M 1057.71 1166.84 C 1056.79 1169.26 1055.93 1171.71 1055.26 1174.22 C 1057.67 1172.53 1058.31 1169.60 1057.71 1166.84 M 1047.82 1167.81 C 1046.79 1169.87 1045.96 1172.03 1045.27 1174.24 C 1046.74 1172.40 1048.07 1170.26 1047.82 1167.81 Z" />
<path fill="#000000" opacity="1.00" d=" M 784.40 954.46 C 786.88 952.76 789.93 950.80 793.05 951.95 C 802.53 954.50 811.41 959.81 817.73 967.37 C 821.20 971.37 821.66 977.06 820.20 981.99 C 815.38 1000.33 807.63 1017.71 801.32 1035.56 C 786.47 1075.71 772.86 1116.38 762.51 1157.94 C 759.50 1170.43 756.65 1183.10 756.27 1196.00 C 756.02 1201.31 758.33 1206.72 762.97 1209.57 C 762.50 1211.54 761.93 1214.04 759.63 1214.57 C 754.88 1215.16 750.02 1214.64 745.42 1213.42 C 736.95 1211.17 729.82 1204.82 726.15 1196.92 C 721.21 1186.73 720.67 1175.14 720.47 1164.02 C 720.40 1143.50 725.40 1123.42 730.67 1103.73 C 735.97 1084.43 742.89 1065.63 748.59 1046.45 C 753.09 1031.87 760.05 1018.22 764.98 1003.79 C 758.96 1007.31 754.86 1013.10 750.15 1018.09 C 735.81 1034.10 723.63 1051.87 711.73 1069.73 C 691.92 1099.33 675.31 1131.11 653.13 1159.09 C 649.39 1163.18 645.78 1168.52 639.87 1169.39 C 632.14 1170.30 624.35 1167.47 618.33 1162.70 C 611.50 1157.56 606.11 1149.78 605.78 1141.02 C 605.23 1126.57 608.55 1112.38 611.14 1098.27 C 601.78 1112.34 593.98 1127.40 584.24 1141.23 C 571.88 1159.02 559.09 1176.56 545.00 1193.03 C 542.66 1195.81 539.88 1198.78 536.01 1199.00 C 526.61 1200.10 515.98 1197.81 509.66 1190.29 C 504.59 1184.10 504.47 1175.59 504.93 1168.00 C 505.39 1145.50 509.93 1123.34 515.41 1101.59 C 522.04 1075.63 530.41 1049.82 532.23 1022.93 C 532.89 1018.48 530.63 1014.35 530.70 1009.94 C 533.01 1008.92 535.32 1006.99 538.00 1007.94 C 549.21 1009.97 560.22 1014.47 568.77 1022.13 C 575.36 1028.17 578.42 1037.13 578.87 1045.88 C 579.42 1058.26 577.48 1070.70 573.58 1082.45 C 566.79 1104.87 560.02 1127.31 553.57 1149.83 C 565.28 1136.73 574.32 1121.52 584.10 1106.98 C 589.46 1099.04 594.61 1090.96 600.16 1083.15 C 607.01 1073.44 615.79 1065.17 622.21 1055.17 C 624.99 1046.17 627.31 1037.02 630.00 1027.99 C 633.69 1014.36 638.51 1001.03 641.33 987.17 C 642.65 979.27 643.94 970.87 641.03 963.16 C 642.74 961.20 645.38 960.07 647.95 960.97 C 659.41 965.14 669.17 974.10 673.47 985.62 C 677.60 996.26 675.80 1007.91 674.27 1018.89 C 670.39 1041.62 664.49 1063.98 657.85 1086.05 C 653.61 1100.50 648.20 1114.60 644.28 1129.14 C 649.57 1123.42 653.58 1116.64 658.32 1110.47 C 681.33 1078.82 703.17 1046.25 728.65 1016.48 C 743.63 999.21 758.11 981.48 773.71 964.76 C 777.17 961.22 780.51 957.53 784.40 954.46 M 763.36 981.51 C 748.50 998.04 733.53 1014.52 719.77 1032.00 C 711.02 1042.96 702.93 1054.42 694.86 1065.88 C 688.99 1074.28 682.27 1082.18 677.74 1091.45 C 683.76 1086.31 687.65 1079.31 691.73 1072.66 C 704.52 1052.94 719.26 1034.52 735.32 1017.38 C 748.36 1003.33 760.82 988.77 772.83 973.85 C 774.57 971.62 776.73 969.54 777.37 966.69 C 772.29 971.22 768.04 976.58 763.36 981.51 M 807.11 981.20 C 803.50 988.68 800.11 996.28 796.92 1003.95 C 780.37 1044.24 767.45 1085.92 756.18 1127.97 C 755.23 1132.06 753.50 1136.03 753.32 1140.27 C 759.66 1125.74 763.80 1110.35 767.84 1095.04 C 772.81 1076.68 779.14 1058.71 785.85 1040.91 C 792.66 1023.16 800.57 1005.83 806.83 987.86 C 807.98 984.13 810.00 980.58 810.08 976.60 C 808.91 978.00 807.89 979.53 807.11 981.20 M 772.34 1013.20 C 773.22 1012.20 773.97 1011.08 774.54 1009.89 C 778.03 1002.36 781.71 994.92 785.54 987.56 C 787.10 984.45 789.15 981.51 789.79 978.04 C 782.28 988.82 777.93 1001.39 772.34 1013.20 M 754.43 1006.47 C 755.84 1006.04 757.58 1005.91 758.45 1004.51 C 760.77 1001.46 763.90 999.16 766.24 996.14 C 767.54 993.78 768.46 991.21 770.06 989.01 C 764.91 994.88 759.47 1000.51 754.43 1006.47 M 741.73 1014.63 C 726.74 1031.88 712.83 1050.06 699.76 1068.80 C 698.14 1071.19 695.72 1073.62 696.72 1076.80 C 701.45 1070.25 706.13 1063.62 711.64 1057.69 C 711.05 1059.35 710.43 1061.00 709.83 1062.68 C 711.70 1061.61 714.04 1061.08 715.35 1059.24 C 717.34 1056.57 718.72 1053.49 720.91 1050.97 C 722.33 1049.47 722.30 1047.11 723.78 1045.71 C 728.59 1042.51 731.15 1037.14 734.88 1032.88 C 739.55 1025.17 745.89 1018.75 752.02 1012.21 C 751.63 1011.90 750.84 1011.29 750.45 1010.99 C 745.09 1017.08 740.44 1024.07 733.38 1028.37 C 736.62 1022.52 741.38 1017.74 745.51 1012.53 C 750.39 1006.39 755.86 1000.71 760.54 994.41 C 753.78 1000.66 747.89 1007.80 741.73 1014.63 M 618.52 1063.41 C 612.84 1071.03 605.30 1077.16 600.39 1085.40 C 590.25 1102.15 579.07 1118.24 568.84 1134.94 C 563.84 1143.38 556.38 1150.15 552.19 1159.10 C 554.02 1157.64 555.92 1156.20 557.28 1154.28 C 573.75 1129.83 590.11 1105.24 607.35 1081.34 C 608.64 1078.76 610.32 1076.39 612.14 1074.17 C 614.00 1071.82 615.11 1068.81 617.68 1067.10 C 615.85 1071.43 613.28 1075.42 611.59 1079.82 C 613.72 1077.53 615.45 1074.92 617.59 1072.64 C 618.33 1070.03 619.81 1067.47 619.59 1064.71 C 619.61 1064.01 619.61 1062.47 618.52 1063.41 M 704.59 1070.29 C 703.46 1070.90 702.17 1072.37 702.51 1073.72 C 704.06 1074.30 706.55 1070.83 704.59 1070.29 M 692.05 1081.03 C 691.51 1082.44 691.94 1082.91 693.36 1082.46 C 693.88 1081.03 693.44 1080.55 692.05 1081.03 M 610.96 1088.95 C 613.24 1087.68 614.07 1085.15 614.92 1082.86 C 613.29 1084.67 611.88 1086.68 610.96 1088.95 M 556.79 1084.80 C 551.28 1094.93 550.04 1106.54 546.64 1117.41 C 541.06 1137.08 533.51 1156.36 531.09 1176.78 C 533.20 1173.09 533.46 1168.73 534.74 1164.75 C 541.48 1137.93 550.18 1111.63 556.79 1084.80 M 687.20 1088.16 C 685.61 1091.10 690.54 1088.32 687.20 1088.16 M 683.18 1092.54 C 681.50 1093.60 683.50 1095.88 684.87 1094.58 C 686.53 1093.50 684.53 1091.19 683.18 1092.54 M 578.24 1133.94 C 579.94 1132.33 581.56 1130.64 583.02 1128.82 C 580.38 1129.34 578.44 1131.20 578.24 1133.94 M 574.26 1139.19 C 574.80 1139.69 574.80 1139.69 574.26 1139.19 M 748.81 1156.46 L 750.10 1155.81 C 751.46 1152.66 751.41 1149.09 751.76 1145.74 C 750.62 1149.26 749.58 1152.82 748.81 1156.46 Z" />
<path fill="#000000" opacity="1.00" d=" M 902.17 977.29 C 908.64 971.95 916.36 967.35 925.00 967.23 C 935.73 966.62 945.76 971.85 954.04 978.22 C 960.45 983.38 966.10 989.57 970.29 996.68 C 974.34 1003.41 977.41 1011.04 977.29 1019.02 C 977.53 1036.69 971.76 1053.74 964.64 1069.68 C 956.41 1088.06 945.53 1105.26 932.36 1120.50 C 922.37 1132.06 911.98 1143.49 899.50 1152.42 C 890.00 1159.55 877.58 1161.35 866.00 1160.86 C 847.79 1160.04 830.41 1149.73 820.83 1134.25 C 811.17 1119.19 809.27 1100.31 812.09 1082.96 C 815.90 1064.60 822.58 1046.64 832.83 1030.88 C 838.53 1022.89 844.96 1013.98 854.97 1011.37 C 860.22 1009.37 864.68 1013.57 869.47 1015.01 C 879.38 1001.65 889.22 987.91 902.17 977.29 M 901.78 989.38 C 902.38 990.71 904.82 989.44 903.70 988.22 C 903.22 988.51 902.26 989.09 901.78 989.38 M 899.09 992.05 C 897.43 993.68 895.96 995.48 894.61 997.37 C 896.73 995.62 898.82 993.82 900.73 991.83 C 901.30 990.90 898.66 990.76 899.09 992.05 M 930.68 1001.78 C 918.51 1011.23 908.12 1022.93 899.77 1035.87 C 895.88 1042.02 891.95 1048.54 891.09 1055.91 C 890.55 1061.75 894.54 1066.55 898.79 1070.00 C 897.34 1071.08 896.12 1072.87 894.15 1072.96 C 887.67 1073.46 880.76 1071.52 876.15 1066.79 C 871.44 1061.91 867.40 1056.47 862.94 1051.38 C 859.61 1059.46 856.78 1067.73 854.03 1076.02 C 847.27 1094.87 845.16 1115.79 850.06 1135.34 C 864.45 1131.47 877.53 1123.65 888.58 1113.74 C 904.12 1100.22 916.56 1083.43 926.37 1065.39 C 934.73 1049.93 941.34 1033.42 945.07 1016.21 C 946.35 1009.18 948.95 1001.78 946.02 994.80 C 940.26 995.30 935.17 998.35 930.68 1001.78 M 897.52 1017.50 C 893.73 1023.10 889.29 1028.60 887.81 1035.36 C 894.58 1027.20 900.54 1018.40 907.28 1010.22 C 911.21 1005.12 916.01 1000.77 920.00 995.74 C 911.30 1001.56 903.59 1008.95 897.52 1017.50 M 849.24 1053.89 C 853.98 1046.71 859.18 1039.63 862.28 1031.57 C 855.76 1037.48 852.64 1046.00 849.24 1053.89 M 934.17 1097.38 C 928.46 1105.73 921.74 1113.37 916.19 1121.81 C 925.89 1112.24 934.93 1101.92 942.43 1090.51 C 946.79 1083.84 951.38 1076.87 952.34 1068.76 C 946.44 1078.39 941.01 1088.35 934.17 1097.38 M 913.86 1099.15 C 918.06 1096.03 920.60 1091.30 923.09 1086.83 C 919.59 1090.58 916.42 1094.69 913.86 1099.15 Z" />
<path fill="#000000" opacity="1.00" d=" M 1299.74 977.70 C 1307.80 974.45 1315.41 969.91 1324.01 968.15 C 1328.05 972.39 1333.76 975.92 1335.19 981.97 C 1335.52 988.49 1331.22 993.85 1328.48 999.41 C 1318.42 1018.60 1310.64 1038.87 1303.12 1059.15 C 1299.73 1069.43 1295.68 1079.72 1294.88 1090.61 C 1315.59 1070.31 1334.58 1048.34 1353.00 1025.96 C 1357.65 1020.57 1359.29 1013.50 1362.12 1007.14 C 1366.91 995.89 1371.93 984.35 1380.41 975.34 C 1381.69 973.51 1383.68 975.28 1384.42 976.63 C 1386.50 978.07 1388.52 979.73 1389.42 982.21 C 1392.33 983.25 1391.75 986.77 1390.84 989.04 C 1384.30 1006.49 1377.45 1023.91 1372.87 1042.01 C 1367.83 1061.00 1362.21 1079.85 1357.86 1099.01 C 1352.94 1120.00 1345.29 1140.20 1338.51 1160.63 C 1334.75 1172.38 1329.24 1183.46 1323.11 1194.14 C 1318.36 1202.06 1312.57 1209.57 1305.00 1214.99 C 1294.95 1222.51 1279.10 1218.94 1272.90 1208.21 C 1270.21 1199.26 1271.77 1189.51 1274.83 1180.85 C 1279.41 1167.74 1288.35 1156.74 1298.26 1147.25 C 1303.28 1142.64 1308.53 1138.18 1314.62 1135.04 C 1314.46 1135.77 1314.12 1137.23 1313.95 1137.96 C 1314.57 1137.65 1315.80 1137.03 1316.42 1136.72 C 1316.92 1138.17 1317.85 1139.43 1318.71 1140.75 C 1319.34 1140.37 1320.00 1140.02 1320.67 1139.69 C 1324.23 1132.78 1326.13 1125.19 1329.00 1118.00 C 1335.90 1100.59 1339.46 1082.14 1344.35 1064.13 C 1332.32 1075.89 1322.40 1089.57 1310.80 1101.73 C 1306.08 1106.73 1301.32 1112.21 1294.99 1115.14 C 1289.64 1115.48 1284.23 1113.21 1280.12 1109.85 C 1273.96 1104.52 1272.13 1095.76 1272.95 1087.95 C 1274.48 1070.93 1280.07 1054.64 1285.56 1038.57 C 1291.25 1022.76 1298.19 1007.33 1307.17 993.10 C 1299.37 995.42 1291.92 998.97 1283.86 1000.31 C 1278.44 1001.27 1273.25 998.05 1269.83 994.12 C 1267.98 991.88 1266.31 988.59 1267.71 985.76 C 1270.33 984.36 1273.34 986.56 1276.17 985.91 C 1284.44 984.59 1292.05 980.85 1299.74 977.70 M 1291.40 1181.39 C 1288.93 1188.29 1286.32 1195.54 1287.52 1203.00 C 1302.94 1187.16 1310.12 1165.83 1318.50 1145.88 C 1307.09 1155.54 1296.89 1167.32 1291.40 1181.39 M 1322.15 1181.16 C 1326.30 1172.87 1331.27 1164.78 1332.98 1155.53 C 1328.62 1163.72 1325.33 1172.46 1322.15 1181.16 M 1325.77 1157.94 C 1324.55 1160.49 1323.50 1163.11 1322.44 1165.73 C 1322.73 1165.74 1323.32 1165.75 1323.61 1165.76 C 1324.54 1163.22 1325.37 1160.62 1325.77 1157.94 M 1282.73 1192.28 C 1285.68 1186.93 1286.70 1180.81 1288.86 1175.14 C 1286.03 1180.52 1282.86 1186.01 1282.73 1192.28 Z" />
<path fill="#000000" opacity="1.00" d=" M 2319.94 973.97 C 2321.26 972.06 2323.46 971.22 2325.66 970.78 C 2326.08 971.31 2326.92 972.37 2327.33 972.89 C 2330.01 973.07 2330.33 975.13 2330.17 977.44 C 2331.39 976.54 2332.63 975.65 2333.90 974.79 C 2335.55 975.61 2337.26 976.38 2338.85 977.39 C 2338.86 978.68 2338.72 979.98 2338.42 981.29 C 2340.51 981.62 2342.61 981.97 2344.75 982.32 C 2344.73 984.06 2344.72 985.80 2344.77 987.56 C 2345.50 987.46 2346.95 987.25 2347.68 987.15 C 2350.21 989.41 2352.68 992.24 2352.72 995.85 C 2352.90 1002.71 2351.61 1009.55 2349.48 1016.06 C 2346.50 1025.35 2345.97 1035.40 2347.98 1044.96 C 2348.39 1048.46 2349.51 1052.20 2348.61 1055.65 C 2346.02 1057.07 2342.73 1057.55 2340.11 1055.97 C 2337.76 1054.45 2334.90 1054.42 2332.38 1053.51 C 2327.78 1050.51 2324.32 1046.09 2321.35 1041.56 C 2315.51 1032.66 2310.92 1022.71 2309.62 1012.07 C 2308.70 1005.47 2310.09 998.85 2311.63 992.47 C 2313.44 985.95 2315.82 979.41 2319.94 973.97 Z" />
<path fill="#000000" opacity="1.00" d=" M 2920.00 1001.15 C 2927.02 995.05 2937.09 993.23 2945.95 995.86 C 2959.36 999.77 2972.64 1007.24 2979.84 1019.65 C 2978.30 1020.74 2977.19 1023.28 2975.03 1022.81 C 2969.33 1021.85 2963.20 1018.48 2957.58 1021.49 C 2951.12 1025.40 2947.34 1032.30 2943.72 1038.67 C 2940.53 1045.25 2936.76 1051.68 2935.18 1058.89 C 2933.62 1064.98 2933.55 1071.30 2933.29 1077.55 C 2939.93 1072.17 2946.21 1066.38 2952.48 1060.58 C 2960.03 1053.68 2971.10 1050.81 2981.03 1053.31 C 2986.74 1055.10 2991.85 1058.33 2997.12 1061.11 C 2990.41 1067.23 2982.76 1072.15 2975.45 1077.49 C 2963.34 1087.36 2954.96 1100.80 2945.87 1113.30 C 2953.41 1128.63 2960.91 1144.00 2967.18 1159.90 C 2972.63 1174.25 2974.96 1189.68 2974.78 1205.00 C 2974.96 1212.58 2973.36 1220.20 2970.02 1227.01 C 2962.11 1243.59 2946.44 1255.75 2929.00 1260.94 C 2913.75 1265.49 2896.29 1264.05 2882.83 1255.20 C 2874.36 1249.52 2867.05 1240.57 2866.80 1229.96 C 2866.38 1211.33 2873.05 1193.59 2879.36 1176.37 C 2887.79 1154.18 2898.33 1132.86 2909.33 1111.85 C 2905.49 1102.92 2901.62 1094.01 2897.92 1085.04 C 2892.83 1072.54 2891.11 1058.46 2894.32 1045.26 C 2898.11 1028.46 2906.61 1012.24 2920.00 1001.15 M 2910.91 1030.14 C 2913.19 1027.22 2915.00 1023.94 2916.26 1020.45 C 2913.61 1023.12 2912.15 1026.66 2910.91 1030.14 M 2919.91 1034.48 C 2922.74 1031.97 2924.58 1028.50 2925.05 1024.73 C 2922.84 1027.70 2921.37 1031.11 2919.91 1034.48 M 2923.33 1050.12 C 2927.08 1046.32 2929.41 1041.45 2931.60 1036.65 C 2933.48 1032.40 2935.87 1028.41 2937.95 1024.26 C 2928.29 1029.13 2926.50 1040.85 2923.33 1050.12 M 2914.87 1147.78 C 2907.27 1163.98 2901.91 1181.09 2895.75 1197.86 C 2891.76 1208.19 2890.75 1219.27 2889.34 1230.16 C 2890.59 1227.57 2890.91 1224.68 2891.51 1221.91 C 2897.34 1192.52 2910.53 1165.42 2921.56 1137.77 C 2918.46 1140.45 2916.59 1144.14 2914.87 1147.78 M 2923.71 1156.75 C 2915.74 1175.06 2908.60 1193.78 2903.12 1213.00 C 2900.72 1222.06 2898.00 1232.09 2902.18 1241.08 C 2907.33 1240.70 2911.49 1237.37 2915.39 1234.29 C 2927.59 1223.99 2933.25 1207.60 2933.66 1191.99 C 2933.83 1178.22 2929.95 1164.91 2927.04 1151.58 C 2925.31 1152.85 2924.52 1154.86 2923.71 1156.75 M 2882.13 1192.88 C 2887.60 1182.42 2891.26 1171.18 2894.75 1159.94 C 2890.16 1170.76 2885.72 1181.69 2882.13 1192.88 M 2954.13 1230.44 C 2959.12 1223.66 2963.51 1215.30 2961.82 1206.62 C 2958.92 1214.43 2954.17 1221.85 2954.13 1230.44 M 2950.35 1212.92 C 2949.26 1215.23 2948.31 1217.59 2947.52 1220.01 C 2950.10 1218.57 2950.47 1215.61 2950.35 1212.92 Z" />
<path fill="#000000" opacity="1.00" d=" M 3040.54 1001.76 C 3045.60 997.33 3052.23 994.55 3059.03 994.71 C 3066.98 994.79 3074.45 998.06 3081.45 1001.58 C 3089.43 1005.75 3096.71 1011.82 3101.14 1019.77 C 3100.01 1020.86 3098.92 1021.96 3097.85 1023.07 C 3091.53 1022.36 3084.84 1018.19 3078.66 1021.64 C 3072.44 1025.44 3068.75 1032.07 3065.28 1038.25 C 3061.94 1045.01 3058.05 1051.64 3056.43 1059.08 C 3055.05 1065.06 3054.61 1071.22 3054.78 1077.36 C 3061.33 1072.10 3067.50 1066.38 3073.69 1060.69 C 3081.28 1053.69 3092.48 1050.77 3102.50 1053.35 C 3107.71 1055.19 3112.64 1057.84 3117.41 1060.64 C 3118.84 1061.51 3116.52 1062.51 3116.05 1063.21 C 3109.56 1068.80 3102.22 1073.27 3095.49 1078.52 C 3084.02 1088.31 3075.96 1101.29 3067.12 1113.34 C 3071.52 1122.47 3076.21 1131.46 3080.30 1140.74 C 3084.48 1150.32 3089.05 1159.81 3091.77 1169.95 C 3095.03 1181.96 3096.31 1194.46 3096.19 1206.88 C 3095.85 1223.66 3086.27 1239.18 3073.17 1249.20 C 3058.63 1260.48 3039.25 1266.24 3021.05 1262.17 C 3009.83 1259.97 2999.39 1253.59 2992.85 1244.15 C 2989.29 1239.17 2987.82 1232.97 2988.07 1226.91 C 2988.52 1208.40 2995.31 1190.87 3001.67 1173.72 C 3009.92 1152.49 3020.07 1132.07 3030.60 1111.89 C 3026.95 1103.12 3023.09 1094.43 3019.46 1085.66 C 3014.45 1073.51 3012.43 1059.86 3015.27 1046.93 C 3018.75 1029.78 3027.22 1013.31 3040.54 1001.76 M 3032.05 1030.36 C 3034.52 1027.27 3036.36 1023.72 3037.80 1020.04 C 3035.09 1022.98 3033.37 1026.63 3032.05 1030.36 M 3041.10 1034.95 C 3043.72 1032.09 3045.88 1028.72 3046.41 1024.79 C 3044.05 1027.84 3042.64 1031.46 3041.10 1034.95 M 3050.45 1033.60 C 3048.06 1038.93 3046.17 1044.50 3044.65 1050.15 C 3051.47 1042.78 3054.00 1032.72 3059.26 1024.33 C 3055.32 1026.27 3052.21 1029.59 3050.45 1033.60 M 3035.12 1150.09 C 3028.06 1165.65 3022.87 1181.95 3017.04 1197.98 C 3013.06 1208.23 3012.01 1219.24 3010.72 1230.06 C 3012.34 1226.43 3012.48 1222.37 3013.53 1218.57 C 3019.63 1190.46 3032.26 1164.45 3042.78 1137.86 C 3039.04 1141.09 3037.21 1145.76 3035.12 1150.09 M 3044.01 1159.04 C 3036.03 1177.78 3028.71 1196.88 3023.47 1216.59 C 3021.59 1224.44 3019.62 1233.18 3023.46 1240.79 C 3027.55 1241.22 3030.99 1238.43 3034.18 1236.25 C 3047.53 1226.68 3053.95 1210.01 3054.92 1194.07 C 3055.55 1179.64 3051.35 1165.68 3048.43 1151.70 C 3045.85 1153.29 3045.31 1156.52 3044.01 1159.04 M 3015.88 1159.95 C 3011.86 1170.32 3007.36 1180.55 3004.03 1191.17 C 3009.47 1181.41 3012.78 1170.63 3015.88 1159.95 M 3082.89 1207.07 C 3080.19 1214.69 3075.39 1221.84 3075.54 1230.21 C 3080.25 1223.64 3085.00 1215.43 3082.89 1207.07 M 3069.04 1220.27 C 3071.27 1218.38 3071.89 1215.53 3071.87 1212.74 C 3070.45 1215.04 3069.52 1217.60 3069.04 1220.27 Z" />
<path fill="#000000" opacity="1.00" d=" M 3412.69 1003.67 C 3415.55 1000.85 3418.85 997.83 3423.07 997.48 C 3428.78 998.36 3434.13 1000.90 3439.05 1003.91 C 3443.77 1007.03 3448.44 1010.64 3451.38 1015.59 C 3453.62 1019.38 3453.23 1024.05 3452.21 1028.17 C 3447.67 1045.14 3440.69 1061.29 3434.74 1077.78 C 3420.57 1115.97 3407.42 1154.59 3397.08 1194.01 C 3393.47 1208.20 3389.73 1222.47 3388.59 1237.13 C 3388.42 1241.43 3387.99 1246.03 3390.00 1250.02 C 3391.03 1252.29 3393.05 1253.85 3394.97 1255.40 C 3394.68 1257.73 3393.59 1260.48 3390.87 1260.65 C 3382.08 1261.17 3372.63 1259.18 3365.98 1253.09 C 3359.87 1247.86 3356.41 1240.21 3354.64 1232.51 C 3350.82 1213.19 3352.54 1193.22 3356.75 1174.11 C 3361.04 1153.34 3367.44 1133.09 3374.17 1113.00 C 3378.27 1100.56 3381.64 1087.86 3386.70 1075.75 C 3390.31 1067.17 3393.90 1058.58 3397.04 1049.82 C 3390.89 1053.19 3386.86 1059.11 3382.11 1064.07 C 3368.40 1079.41 3356.69 1096.36 3345.23 1113.40 C 3324.97 1143.53 3308.06 1175.91 3285.58 1204.53 C 3281.53 1209.01 3277.53 1214.91 3270.96 1215.43 C 3263.78 1215.91 3256.67 1213.29 3250.97 1209.05 C 3243.86 1203.84 3238.23 1195.93 3237.79 1186.91 C 3237.40 1175.96 3239.27 1165.09 3241.25 1154.37 C 3247.07 1124.47 3256.12 1095.34 3264.30 1066.03 C 3267.55 1055.05 3271.14 1044.14 3273.42 1032.90 C 3274.71 1024.96 3276.05 1016.58 3273.11 1008.82 C 3274.73 1007.47 3276.65 1006.21 3278.92 1006.51 C 3289.40 1009.96 3298.66 1017.36 3303.65 1027.30 C 3308.68 1036.37 3308.54 1047.09 3307.37 1057.10 C 3305.27 1074.48 3300.98 1091.50 3296.62 1108.43 C 3292.97 1122.11 3288.94 1135.68 3284.44 1149.10 C 3281.82 1157.77 3278.42 1166.21 3276.43 1175.05 C 3282.02 1168.60 3286.56 1161.32 3291.70 1154.51 C 3314.97 1122.37 3337.24 1089.40 3363.26 1059.36 C 3379.59 1040.67 3395.03 1021.15 3412.69 1003.67 M 3394.96 1027.90 C 3380.58 1043.91 3366.11 1059.86 3352.73 1076.72 C 3343.32 1088.43 3334.70 1100.75 3326.02 1113.00 C 3319.57 1122.02 3312.50 1130.74 3307.92 1140.92 C 3310.78 1135.65 3315.71 1131.93 3318.74 1126.76 C 3331.97 1104.69 3347.93 1084.33 3365.36 1065.44 C 3379.25 1050.57 3392.52 1035.14 3405.24 1019.27 C 3406.81 1017.18 3408.92 1015.28 3409.39 1012.58 C 3404.17 1017.28 3399.78 1022.81 3394.96 1027.90 M 3437.56 1030.49 C 3433.25 1039.66 3429.24 1048.97 3425.51 1058.39 C 3409.16 1100.02 3396.05 1142.90 3385.14 1186.26 C 3388.91 1179.31 3390.76 1171.51 3393.41 1164.09 C 3398.89 1146.07 3403.00 1127.63 3409.54 1109.93 C 3416.97 1087.28 3426.82 1065.57 3435.36 1043.34 C 3437.67 1036.42 3441.02 1029.76 3442.24 1022.53 C 3439.96 1024.71 3438.89 1027.72 3437.56 1030.49 M 3414.19 1037.37 C 3411.10 1044.47 3407.45 1051.36 3404.88 1058.66 C 3408.95 1051.66 3411.91 1044.05 3415.81 1036.93 C 3417.78 1032.59 3420.83 1028.68 3421.80 1023.94 C 3418.68 1028.06 3416.48 1032.77 3414.19 1037.37 M 3386.50 1052.27 C 3387.27 1052.10 3388.82 1051.75 3389.60 1051.58 C 3391.63 1048.66 3394.28 1046.29 3396.82 1043.81 C 3399.30 1041.43 3400.00 1037.89 3401.87 1035.08 C 3396.88 1040.94 3391.50 1046.44 3386.50 1052.27 M 3370.89 1063.87 C 3356.98 1080.16 3344.00 1097.24 3331.74 1114.81 C 3330.20 1117.10 3327.77 1119.36 3328.74 1122.42 C 3333.73 1116.01 3338.44 1109.35 3343.76 1103.18 C 3343.18 1104.94 3342.39 1106.64 3341.95 1108.44 C 3343.41 1107.71 3344.92 1107.01 3346.49 1106.33 C 3349.02 1103.19 3350.60 1099.39 3353.37 1096.42 C 3354.37 1095.52 3354.43 1094.19 3354.59 1092.95 C 3361.97 1087.05 3366.63 1078.61 3372.24 1071.14 C 3376.00 1066.57 3380.15 1062.35 3384.19 1058.02 C 3383.74 1057.83 3382.84 1057.43 3382.39 1057.23 C 3376.86 1063.03 3372.43 1070.09 3365.41 1074.27 C 3368.77 1068.27 3373.68 1063.35 3377.93 1057.98 C 3382.30 1052.44 3387.26 1047.36 3391.44 1041.66 C 3383.93 1048.39 3377.61 1056.37 3370.89 1063.87 M 3324.07 1127.05 C 3323.53 1128.48 3323.97 1128.93 3325.41 1128.41 C 3325.87 1126.96 3325.42 1126.50 3324.07 1127.05 M 3319.05 1134.01 C 3318.56 1135.44 3319.02 1135.89 3320.45 1135.38 C 3320.85 1133.93 3320.38 1133.47 3319.05 1134.01 M 3315.39 1138.19 C 3315.22 1138.59 3314.88 1139.39 3314.71 1139.79 C 3316.64 1143.19 3319.17 1136.47 3315.39 1138.19 M 3380.93 1202.41 C 3381.97 1201.97 3382.59 1201.20 3382.77 1200.10 C 3383.52 1197.08 3383.55 1193.94 3383.76 1190.86 C 3382.85 1194.72 3381.70 1198.52 3380.93 1202.41 Z" />
<path fill="#000000" opacity="1.00" d=" M 2144.26 1026.28 C 2147.41 1024.34 2151.06 1025.20 2154.12 1026.87 C 2168.27 1032.95 2180.10 1045.37 2183.60 1060.59 C 2186.36 1072.55 2185.33 1085.61 2179.59 1096.57 C 2172.59 1110.00 2161.06 1120.61 2148.04 1128.11 C 2134.56 1135.82 2119.26 1141.10 2103.61 1141.00 C 2101.36 1146.39 2102.08 1152.34 2102.00 1158.03 C 2102.15 1166.20 2102.62 1174.90 2107.03 1182.04 C 2109.70 1186.05 2115.17 1184.24 2118.97 1183.15 C 2126.88 1180.66 2131.59 1173.37 2135.01 1166.31 C 2135.96 1172.17 2131.29 1176.18 2129.05 1181.01 C 2134.59 1178.66 2135.69 1172.25 2139.21 1167.99 C 2142.13 1172.39 2138.05 1176.25 2136.37 1180.12 C 2137.19 1180.23 2138.83 1180.44 2139.65 1180.55 C 2139.97 1181.18 2140.60 1182.42 2140.92 1183.05 C 2142.31 1181.09 2142.85 1177.41 2145.83 1177.32 C 2146.15 1174.77 2147.09 1172.40 2149.00 1170.63 C 2148.57 1176.89 2146.12 1183.10 2141.62 1187.55 C 2135.64 1193.46 2127.34 1197.10 2118.90 1197.07 C 2105.55 1197.46 2091.42 1193.86 2081.65 1184.31 C 2070.44 1173.81 2065.43 1158.11 2065.72 1143.02 C 2065.27 1122.75 2072.01 1103.06 2081.57 1085.44 C 2088.03 1074.10 2095.15 1062.57 2105.85 1054.74 C 2119.64 1044.35 2138.32 1041.32 2154.91 1045.68 C 2151.30 1039.24 2148.01 1032.63 2144.26 1026.28 M 2129.23 1080.18 C 2118.85 1090.96 2111.52 1104.68 2108.50 1119.34 C 2113.53 1118.51 2118.30 1116.48 2122.54 1113.65 C 2134.72 1105.62 2144.86 1094.48 2151.76 1081.62 C 2154.72 1076.23 2156.39 1070.16 2156.37 1064.00 C 2145.88 1066.39 2136.74 1072.67 2129.23 1080.18 M 2105.56 1092.43 C 2102.36 1097.81 2099.21 1103.68 2099.22 1110.11 C 2102.44 1098.96 2111.21 1090.65 2115.10 1079.80 C 2111.25 1083.45 2108.40 1087.99 2105.56 1092.43 M 2164.19 1103.11 C 2168.99 1098.47 2171.99 1092.30 2173.93 1085.97 C 2170.53 1091.59 2166.42 1096.88 2164.19 1103.11 Z" />
<path fill="#000000" opacity="1.00" d=" M 2832.25 1025.90 C 2837.14 1023.80 2841.87 1026.72 2846.19 1028.86 C 2859.18 1035.75 2869.50 1048.30 2872.03 1062.98 C 2874.24 1074.49 2872.76 1086.82 2867.17 1097.19 C 2859.48 1111.59 2846.63 1122.66 2832.28 1130.12 C 2819.66 1136.81 2805.58 1140.99 2791.25 1141.17 C 2789.50 1146.63 2790.05 1152.39 2789.99 1158.03 C 2789.96 1165.02 2790.49 1172.20 2793.19 1178.73 C 2794.18 1180.97 2795.44 1183.52 2797.95 1184.40 C 2806.41 1185.11 2814.75 1180.31 2819.13 1173.16 C 2820.40 1170.98 2821.49 1168.70 2822.82 1166.55 C 2823.91 1172.34 2819.05 1176.17 2817.08 1181.03 C 2822.51 1178.56 2823.57 1172.18 2827.17 1167.96 C 2830.00 1172.34 2826.00 1176.25 2824.34 1180.12 C 2825.16 1180.23 2826.80 1180.44 2827.62 1180.54 C 2827.94 1181.18 2828.56 1182.47 2828.87 1183.11 C 2830.00 1180.77 2830.99 1177.98 2833.74 1177.12 C 2834.16 1174.70 2835.07 1172.41 2836.93 1170.74 C 2836.45 1179.17 2831.82 1187.20 2824.55 1191.57 C 2817.45 1196.61 2808.45 1197.74 2799.99 1196.89 C 2787.68 1196.14 2775.32 1191.18 2767.10 1181.79 C 2756.32 1170.09 2752.73 1153.50 2753.66 1137.99 C 2754.53 1116.00 2763.14 1095.07 2774.70 1076.62 C 2781.10 1066.39 2789.03 1056.67 2799.79 1050.81 C 2812.77 1043.68 2828.58 1041.85 2842.87 1045.73 C 2839.29 1039.13 2835.61 1032.60 2832.25 1025.90 M 2817.68 1079.67 C 2806.96 1090.46 2799.51 1104.46 2796.43 1119.35 C 2802.49 1118.41 2808.06 1115.58 2812.96 1111.95 C 2822.85 1104.93 2831.22 1095.82 2837.51 1085.46 C 2841.58 1079.03 2844.32 1071.66 2844.37 1063.99 C 2834.10 1066.30 2825.09 1072.37 2817.68 1079.67 M 2786.48 1111.00 C 2788.45 1106.80 2789.93 1102.34 2792.50 1098.44 C 2796.50 1092.49 2800.44 1086.43 2803.08 1079.73 C 2795.03 1088.44 2788.18 1099.05 2786.48 1111.00 M 2851.93 1103.21 C 2856.85 1098.68 2859.77 1092.45 2861.79 1086.18 C 2858.21 1091.67 2854.45 1097.13 2851.93 1103.21 Z" />
<path fill="#000000" opacity="1.00" d=" M 3194.98 1025.94 C 3196.87 1025.61 3198.82 1024.68 3200.81 1025.31 C 3216.83 1030.68 3230.58 1044.02 3234.39 1060.75 C 3237.09 1072.61 3236.06 1085.53 3230.43 1096.41 C 3223.79 1109.13 3213.15 1119.45 3200.94 1126.82 C 3186.88 1135.40 3170.68 1141.01 3154.11 1141.10 C 3152.28 1146.90 3152.75 1153.03 3152.76 1159.03 C 3152.91 1166.50 3153.51 1174.29 3157.13 1180.99 C 3158.06 1182.80 3159.72 1184.50 3161.95 1184.50 C 3168.56 1184.51 3175.11 1181.57 3179.42 1176.52 C 3182.26 1173.64 3183.54 1169.71 3185.81 1166.43 C 3186.68 1172.29 3181.82 1176.15 3179.94 1181.14 C 3185.12 1178.49 3186.52 1172.53 3189.72 1168.12 C 3193.05 1172.19 3188.78 1176.27 3187.20 1180.01 C 3189.19 1180.08 3190.99 1180.86 3192.06 1182.67 C 3192.75 1181.28 3193.05 1179.51 3194.47 1178.64 C 3197.67 1177.03 3196.88 1172.72 3199.79 1170.73 C 3199.25 1179.60 3194.09 1187.87 3186.36 1192.24 C 3175.83 1198.93 3162.50 1197.76 3150.95 1194.82 C 3133.57 1190.23 3120.85 1174.31 3117.75 1156.95 C 3114.17 1137.07 3118.04 1116.41 3126.16 1098.09 C 3132.14 1084.61 3139.56 1071.52 3149.68 1060.70 C 3163.79 1045.96 3186.10 1040.39 3205.66 1045.69 C 3202.07 1039.12 3198.52 1032.53 3194.98 1025.94 M 3181.09 1079.08 C 3170.07 1089.97 3162.40 1104.21 3159.24 1119.37 C 3167.81 1118.05 3175.04 1112.87 3181.57 1107.48 C 3189.32 1100.78 3196.10 1092.90 3201.19 1083.98 C 3204.84 1077.94 3207.22 1071.04 3207.07 1063.92 C 3197.15 1066.34 3188.38 1072.06 3181.09 1079.08 M 3149.44 1110.93 C 3153.01 1099.48 3161.80 1090.77 3165.95 1079.60 C 3158.02 1088.39 3150.90 1098.91 3149.44 1110.93 M 3214.88 1103.20 C 3219.75 1098.54 3222.65 1092.29 3224.72 1085.97 C 3221.23 1091.58 3217.16 1096.95 3214.88 1103.20 Z" />
<path fill="#000000" opacity="1.00" d=" M 2569.93 1032.88 C 2579.08 1027.95 2589.89 1025.73 2600.18 1027.76 C 2609.32 1029.46 2616.96 1035.25 2624.03 1040.98 C 2626.19 1042.90 2629.01 1044.80 2629.31 1047.96 C 2629.01 1049.20 2628.70 1050.43 2628.37 1051.66 C 2622.93 1050.37 2617.66 1048.34 2612.16 1047.47 C 2597.70 1051.90 2585.88 1062.07 2576.27 1073.42 C 2563.91 1087.55 2554.78 1104.14 2547.16 1121.21 C 2544.46 1127.58 2540.78 1133.57 2538.85 1140.24 C 2546.12 1136.38 2551.83 1130.29 2558.02 1124.98 C 2571.85 1112.55 2585.73 1100.18 2599.56 1087.74 C 2604.02 1083.70 2607.93 1079.01 2610.72 1073.65 C 2613.48 1068.37 2618.50 1064.73 2623.90 1062.47 C 2623.98 1063.98 2624.09 1065.50 2624.22 1067.04 C 2626.14 1065.79 2628.30 1065.74 2630.33 1066.91 C 2630.17 1068.20 2630.05 1069.50 2629.95 1070.81 C 2631.51 1070.12 2633.17 1070.11 2634.86 1070.49 C 2630.78 1083.51 2625.94 1096.27 2621.28 1109.08 C 2627.66 1097.15 2631.46 1084.03 2637.83 1072.09 C 2639.71 1072.93 2642.19 1073.76 2642.67 1076.11 C 2643.23 1080.54 2641.31 1084.73 2639.89 1088.81 C 2631.46 1112.33 2623.13 1135.90 2616.17 1159.90 C 2613.36 1170.21 2610.06 1180.51 2609.30 1191.23 C 2613.94 1188.71 2617.40 1184.65 2620.62 1180.56 C 2622.96 1177.97 2624.92 1174.72 2628.34 1173.40 C 2622.00 1183.86 2611.93 1191.71 2607.04 1203.11 C 2616.15 1194.39 2623.28 1183.93 2631.25 1174.21 C 2635.41 1169.29 2638.08 1163.18 2643.14 1159.00 C 2633.15 1178.98 2615.38 1193.88 2605.85 1214.16 C 2611.48 1208.35 2616.36 1201.86 2621.95 1196.00 C 2620.48 1199.02 2618.94 1202.01 2617.22 1204.90 C 2618.54 1204.10 2619.90 1203.23 2621.54 1203.22 C 2622.90 1200.90 2624.90 1198.76 2625.21 1195.99 C 2625.52 1193.20 2626.77 1190.58 2628.61 1188.48 C 2630.20 1186.74 2633.21 1186.51 2634.05 1184.05 C 2636.16 1178.79 2640.52 1174.90 2642.58 1169.59 C 2645.87 1165.37 2646.64 1159.95 2649.34 1155.41 C 2649.61 1155.71 2650.15 1156.31 2650.42 1156.61 C 2651.30 1152.28 2654.75 1149.28 2656.38 1145.29 C 2657.93 1141.80 2660.46 1138.89 2662.77 1135.88 C 2655.26 1154.67 2645.36 1172.44 2634.53 1189.51 C 2624.64 1204.39 2614.46 1219.50 2600.73 1231.16 C 2595.49 1229.28 2590.21 1227.38 2585.33 1224.71 C 2581.57 1222.63 2580.53 1218.01 2580.14 1214.08 C 2578.72 1183.87 2586.92 1154.49 2592.05 1125.00 C 2584.24 1132.98 2576.42 1140.93 2568.76 1149.03 C 2562.09 1156.56 2555.53 1164.34 2547.42 1170.37 C 2540.88 1175.44 2532.52 1179.04 2524.11 1177.37 C 2513.62 1175.37 2503.48 1169.47 2497.63 1160.38 C 2493.86 1154.62 2494.53 1147.40 2495.52 1140.94 C 2498.35 1124.11 2505.47 1108.33 2513.58 1093.44 C 2521.51 1079.53 2530.54 1066.18 2541.29 1054.28 C 2549.27 1045.31 2559.17 1038.16 2569.93 1032.88 M 2555.74 1077.92 C 2545.55 1091.29 2537.21 1106.02 2530.53 1121.44 C 2527.01 1129.34 2524.25 1137.68 2523.23 1146.30 C 2533.91 1118.46 2546.69 1090.94 2565.81 1067.79 C 2561.80 1070.44 2558.65 1074.15 2555.74 1077.92 M 2530.42 1084.42 C 2524.93 1093.80 2519.75 1103.37 2515.11 1113.19 C 2519.49 1106.42 2523.14 1099.21 2527.02 1092.15 C 2530.45 1085.57 2534.73 1079.51 2538.57 1073.18 C 2535.03 1076.27 2532.94 1080.55 2530.42 1084.42 M 2624.22 1080.35 C 2623.02 1080.74 2622.07 1082.47 2622.96 1083.55 C 2624.35 1083.99 2625.74 1080.71 2624.22 1080.35 M 2609.24 1216.25 C 2609.82 1216.66 2609.82 1216.66 2609.24 1216.25 Z" />
<path fill="#000000" opacity="1.00" d=" M 2416.66 1034.68 C 2429.60 1029.45 2444.96 1031.86 2456.38 1039.66 C 2465.59 1045.94 2473.48 1054.23 2479.11 1063.87 C 2484.17 1071.36 2484.06 1080.97 2481.27 1089.28 C 2478.81 1096.63 2477.73 1104.94 2480.71 1112.31 C 2481.47 1114.53 2482.14 1116.80 2482.81 1119.07 C 2477.41 1118.26 2471.96 1116.81 2467.44 1113.66 C 2460.18 1108.82 2455.28 1100.74 2454.20 1092.10 C 2452.69 1082.30 2455.46 1072.50 2459.06 1063.47 C 2454.53 1063.56 2449.57 1063.03 2445.55 1065.51 C 2428.61 1077.02 2417.61 1095.39 2411.34 1114.56 C 2405.65 1131.44 2403.70 1149.30 2403.06 1167.02 C 2403.00 1172.31 2402.22 1177.73 2403.84 1182.89 C 2414.52 1182.14 2424.93 1178.82 2434.00 1173.10 C 2441.89 1169.03 2448.50 1162.69 2456.91 1159.61 C 2460.21 1162.13 2463.38 1164.86 2466.94 1167.05 C 2466.43 1168.38 2465.96 1169.71 2465.52 1171.07 C 2466.66 1169.97 2467.90 1168.91 2469.12 1167.86 C 2470.60 1168.81 2472.10 1169.75 2473.65 1170.68 C 2471.44 1175.24 2469.11 1179.91 2465.14 1183.22 C 2457.80 1189.54 2449.27 1194.37 2440.57 1198.55 C 2431.60 1202.42 2421.84 1205.76 2411.95 1204.40 C 2399.26 1203.25 2387.77 1196.19 2379.23 1187.01 C 2370.89 1178.02 2365.82 1166.45 2363.43 1154.52 C 2357.42 1163.61 2352.35 1173.28 2346.22 1182.29 C 2333.47 1200.95 2320.20 1219.30 2305.65 1236.59 C 2302.84 1239.67 2300.34 1243.76 2295.97 1244.67 C 2288.53 1245.66 2280.53 1244.94 2273.99 1241.00 C 2270.11 1238.60 2266.78 1235.09 2265.23 1230.75 C 2262.85 1224.47 2263.46 1217.62 2263.70 1211.06 C 2264.74 1182.40 2272.00 1154.47 2279.59 1126.97 C 2284.66 1106.93 2290.30 1086.79 2291.02 1066.01 C 2291.05 1062.61 2288.90 1059.48 2289.59 1056.06 C 2291.52 1054.30 2294.29 1053.02 2296.94 1053.84 C 2307.70 1055.87 2318.27 1060.11 2326.64 1067.29 C 2332.75 1072.48 2336.21 1080.21 2337.18 1088.07 C 2337.85 1095.05 2337.63 1102.13 2336.74 1109.10 C 2335.47 1119.87 2331.57 1130.06 2328.58 1140.42 C 2323.06 1158.84 2317.62 1177.28 2312.11 1195.70 C 2315.47 1192.80 2317.80 1188.97 2320.55 1185.53 C 2334.56 1166.65 2346.39 1146.26 2360.18 1127.22 C 2361.79 1124.93 2364.08 1122.91 2364.55 1120.02 C 2369.73 1094.60 2380.10 1069.74 2397.15 1049.96 C 2402.64 1043.76 2408.81 1037.76 2416.66 1034.68 M 2405.71 1055.71 C 2402.53 1059.37 2399.51 1063.19 2396.96 1067.31 C 2402.57 1063.84 2405.95 1057.89 2409.89 1052.78 C 2408.26 1053.40 2406.78 1054.35 2405.71 1055.71 M 2408.28 1069.11 C 2411.51 1066.66 2414.47 1063.88 2417.10 1060.79 C 2412.89 1061.75 2409.88 1065.26 2408.28 1069.11 M 2413.86 1076.81 C 2409.50 1084.10 2405.27 1091.83 2402.50 1099.73 C 2405.64 1093.97 2409.64 1088.73 2413.30 1083.29 C 2418.29 1075.68 2423.93 1068.54 2430.29 1062.02 C 2422.48 1063.56 2417.96 1070.67 2413.86 1076.81 M 2358.00 1132.98 C 2351.10 1144.35 2343.72 1155.41 2336.50 1166.58 C 2331.08 1174.77 2326.41 1183.49 2320.16 1191.12 C 2316.58 1195.44 2313.23 1200.01 2310.84 1205.10 C 2313.07 1203.29 2315.26 1201.35 2316.84 1198.91 C 2329.80 1179.29 2343.15 1159.93 2356.51 1140.57 C 2359.51 1135.91 2364.14 1131.62 2363.28 1125.52 C 2361.29 1127.84 2359.55 1130.36 2358.00 1132.98 M 2315.81 1130.04 C 2310.43 1139.59 2308.97 1150.56 2305.99 1160.94 C 2301.29 1177.71 2295.22 1194.10 2291.64 1211.17 C 2290.97 1214.87 2289.78 1218.60 2290.28 1222.40 C 2291.90 1217.21 2292.98 1211.88 2294.45 1206.65 C 2301.14 1180.99 2309.15 1155.70 2315.81 1130.04 M 2337.08 1179.93 C 2338.67 1178.23 2340.18 1176.45 2341.59 1174.59 C 2339.01 1175.26 2336.92 1177.11 2337.08 1179.93 Z" />
<path fill="#000000" opacity="1.00" d=" M 1468.92 1223.01 C 1477.76 1220.90 1486.92 1220.23 1495.98 1220.68 C 1514.64 1221.15 1533.30 1224.09 1551.04 1229.96 C 1568.10 1235.69 1583.85 1244.91 1597.86 1256.15 C 1611.99 1267.07 1627.19 1278.12 1635.45 1294.46 C 1638.31 1299.81 1642.12 1305.87 1640.08 1312.18 C 1626.11 1353.20 1620.34 1396.73 1620.61 1439.97 C 1620.67 1452.03 1622.67 1463.97 1622.98 1476.02 C 1622.95 1482.33 1623.49 1488.79 1621.70 1494.93 C 1620.69 1498.90 1618.71 1502.52 1616.65 1506.03 C 1608.61 1500.96 1599.49 1497.82 1591.76 1492.24 C 1585.67 1487.94 1581.37 1481.67 1577.55 1475.39 C 1567.94 1459.95 1562.56 1442.06 1561.07 1423.99 C 1559.57 1408.05 1559.10 1392.02 1559.25 1376.01 C 1559.04 1352.31 1559.37 1328.40 1564.35 1305.13 C 1566.16 1296.01 1569.47 1287.21 1574.21 1279.21 C 1567.47 1275.31 1559.84 1272.79 1552.01 1272.73 C 1537.96 1272.46 1523.98 1276.14 1511.56 1282.62 C 1499.81 1289.11 1488.80 1296.91 1478.34 1305.31 C 1464.36 1316.66 1452.12 1329.96 1440.30 1343.49 C 1388.26 1404.26 1353.02 1479.19 1339.15 1557.97 C 1333.06 1591.58 1331.64 1625.94 1333.98 1660.00 C 1334.88 1681.27 1338.37 1702.53 1345.68 1722.57 C 1350.37 1735.13 1356.83 1747.19 1365.71 1757.30 C 1374.68 1767.43 1388.75 1771.85 1402.02 1770.85 C 1417.73 1769.50 1432.19 1762.40 1445.76 1754.80 C 1471.61 1739.76 1495.01 1720.05 1512.95 1696.03 C 1521.13 1684.97 1528.33 1672.11 1528.29 1657.99 C 1528.43 1649.08 1525.58 1640.42 1521.35 1632.69 C 1518.34 1626.73 1515.40 1620.75 1512.38 1614.81 C 1512.96 1613.82 1513.56 1612.85 1514.17 1611.89 C 1524.29 1612.53 1533.49 1617.17 1542.36 1621.70 C 1560.17 1630.88 1575.86 1645.16 1584.47 1663.46 C 1591.77 1678.94 1590.86 1697.25 1584.98 1713.03 C 1578.65 1729.92 1568.55 1745.20 1556.74 1758.75 C 1545.73 1771.04 1533.87 1782.67 1520.43 1792.30 C 1496.85 1809.16 1469.75 1821.82 1440.93 1826.20 C 1408.79 1830.90 1374.53 1827.17 1345.90 1811.09 C 1319.36 1796.85 1297.27 1775.11 1281.26 1749.71 C 1270.08 1732.17 1261.90 1712.86 1255.57 1693.09 C 1249.91 1675.51 1245.99 1657.37 1244.06 1639.00 C 1238.70 1592.99 1241.66 1546.13 1252.13 1501.03 C 1268.59 1429.28 1302.08 1361.16 1350.72 1305.74 C 1365.17 1289.21 1381.20 1274.07 1398.57 1260.64 C 1410.81 1251.26 1423.54 1242.38 1437.40 1235.54 C 1447.53 1230.51 1457.83 1225.52 1468.92 1223.01 M 1385.75 1363.01 C 1372.52 1379.92 1360.96 1398.15 1351.42 1417.40 C 1335.59 1449.60 1324.32 1483.98 1317.50 1519.19 C 1320.97 1511.70 1323.49 1503.82 1326.20 1496.04 C 1332.69 1477.46 1339.93 1459.13 1348.32 1441.33 C 1364.38 1407.40 1384.40 1375.51 1405.74 1344.68 C 1407.86 1342.12 1409.36 1339.14 1409.83 1335.83 C 1400.96 1344.08 1393.34 1353.59 1385.75 1363.01 M 1342.08 1350.00 C 1324.42 1372.80 1310.82 1398.66 1301.35 1425.87 C 1309.55 1414.66 1316.26 1402.45 1323.58 1390.67 C 1333.90 1373.46 1344.22 1356.16 1352.54 1337.88 C 1348.49 1341.39 1345.44 1345.87 1342.08 1350.00 M 1348.17 1381.13 C 1340.75 1392.68 1334.10 1404.72 1328.07 1417.05 C 1325.46 1422.74 1322.22 1428.76 1323.47 1435.24 C 1327.98 1427.68 1331.87 1419.77 1336.15 1412.08 C 1344.76 1395.91 1353.71 1379.90 1362.12 1363.63 C 1356.20 1368.31 1352.41 1375.02 1348.17 1381.13 M 1296.24 1441.17 C 1299.75 1438.45 1300.24 1433.92 1299.85 1429.80 C 1298.22 1433.44 1297.09 1437.27 1296.24 1441.17 M 1313.86 1453.10 C 1314.36 1453.29 1315.37 1453.68 1315.87 1453.88 C 1316.57 1451.59 1317.27 1449.31 1317.93 1447.03 C 1316.53 1449.03 1315.19 1451.05 1313.86 1453.10 M 1310.63 1463.19 C 1310.45 1463.63 1310.09 1464.51 1309.92 1464.95 C 1311.23 1468.13 1313.87 1461.22 1310.63 1463.19 M 1527.73 1704.48 C 1529.68 1702.49 1531.74 1700.62 1533.67 1698.61 C 1535.48 1696.73 1535.53 1693.93 1535.97 1691.53 C 1532.57 1695.39 1529.97 1699.87 1527.73 1704.48 M 1542.89 1739.29 C 1549.34 1737.11 1553.16 1731.10 1556.59 1725.63 C 1561.46 1717.05 1565.05 1707.62 1566.31 1697.80 C 1557.96 1711.30 1551.11 1725.71 1542.89 1739.29 M 1543.01 1711.23 C 1545.07 1708.80 1546.98 1706.23 1548.61 1703.49 C 1544.79 1704.20 1543.59 1707.91 1543.01 1711.23 Z" />
<path fill="#000000" opacity="1.00" d=" M 1996.65 1453.60 C 1998.29 1451.16 1999.90 1448.11 2003.02 1447.40 C 2006.40 1446.53 2009.26 1449.07 2012.20 1450.32 C 2011.14 1452.92 2010.08 1455.52 2009.03 1458.13 C 2011.66 1455.34 2013.96 1452.25 2016.26 1449.19 C 2017.07 1450.28 2017.93 1451.40 2018.83 1452.53 C 2020.22 1452.31 2021.65 1452.12 2023.10 1451.96 C 2022.29 1454.16 2021.48 1456.37 2020.75 1458.61 C 2022.03 1457.63 2023.36 1456.67 2024.68 1455.72 C 2026.58 1456.44 2028.51 1457.16 2030.45 1457.89 C 2030.46 1459.66 2030.47 1461.44 2030.53 1463.25 C 2031.87 1462.85 2033.33 1462.54 2034.73 1462.19 C 2038.38 1465.24 2044.88 1468.03 2043.20 1473.94 C 2037.46 1492.79 2030.55 1511.27 2024.21 1529.93 C 2027.81 1529.69 2031.53 1530.26 2035.08 1529.30 C 2044.80 1526.64 2054.97 1527.03 2064.96 1526.98 C 2069.57 1527.02 2074.78 1527.33 2078.30 1530.74 C 2081.04 1533.44 2084.15 1536.15 2085.31 1539.97 C 2086.08 1543.22 2090.06 1543.27 2092.61 1544.32 C 2086.54 1551.69 2077.00 1554.50 2068.22 1557.16 C 2050.20 1562.41 2031.43 1564.13 2012.98 1567.13 C 2009.58 1576.16 2007.36 1585.67 2004.64 1594.96 C 1997.78 1620.04 1991.99 1645.41 1987.21 1670.97 C 1981.91 1698.64 1976.91 1726.38 1972.31 1754.18 C 1967.89 1779.94 1964.41 1805.89 1962.61 1831.98 C 1961.34 1854.68 1960.11 1877.75 1965.13 1900.12 C 1965.86 1904.38 1967.72 1908.54 1967.43 1912.94 C 1966.68 1917.26 1961.51 1917.93 1957.98 1918.50 C 1956.03 1919.03 1954.67 1917.68 1953.37 1916.56 C 1952.41 1917.95 1951.48 1919.37 1950.53 1920.79 C 1946.80 1918.79 1942.82 1917.37 1938.77 1916.26 C 1931.36 1913.96 1923.82 1910.08 1919.81 1903.14 C 1913.42 1892.25 1911.33 1879.48 1910.46 1867.06 C 1907.85 1802.96 1916.99 1739.18 1926.55 1675.96 C 1928.81 1663.51 1929.39 1650.81 1932.20 1638.46 C 1934.13 1629.00 1936.01 1619.52 1938.10 1610.10 C 1940.00 1601.42 1940.79 1592.53 1943.17 1583.97 C 1943.39 1582.32 1944.25 1579.40 1941.92 1578.94 C 1935.02 1577.64 1927.98 1579.26 1921.06 1578.81 C 1915.18 1576.64 1909.92 1572.87 1905.86 1568.12 C 1904.42 1566.80 1904.90 1564.78 1904.90 1563.10 C 1903.36 1562.29 1901.80 1561.48 1900.30 1560.72 C 1901.11 1557.84 1901.51 1553.99 1904.75 1552.78 C 1916.71 1548.28 1929.65 1548.09 1941.99 1545.20 C 1944.40 1544.99 1945.50 1542.61 1946.90 1540.96 C 1955.51 1529.24 1963.66 1517.10 1969.96 1503.96 C 1973.96 1495.84 1976.87 1487.21 1981.33 1479.32 C 1986.18 1470.60 1991.48 1462.14 1996.65 1453.60 M 2009.52 1509.62 C 2006.28 1517.85 2002.67 1526.02 2000.78 1534.70 C 2002.36 1534.27 2004.55 1534.19 2005.17 1532.31 C 2010.99 1518.54 2014.69 1504.01 2020.04 1490.07 C 2014.33 1495.20 2012.50 1502.85 2009.52 1509.62 M 1987.22 1536.15 C 1990.74 1532.19 1991.13 1526.74 1992.26 1521.82 C 1988.57 1525.66 1988.16 1531.17 1987.22 1536.15 M 1989.01 1570.83 C 1985.75 1581.48 1982.78 1592.22 1980.06 1603.02 C 1973.27 1630.11 1968.81 1657.70 1963.71 1685.14 C 1959.02 1710.29 1955.53 1735.64 1952.04 1760.97 C 1948.31 1786.81 1945.65 1812.85 1945.46 1838.98 C 1945.30 1849.35 1944.61 1859.83 1946.23 1870.12 C 1948.38 1821.53 1953.21 1773.06 1960.93 1725.04 C 1969.32 1673.00 1980.22 1621.36 1993.55 1570.36 C 1992.01 1570.50 1990.50 1570.66 1989.01 1570.83 M 1975.70 1573.84 C 1973.13 1580.41 1971.36 1587.26 1969.60 1594.09 C 1959.92 1632.53 1953.44 1671.68 1947.44 1710.84 C 1945.52 1724.90 1943.11 1738.93 1942.35 1753.11 C 1948.60 1717.74 1953.23 1682.08 1960.49 1646.89 C 1965.10 1622.44 1971.57 1598.36 1975.70 1573.84 M 1959.75 1579.72 C 1949.08 1613.61 1943.61 1648.85 1938.18 1683.88 C 1937.30 1691.72 1935.45 1699.56 1935.98 1707.48 C 1937.67 1701.84 1938.13 1695.93 1939.30 1690.18 C 1944.16 1662.94 1947.79 1635.48 1953.53 1608.41 C 1955.32 1598.78 1958.23 1589.38 1959.75 1579.72 M 1998.08 1580.27 C 1996.52 1583.20 2001.40 1580.37 1998.08 1580.27 M 1995.35 1595.26 C 1995.98 1592.81 1996.52 1590.35 1996.83 1587.85 C 1995.05 1589.93 1994.75 1592.65 1995.35 1595.26 M 1994.63 1596.90 C 1992.52 1598.80 1992.19 1601.61 1992.20 1604.29 C 1993.33 1601.94 1994.13 1599.45 1994.63 1596.90 M 1985.59 1633.84 C 1986.80 1633.58 1987.76 1630.96 1986.16 1630.71 C 1984.89 1630.93 1983.89 1633.56 1985.59 1633.84 M 1978.06 1664.35 C 1976.55 1667.31 1981.39 1664.41 1978.06 1664.35 M 1974.20 1686.52 C 1973.25 1687.68 1973.45 1688.41 1974.81 1688.71 C 1975.70 1687.51 1975.49 1686.78 1974.20 1686.52 M 1971.11 1703.25 C 1969.47 1706.15 1974.42 1703.45 1971.11 1703.25 M 1933.00 1721.99 C 1931.53 1734.23 1930.06 1746.47 1928.57 1758.71 C 1928.78 1758.72 1929.20 1758.75 1929.41 1758.76 C 1930.39 1747.81 1932.00 1736.93 1933.61 1726.07 C 1934.05 1722.00 1935.40 1717.94 1934.76 1713.83 C 1933.21 1716.26 1933.39 1719.24 1933.00 1721.99 M 1940.21 1765.46 C 1939.51 1766.98 1939.42 1769.08 1940.32 1770.60 C 1941.78 1769.93 1941.51 1766.14 1940.21 1765.46 Z" />
<path fill="#000000" opacity="1.00" d=" M 1014.76 1489.69 C 1022.43 1486.32 1031.65 1486.99 1038.87 1491.19 C 1048.09 1496.62 1055.05 1505.63 1058.18 1515.85 C 1061.94 1527.21 1060.77 1539.51 1058.12 1550.97 C 1054.41 1565.79 1048.54 1580.00 1041.80 1593.68 C 1031.90 1613.41 1019.87 1632.12 1005.72 1649.08 C 997.03 1658.95 987.94 1668.46 979.19 1678.27 C 975.20 1683.26 976.82 1690.09 976.52 1695.98 C 975.78 1722.61 975.74 1749.27 976.93 1775.89 C 977.50 1789.58 978.45 1803.30 980.68 1816.84 C 981.99 1823.71 983.42 1830.83 987.22 1836.84 C 990.75 1842.34 997.45 1844.32 1003.50 1845.60 C 1004.73 1848.37 1003.18 1851.59 1000.14 1852.14 C 991.83 1853.93 982.66 1854.01 974.91 1850.12 C 969.31 1847.39 964.79 1842.80 961.51 1837.58 C 954.77 1827.12 951.22 1815.04 948.01 1803.14 C 942.08 1781.12 940.77 1758.29 937.30 1735.85 C 930.22 1744.56 925.56 1754.93 919.01 1764.02 C 912.12 1773.64 903.78 1782.53 893.32 1788.28 C 882.46 1793.89 869.11 1793.64 857.89 1789.21 C 844.55 1783.05 835.82 1769.74 831.84 1755.96 C 826.38 1735.47 826.68 1713.44 833.31 1693.25 C 839.07 1675.26 849.44 1657.93 865.59 1647.51 C 875.67 1640.93 888.29 1639.58 899.98 1641.43 C 913.60 1643.50 925.13 1651.63 937.50 1657.11 C 944.20 1617.45 949.82 1576.61 968.42 1540.40 C 975.32 1526.18 984.72 1513.16 996.43 1502.51 C 1001.89 1497.40 1007.87 1492.70 1014.76 1489.69 M 1026.16 1512.04 C 1010.29 1530.52 1001.43 1553.75 994.90 1576.92 C 988.48 1599.81 985.40 1623.42 980.97 1646.74 C 988.85 1640.15 993.48 1630.71 1000.17 1623.06 C 1014.49 1604.10 1027.71 1584.10 1037.53 1562.41 C 1042.32 1551.52 1046.58 1540.06 1046.88 1528.04 C 1046.84 1519.39 1046.82 1509.88 1041.00 1502.85 C 1035.09 1504.00 1030.01 1507.51 1026.16 1512.04 M 1006.29 1522.30 C 1000.25 1531.72 995.22 1541.82 991.36 1552.32 C 996.04 1545.17 999.51 1537.29 1003.91 1529.96 C 1008.32 1521.62 1014.11 1514.16 1020.20 1507.01 C 1014.18 1510.64 1010.15 1516.59 1006.29 1522.30 M 1053.17 1537.19 C 1049.58 1548.52 1046.82 1560.14 1042.19 1571.12 C 1038.70 1579.42 1034.41 1587.35 1030.27 1595.34 C 1026.99 1601.45 1023.65 1607.59 1019.31 1613.03 C 1015.96 1617.34 1013.45 1622.23 1010.12 1626.56 C 1010.14 1627.68 1010.17 1628.82 1010.21 1629.98 C 1011.61 1626.12 1014.45 1623.08 1016.37 1619.51 C 1020.92 1612.43 1025.71 1605.43 1031.47 1599.28 C 1028.56 1608.00 1023.01 1615.41 1017.91 1622.93 C 1019.35 1621.83 1020.80 1620.60 1022.64 1620.29 C 1026.50 1615.28 1030.26 1609.90 1031.75 1603.67 C 1032.40 1601.77 1033.86 1600.33 1035.31 1599.04 C 1036.17 1597.34 1036.97 1595.63 1037.89 1593.98 C 1042.72 1586.65 1046.12 1578.50 1049.45 1570.39 C 1054.44 1562.08 1056.25 1552.37 1057.92 1542.96 C 1058.67 1539.72 1058.04 1536.27 1055.78 1533.78 C 1053.70 1533.50 1053.74 1535.79 1053.17 1537.19 M 1048.12 1539.23 C 1044.53 1555.76 1036.40 1570.74 1028.83 1585.71 C 1021.52 1599.79 1012.76 1613.04 1003.84 1626.13 C 1017.12 1608.86 1028.74 1590.29 1038.76 1570.95 C 1043.88 1560.59 1049.02 1549.87 1050.11 1538.20 C 1049.61 1538.46 1048.62 1538.97 1048.12 1539.23 M 988.33 1559.55 C 989.61 1559.79 990.56 1557.68 990.02 1556.66 C 988.67 1556.28 987.85 1558.49 988.33 1559.55 M 1009.95 1634.96 C 1013.45 1632.20 1015.18 1627.99 1016.92 1624.03 C 1014.54 1627.63 1011.88 1631.07 1009.95 1634.96 M 1007.32 1630.14 C 1006.03 1632.03 1004.80 1634.00 1004.08 1636.21 C 1006.17 1634.24 1007.75 1631.81 1009.97 1629.97 C 1009.30 1630.01 1007.98 1630.10 1007.32 1630.14 M 1004.28 1642.62 C 1005.41 1643.04 1007.01 1641.33 1006.14 1640.32 C 1004.96 1639.81 1003.46 1641.58 1004.28 1642.62 M 991.87 1651.96 C 994.45 1649.13 997.57 1646.59 999.04 1642.96 C 995.21 1644.42 993.91 1648.76 991.87 1651.96 M 900.89 1659.84 C 891.30 1667.96 883.89 1678.54 879.11 1690.14 C 871.74 1708.44 868.58 1728.43 870.09 1748.12 C 870.77 1758.27 871.88 1769.25 878.37 1777.54 C 882.37 1773.11 887.55 1769.77 890.73 1764.61 C 905.05 1745.14 919.32 1725.58 931.95 1704.95 C 933.66 1701.85 936.05 1698.77 935.77 1695.05 C 935.74 1688.99 935.79 1682.93 935.70 1676.88 C 929.36 1673.23 925.03 1667.19 920.09 1661.99 C 915.16 1657.45 906.36 1654.80 900.89 1659.84 M 866.94 1687.98 C 863.68 1695.50 860.45 1703.10 858.41 1711.07 C 855.90 1722.08 855.49 1733.64 857.66 1744.75 C 859.15 1732.90 859.99 1720.97 861.65 1709.14 C 863.18 1699.10 867.18 1689.67 871.87 1680.75 C 868.97 1682.08 868.19 1685.32 866.94 1687.98 M 842.64 1696.78 C 839.66 1704.18 838.39 1712.19 838.34 1720.14 C 839.65 1712.33 841.31 1704.58 842.64 1696.78 M 852.75 1700.71 C 850.06 1707.64 847.22 1714.97 848.30 1722.55 C 850.15 1715.37 852.22 1708.11 852.75 1700.71 Z" />
<path fill="#000000" opacity="1.00" d=" M 1778.65 1515.67 C 1784.94 1512.06 1792.82 1512.29 1799.52 1514.65 C 1805.40 1516.99 1811.12 1520.00 1815.91 1524.20 C 1823.35 1530.58 1828.55 1539.32 1831.51 1548.62 C 1833.62 1555.19 1834.05 1562.12 1834.83 1568.94 C 1835.75 1577.57 1836.45 1586.23 1837.02 1594.89 C 1854.83 1605.48 1873.36 1615.31 1888.91 1629.20 C 1894.78 1634.24 1899.56 1640.68 1902.00 1648.07 C 1904.12 1654.45 1904.06 1661.30 1903.37 1667.92 C 1901.87 1680.56 1897.29 1692.52 1893.36 1704.54 C 1884.75 1730.33 1874.90 1755.75 1868.01 1782.09 C 1864.39 1796.11 1860.82 1810.40 1861.28 1824.99 C 1861.56 1831.12 1862.46 1837.38 1864.95 1843.03 C 1869.69 1845.01 1875.05 1845.65 1880.04 1847.13 C 1879.90 1848.70 1879.77 1850.28 1879.65 1851.89 C 1881.38 1849.26 1884.10 1848.19 1887.19 1848.64 C 1888.67 1852.31 1889.74 1856.85 1887.34 1860.40 C 1884.11 1864.85 1878.69 1867.15 1873.44 1868.18 C 1863.56 1869.95 1852.81 1869.08 1844.03 1863.91 C 1833.23 1857.42 1825.31 1846.84 1820.98 1835.12 C 1815.62 1820.65 1814.23 1804.88 1815.80 1789.59 C 1817.50 1774.24 1821.55 1759.29 1825.65 1744.45 C 1832.39 1720.26 1841.44 1696.82 1850.25 1673.33 C 1854.36 1663.25 1858.02 1652.86 1859.69 1642.08 C 1860.75 1636.01 1858.71 1629.14 1853.42 1625.63 C 1847.75 1621.87 1841.47 1619.16 1835.38 1616.18 C 1832.21 1642.00 1825.08 1667.39 1813.79 1690.85 C 1802.26 1714.73 1788.64 1737.61 1773.05 1759.06 C 1768.23 1765.16 1763.44 1771.44 1757.24 1776.24 C 1754.79 1778.19 1753.36 1781.03 1751.59 1783.55 C 1743.42 1795.27 1734.82 1806.91 1723.86 1816.20 C 1718.75 1814.50 1713.71 1812.57 1708.95 1810.10 C 1704.49 1807.92 1703.34 1802.50 1703.08 1798.01 C 1702.21 1768.16 1709.68 1739.02 1715.37 1709.95 C 1708.28 1716.69 1701.72 1723.97 1694.79 1730.88 C 1685.66 1740.70 1677.36 1751.73 1665.64 1758.65 C 1659.56 1762.50 1651.95 1763.78 1644.97 1762.00 C 1635.72 1759.66 1626.93 1754.44 1621.39 1746.55 C 1618.57 1742.67 1617.46 1737.78 1617.85 1733.06 C 1618.68 1718.08 1624.29 1703.90 1630.47 1690.41 C 1637.77 1675.13 1646.95 1660.76 1657.42 1647.47 C 1664.80 1638.18 1673.21 1629.53 1683.40 1623.32 C 1691.24 1618.49 1699.58 1613.87 1708.85 1612.60 C 1717.91 1611.22 1727.58 1612.65 1735.41 1617.62 C 1741.02 1621.16 1746.57 1625.05 1751.13 1629.92 C 1752.94 1631.84 1752.03 1634.50 1751.48 1636.76 C 1746.93 1635.55 1742.43 1634.22 1737.91 1633.00 C 1734.51 1631.72 1731.33 1634.05 1728.28 1635.21 C 1716.30 1640.44 1706.85 1649.81 1698.40 1659.53 C 1686.88 1673.10 1678.05 1688.71 1670.83 1704.93 C 1667.91 1711.73 1664.09 1718.18 1661.87 1725.26 C 1668.74 1721.67 1674.23 1716.03 1680.02 1710.97 C 1691.97 1700.26 1703.92 1689.56 1715.88 1678.85 C 1720.74 1674.42 1725.98 1670.29 1729.87 1664.91 C 1732.84 1661.12 1734.44 1656.34 1738.06 1653.04 C 1740.61 1650.62 1743.79 1649.03 1746.94 1647.54 C 1747.04 1649.03 1747.14 1650.54 1747.26 1652.07 C 1749.13 1651.08 1751.47 1650.37 1753.20 1652.12 C 1753.20 1653.47 1753.15 1654.84 1753.07 1656.23 C 1753.61 1655.87 1754.68 1655.16 1755.22 1654.81 C 1755.86 1655.06 1757.15 1655.56 1757.80 1655.81 C 1753.78 1668.77 1749.00 1681.48 1744.23 1694.18 C 1750.74 1682.30 1754.49 1669.12 1760.83 1657.14 C 1762.62 1658.07 1765.21 1658.74 1765.66 1661.09 C 1766.35 1666.63 1763.51 1671.71 1761.86 1676.83 C 1752.25 1703.96 1742.58 1731.13 1735.39 1759.03 C 1734.31 1763.29 1733.36 1767.60 1732.78 1771.98 C 1741.51 1763.81 1748.19 1753.78 1754.92 1743.98 C 1782.22 1701.48 1800.76 1653.49 1809.76 1603.81 C 1799.78 1596.24 1788.58 1590.30 1779.43 1581.66 C 1773.40 1576.22 1768.22 1569.77 1764.45 1562.58 C 1759.91 1553.09 1759.23 1541.49 1763.82 1531.90 C 1767.00 1525.19 1772.13 1519.29 1778.65 1515.67 M 1795.54 1543.61 C 1793.13 1549.40 1793.52 1555.96 1795.29 1561.88 C 1797.77 1569.95 1802.86 1577.41 1810.23 1581.75 C 1811.51 1572.17 1810.20 1562.48 1808.59 1553.03 C 1807.17 1546.58 1806.08 1539.79 1802.30 1534.23 C 1799.56 1536.96 1796.92 1539.94 1795.54 1543.61 M 1786.26 1543.28 C 1787.04 1540.78 1787.58 1538.23 1787.84 1535.63 C 1786.38 1537.87 1784.94 1540.64 1786.26 1543.28 M 1821.82 1638.76 C 1814.65 1662.92 1805.69 1686.51 1795.72 1709.63 C 1801.83 1701.76 1805.10 1692.17 1809.09 1683.14 C 1815.64 1666.96 1821.35 1650.21 1823.85 1632.90 C 1823.02 1634.79 1822.37 1636.76 1821.82 1638.76 M 1648.04 1679.05 C 1644.98 1685.01 1641.33 1690.73 1639.00 1697.04 C 1645.40 1686.62 1650.46 1675.44 1657.19 1665.23 C 1659.88 1660.69 1663.56 1656.80 1666.03 1652.12 C 1658.82 1660.21 1653.16 1669.54 1648.04 1679.05 M 1680.69 1660.61 C 1672.47 1670.80 1665.61 1682.03 1659.62 1693.65 C 1653.64 1705.60 1647.98 1717.98 1646.13 1731.34 C 1646.81 1729.94 1647.46 1728.54 1648.04 1727.11 C 1658.08 1700.63 1670.84 1674.86 1688.83 1652.82 C 1685.70 1654.95 1683.03 1657.66 1680.69 1660.61 M 1887.46 1667.28 C 1874.76 1703.18 1863.35 1739.52 1851.85 1775.83 C 1847.55 1789.04 1845.70 1803.18 1847.20 1817.02 C 1848.87 1805.61 1850.54 1794.18 1853.44 1783.01 C 1859.64 1757.81 1868.77 1733.47 1877.15 1708.95 C 1881.95 1694.47 1888.36 1680.14 1888.87 1664.67 C 1888.31 1665.49 1887.84 1666.35 1887.46 1667.28 M 1746.35 1666.18 C 1745.21 1666.77 1745.68 1669.69 1747.11 1668.20 C 1748.12 1667.53 1747.79 1664.68 1746.35 1666.18 M 1863.82 1669.80 C 1860.23 1675.67 1859.06 1682.54 1856.93 1688.99 C 1850.11 1709.67 1843.33 1730.37 1836.52 1751.06 C 1832.93 1761.58 1829.63 1772.24 1827.23 1783.10 C 1831.04 1775.06 1833.12 1766.37 1835.92 1757.96 C 1843.88 1732.80 1853.21 1708.09 1860.66 1682.76 C 1861.73 1678.45 1863.57 1674.28 1863.82 1669.80 M 1650.10 1694.94 C 1654.12 1687.80 1659.41 1681.37 1662.76 1673.88 C 1657.76 1680.37 1653.43 1687.45 1650.10 1694.94 M 1871.23 1683.08 C 1863.79 1705.00 1856.33 1726.90 1848.87 1748.81 C 1843.92 1762.48 1841.60 1776.94 1839.20 1791.22 C 1842.75 1780.14 1845.39 1768.81 1848.37 1757.58 C 1852.80 1742.46 1858.10 1727.60 1863.82 1712.92 C 1868.57 1701.20 1872.61 1689.04 1874.17 1676.45 C 1872.59 1678.35 1872.00 1680.78 1871.23 1683.08 M 1732.34 1774.89 C 1732.37 1778.21 1735.34 1773.43 1732.34 1774.89 M 1737.39 1776.18 C 1734.90 1779.74 1732.26 1783.27 1730.73 1787.37 C 1734.28 1784.31 1737.22 1780.64 1740.20 1777.04 C 1739.24 1776.73 1738.30 1776.45 1737.39 1776.18 M 1742.29 1777.86 C 1737.35 1784.70 1732.49 1791.68 1728.82 1799.30 C 1734.48 1793.49 1739.36 1786.96 1744.98 1781.11 C 1743.53 1784.15 1741.92 1787.12 1740.26 1790.05 C 1741.24 1789.37 1742.22 1788.69 1743.24 1788.04 C 1743.56 1788.18 1744.21 1788.46 1744.53 1788.60 C 1745.58 1786.56 1746.81 1784.63 1748.18 1782.80 C 1748.15 1782.03 1748.09 1780.50 1748.07 1779.74 C 1746.12 1779.09 1744.20 1778.47 1742.29 1777.86 Z" />
<path fill="#000000" opacity="1.00" d=" M 2634.47 1586.67 C 2637.31 1584.27 2641.06 1581.53 2644.99 1582.96 C 2652.18 1584.84 2658.85 1588.54 2664.52 1593.33 C 2667.38 1595.83 2670.14 1598.66 2671.69 1602.19 C 2673.37 1606.68 2672.28 1611.57 2671.02 1616.03 C 2665.77 1634.06 2658.30 1651.32 2652.03 1669.00 C 2636.88 1710.23 2622.95 1752.01 2612.73 1794.76 C 2610.31 1806.02 2607.71 1817.43 2608.03 1829.02 C 2608.00 1833.80 2610.85 1838.00 2614.70 1840.64 C 2614.01 1842.58 2613.43 1845.33 2610.93 1845.59 C 2602.26 1846.38 2592.93 1844.44 2586.17 1838.72 C 2579.52 1833.36 2575.85 1825.18 2574.08 1817.01 C 2570.08 1796.38 2572.53 1775.14 2577.23 1754.85 C 2581.77 1733.91 2588.60 1713.58 2595.27 1693.25 C 2598.83 1681.98 2602.09 1670.58 2606.71 1659.68 C 2610.20 1651.50 2613.57 1643.27 2616.57 1634.90 C 2612.07 1637.09 2609.04 1641.12 2605.69 1644.67 C 2595.57 1655.69 2586.25 1667.42 2577.70 1679.69 C 2566.61 1695.45 2555.98 1711.54 2545.98 1728.01 C 2534.61 1746.71 2523.12 1765.38 2510.19 1783.05 C 2506.47 1787.99 2502.68 1792.96 2498.11 1797.16 C 2492.53 1802.24 2484.11 1800.77 2477.70 1798.26 C 2466.93 1793.55 2457.62 1783.31 2457.27 1771.10 C 2457.09 1758.56 2459.49 1746.16 2461.89 1733.91 C 2467.74 1706.17 2476.02 1679.02 2483.67 1651.74 C 2486.93 1640.54 2490.64 1629.45 2492.97 1618.01 C 2494.33 1610.03 2495.55 1601.64 2492.65 1593.85 C 2494.58 1592.03 2497.31 1591.05 2499.92 1592.05 C 2509.89 1595.79 2518.63 1603.02 2523.35 1612.68 C 2528.40 1621.99 2528.00 1632.95 2526.80 1643.16 C 2524.73 1659.67 2520.70 1675.86 2516.58 1691.96 C 2511.19 1712.89 2504.27 1733.37 2497.55 1753.90 C 2496.85 1755.93 2496.32 1758.02 2495.99 1760.16 C 2501.05 1754.35 2505.13 1747.78 2509.76 1741.64 C 2532.21 1710.84 2553.43 1679.09 2578.11 1650.00 C 2589.72 1636.32 2601.43 1622.73 2613.13 1609.13 C 2620.06 1601.47 2626.77 1593.58 2634.47 1586.67 M 2620.01 1606.94 C 2602.84 1625.91 2585.54 1644.81 2569.78 1664.99 C 2558.85 1678.73 2549.17 1693.40 2538.72 1707.50 C 2534.62 1713.02 2530.91 1718.84 2527.93 1725.05 C 2530.92 1720.41 2535.23 1716.82 2538.11 1712.09 C 2551.23 1690.21 2567.00 1669.98 2584.26 1651.22 C 2597.97 1636.53 2611.16 1621.36 2623.71 1605.66 C 2625.67 1603.09 2628.13 1600.79 2629.27 1597.69 C 2625.61 1600.16 2623.03 1603.80 2620.01 1606.94 M 2659.45 1610.61 C 2652.97 1624.11 2647.05 1637.89 2641.80 1651.92 C 2626.78 1691.04 2614.95 1731.31 2604.40 1771.84 C 2607.73 1766.15 2609.31 1759.68 2611.54 1753.53 C 2615.83 1741.08 2618.62 1728.20 2622.41 1715.60 C 2625.46 1705.20 2629.06 1694.97 2632.69 1684.76 C 2639.27 1665.79 2647.68 1647.54 2654.78 1628.77 C 2657.17 1621.77 2660.38 1614.99 2661.90 1607.73 C 2660.74 1608.37 2659.89 1609.37 2659.45 1610.61 M 2633.28 1623.40 C 2630.22 1630.37 2626.81 1637.20 2624.04 1644.28 C 2627.94 1638.19 2630.38 1631.26 2633.90 1624.93 C 2636.10 1619.73 2639.72 1615.14 2641.15 1609.64 C 2637.68 1613.67 2635.70 1618.72 2633.28 1623.40 M 2606.05 1637.45 C 2610.35 1637.05 2611.89 1632.33 2615.12 1630.07 C 2618.59 1627.58 2619.19 1623.16 2621.74 1619.97 C 2616.49 1625.78 2611.08 1631.45 2606.05 1637.45 M 2549.78 1702.02 C 2548.57 1703.55 2547.73 1705.37 2548.10 1707.40 C 2550.64 1705.42 2551.99 1702.39 2553.97 1699.93 C 2556.95 1696.15 2559.77 1692.22 2563.12 1688.76 C 2562.59 1690.38 2561.98 1691.97 2561.47 1693.62 C 2567.47 1692.18 2569.10 1685.89 2572.69 1681.73 C 2574.09 1680.03 2574.06 1677.40 2576.00 1676.12 C 2579.63 1673.69 2581.68 1669.74 2584.45 1666.47 C 2587.40 1663.03 2589.48 1658.96 2592.38 1655.48 C 2595.83 1651.35 2599.66 1647.55 2603.22 1643.52 C 2603.13 1643.14 2602.95 1642.37 2602.86 1641.99 C 2600.87 1642.85 2599.70 1644.78 2598.32 1646.34 C 2594.38 1651.15 2590.35 1656.08 2584.97 1659.36 C 2587.45 1654.59 2591.28 1650.74 2594.59 1646.55 C 2601.27 1638.28 2608.37 1630.37 2615.09 1622.14 C 2590.80 1646.57 2569.44 1673.77 2549.78 1702.02 M 2556.35 1701.15 C 2555.05 1701.65 2553.87 1703.25 2554.30 1704.66 C 2555.75 1705.22 2558.05 1701.75 2556.35 1701.15 M 2546.11 1708.47 C 2545.23 1709.69 2545.49 1710.36 2546.90 1710.48 C 2547.72 1709.22 2547.46 1708.55 2546.11 1708.47 M 2541.24 1718.56 C 2542.59 1718.51 2542.56 1716.08 2541.87 1715.30 C 2540.42 1715.26 2540.43 1717.72 2541.24 1718.56 M 2539.18 1719.12 C 2537.65 1722.10 2542.49 1719.18 2539.18 1719.12 M 2600.43 1786.81 C 2600.80 1786.93 2601.52 1787.16 2601.89 1787.28 C 2602.67 1783.53 2603.22 1779.74 2603.61 1775.94 C 2602.45 1779.53 2601.43 1783.16 2600.43 1786.81 Z" />
<path fill="#000000" opacity="1.00" d=" M 1088.28 1611.25 C 1090.98 1609.92 1094.02 1609.75 1096.68 1611.29 C 1104.72 1614.57 1112.07 1619.66 1117.71 1626.30 C 1131.55 1642.16 1132.69 1667.09 1121.83 1684.85 C 1113.58 1698.65 1100.66 1709.18 1086.35 1716.22 C 1074.29 1722.33 1060.93 1726.07 1047.36 1726.18 C 1045.46 1732.63 1045.99 1739.41 1046.09 1746.05 C 1046.41 1753.40 1047.13 1761.26 1051.39 1767.52 C 1054.06 1770.98 1059.00 1769.21 1062.54 1768.38 C 1070.65 1765.97 1075.62 1758.66 1078.99 1751.37 C 1080.05 1757.27 1075.19 1761.29 1073.07 1766.22 C 1078.08 1763.93 1079.36 1758.28 1082.43 1754.24 C 1084.37 1753.28 1084.13 1755.72 1084.29 1756.98 C 1084.38 1760.02 1080.76 1762.09 1081.00 1764.95 C 1082.74 1765.56 1084.52 1766.13 1084.86 1768.30 C 1086.38 1766.30 1086.82 1762.36 1089.84 1762.41 C 1090.18 1759.85 1091.18 1757.50 1093.02 1755.68 C 1092.63 1763.38 1088.79 1770.84 1082.50 1775.36 C 1075.64 1780.72 1066.71 1782.92 1058.11 1782.12 C 1045.85 1781.59 1033.28 1777.40 1024.67 1768.35 C 1014.05 1757.91 1009.52 1742.64 1009.72 1728.03 C 1009.33 1705.36 1017.62 1683.45 1029.21 1664.28 C 1035.83 1653.31 1043.91 1642.63 1055.28 1636.24 C 1068.35 1628.77 1084.43 1626.91 1098.96 1630.75 C 1095.33 1624.29 1091.98 1617.67 1088.28 1611.25 M 1082.93 1657.06 C 1067.21 1668.17 1056.49 1685.70 1052.53 1704.43 C 1060.08 1703.29 1066.66 1699.09 1072.52 1694.44 C 1081.69 1687.27 1089.33 1678.19 1095.04 1668.07 C 1098.40 1662.30 1100.47 1655.74 1100.36 1649.03 C 1094.12 1650.60 1088.17 1653.31 1082.93 1657.06 M 1049.16 1678.24 C 1046.07 1683.42 1043.18 1689.13 1043.18 1695.32 C 1046.28 1684.05 1055.38 1675.83 1059.04 1664.83 C 1055.15 1668.82 1052.05 1673.49 1049.16 1678.24 M 1108.20 1688.01 C 1113.19 1683.52 1116.01 1677.19 1117.97 1670.90 C 1114.62 1676.54 1110.61 1681.86 1108.20 1688.01 Z" />
<path fill="#000000" opacity="1.00" d=" M 2414.55 1611.00 C 2419.60 1608.72 2424.49 1611.91 2428.94 1614.14 C 2441.60 1620.98 2451.62 1633.21 2454.33 1647.52 C 2456.39 1658.79 2455.40 1670.85 2450.15 1681.16 C 2441.76 1697.54 2426.79 1709.66 2410.34 1717.36 C 2398.92 1722.61 2386.49 1726.28 2373.84 1726.02 C 2371.82 1731.45 2372.24 1737.32 2372.26 1743.02 C 2372.43 1750.67 2372.88 1758.65 2376.42 1765.61 C 2377.38 1767.36 2378.79 1769.44 2381.06 1769.49 C 2389.21 1769.90 2397.08 1765.26 2401.38 1758.45 C 2402.74 1756.23 2403.77 1753.82 2405.24 1751.67 C 2406.22 1757.38 2401.60 1761.22 2399.41 1765.90 C 2405.13 1763.77 2405.70 1756.86 2409.86 1753.08 C 2411.99 1757.57 2408.56 1761.24 2406.69 1765.02 C 2408.65 1765.38 2411.03 1765.56 2410.86 1768.25 C 2412.25 1766.35 2413.40 1764.28 2414.39 1762.16 C 2414.75 1762.43 2415.48 1762.98 2415.84 1763.25 C 2416.47 1760.56 2417.06 1757.74 2419.26 1755.85 C 2418.84 1763.12 2415.41 1770.22 2409.62 1774.71 C 2403.32 1779.84 2395.17 1782.54 2387.06 1782.24 C 2377.32 1782.02 2367.37 1780.04 2359.01 1774.83 C 2349.20 1768.78 2342.14 1758.81 2338.78 1747.87 C 2335.77 1738.23 2335.51 1727.97 2336.39 1717.98 C 2338.20 1698.16 2346.14 1679.38 2356.51 1662.58 C 2363.12 1651.88 2371.35 1641.64 2382.63 1635.63 C 2395.48 1628.69 2411.01 1627.04 2425.11 1630.71 C 2421.67 1624.09 2418.00 1617.60 2414.55 1611.00 M 2407.97 1657.96 C 2392.92 1669.10 2382.64 1686.17 2378.82 1704.41 C 2387.24 1703.15 2394.41 1698.12 2400.80 1692.79 C 2407.39 1687.40 2413.00 1680.88 2417.77 1673.85 C 2422.67 1666.49 2426.96 1658.15 2426.60 1649.06 C 2419.86 1650.71 2413.50 1653.79 2407.97 1657.96 M 2367.26 1662.26 C 2367.76 1662.78 2367.76 1662.78 2367.26 1662.26 M 2385.75 1664.19 C 2378.11 1673.13 2370.59 1683.29 2369.14 1695.30 C 2371.22 1690.79 2372.95 1686.08 2375.84 1681.99 C 2379.71 1676.39 2383.24 1670.53 2385.75 1664.19 M 2434.51 1687.91 C 2439.28 1683.74 2441.98 1677.76 2443.95 1671.86 C 2440.31 1676.88 2436.89 1682.17 2434.51 1687.91 Z" />
<path fill="#000000" opacity="1.00" d=" M 2069.54 1624.63 C 2080.11 1617.73 2092.05 1611.43 2105.07 1612.14 C 2118.09 1612.14 2129.02 1620.44 2138.25 1628.76 C 2140.51 1630.50 2141.59 1634.74 2139.10 1636.49 C 2133.93 1635.38 2128.90 1633.73 2123.82 1632.33 C 2104.94 1638.12 2090.89 1653.10 2079.52 1668.54 C 2070.47 1680.80 2063.70 1694.49 2057.43 1708.32 C 2054.92 1713.98 2051.88 1719.44 2049.89 1725.33 C 2056.65 1722.03 2061.92 1716.42 2067.55 1711.55 C 2081.80 1698.78 2096.07 1686.02 2110.31 1673.24 C 2114.90 1669.08 2119.04 1664.34 2121.89 1658.80 C 2124.61 1653.45 2129.67 1649.76 2135.13 1647.53 C 2135.23 1648.96 2135.34 1650.41 2135.49 1651.88 C 2137.63 1650.93 2139.91 1650.70 2141.74 1652.46 C 2141.58 1653.38 2141.26 1655.22 2141.10 1656.14 C 2141.65 1655.86 2142.77 1655.28 2143.32 1655.00 C 2143.97 1655.13 2145.26 1655.41 2145.90 1655.54 C 2143.40 1664.49 2140.15 1673.21 2136.99 1681.94 C 2135.68 1685.69 2133.87 1689.29 2133.14 1693.22 C 2138.90 1681.42 2142.95 1668.86 2149.01 1657.20 C 2150.86 1658.01 2153.34 1658.68 2153.84 1661.01 C 2154.55 1665.88 2152.24 1670.49 2150.70 1674.99 C 2142.32 1698.47 2134.01 1722.00 2127.11 1745.97 C 2124.37 1756.00 2121.17 1766.03 2120.55 1776.48 C 2124.54 1773.95 2127.95 1770.65 2130.82 1766.90 C 2133.53 1763.87 2135.73 1760.13 2139.52 1758.31 C 2133.47 1768.93 2123.17 1776.61 2118.33 1788.03 C 2127.43 1779.47 2134.44 1769.04 2142.33 1759.42 C 2146.70 1754.46 2149.19 1747.93 2154.72 1744.02 C 2149.38 1753.31 2143.15 1762.07 2136.46 1770.43 C 2129.12 1779.19 2122.55 1788.59 2117.16 1798.67 L 2117.57 1798.98 C 2122.68 1792.98 2127.79 1786.97 2133.06 1781.11 C 2131.66 1784.06 2130.16 1786.96 2128.80 1789.94 C 2129.58 1789.33 2130.39 1788.75 2131.22 1788.19 C 2132.97 1789.50 2133.27 1786.89 2134.20 1786.06 C 2134.85 1784.97 2135.49 1783.87 2136.19 1782.82 C 2136.33 1778.38 2138.43 1773.44 2142.74 1771.62 C 2146.03 1770.17 2146.06 1765.87 2148.44 1763.47 C 2151.57 1759.96 2153.04 1755.41 2155.71 1751.59 C 2157.87 1748.26 2157.76 1743.71 2160.96 1741.02 C 2165.95 1734.71 2168.63 1726.88 2174.04 1720.83 C 2166.10 1740.57 2155.68 1759.25 2144.12 1777.08 C 2134.69 1791.11 2124.91 1805.26 2111.90 1816.25 C 2106.63 1814.30 2101.29 1812.42 2096.40 1809.65 C 2092.76 1807.51 2091.68 1802.98 2091.35 1799.08 C 2090.06 1768.92 2097.96 1739.54 2103.37 1710.13 C 2097.63 1715.56 2092.30 1721.40 2086.76 1727.01 C 2078.07 1735.56 2070.80 1745.50 2061.38 1753.31 C 2055.98 1757.59 2049.97 1761.73 2042.95 1762.59 C 2034.03 1763.61 2025.18 1760.05 2017.99 1754.99 C 2012.19 1750.66 2006.59 1744.69 2006.08 1737.10 C 2005.62 1727.51 2008.06 1718.05 2011.05 1709.02 C 2018.78 1686.68 2030.97 1666.07 2045.56 1647.55 C 2052.41 1638.83 2060.19 1630.70 2069.54 1624.63 M 2055.97 1679.04 C 2046.44 1695.28 2037.36 1712.39 2034.27 1731.18 C 2038.20 1722.96 2040.94 1714.20 2044.96 1706.00 C 2053.46 1687.04 2063.91 1668.90 2077.04 1652.75 C 2067.98 1659.61 2062.09 1669.66 2055.97 1679.04 M 2042.32 1668.39 C 2036.82 1677.74 2031.40 1687.20 2027.04 1697.15 C 2033.79 1686.34 2039.00 1674.63 2046.12 1664.04 C 2048.38 1660.40 2051.29 1657.19 2053.40 1653.46 C 2048.84 1657.71 2045.74 1663.23 2042.32 1668.39 M 2134.05 1668.53 C 2135.29 1668.97 2136.30 1666.87 2135.66 1665.93 C 2134.37 1665.45 2133.29 1667.54 2134.05 1668.53 M 2038.13 1694.97 C 2043.13 1686.95 2048.59 1679.19 2053.02 1670.83 C 2047.24 1678.32 2042.17 1686.41 2038.13 1694.97 Z" />
<path fill="#000000" opacity="1.00" d=" M 2749.61 1613.40 C 2759.63 1610.96 2770.77 1611.81 2779.67 1617.32 C 2785.53 1620.94 2791.31 1624.93 2796.01 1630.02 C 2797.83 1631.93 2796.96 1634.54 2796.23 1636.75 C 2790.82 1635.39 2785.55 1633.46 2780.08 1632.52 C 2766.38 1636.70 2755.01 1646.07 2745.70 1656.70 C 2733.04 1670.83 2723.46 1687.43 2715.77 1704.71 C 2712.76 1711.61 2708.92 1718.19 2706.64 1725.39 C 2714.10 1721.22 2720.16 1715.06 2726.54 1709.46 C 2736.50 1700.53 2746.46 1691.61 2756.43 1682.69 C 2764.21 1675.42 2773.30 1669.00 2778.28 1659.29 C 2780.97 1653.76 2786.05 1649.72 2791.78 1647.68 C 2791.85 1649.07 2791.94 1650.48 2792.06 1651.91 C 2794.05 1650.89 2796.21 1650.91 2798.24 1651.97 C 2798.06 1653.34 2797.91 1654.73 2797.79 1656.15 C 2798.35 1655.81 2799.48 1655.15 2800.04 1654.81 C 2800.68 1655.06 2801.97 1655.54 2802.62 1655.78 C 2798.68 1668.78 2793.73 1681.42 2789.14 1694.19 C 2795.56 1682.22 2799.28 1669.02 2805.79 1657.09 C 2807.48 1658.09 2810.05 1658.72 2810.49 1661.01 C 2811.01 1664.03 2810.07 1667.09 2809.16 1669.96 C 2800.37 1694.49 2791.63 1719.06 2784.30 1744.07 C 2781.38 1754.71 2777.99 1765.36 2777.14 1776.44 C 2781.95 1773.59 2785.62 1769.30 2789.05 1764.97 C 2791.19 1762.57 2793.09 1759.62 2796.26 1758.48 C 2789.86 1768.84 2779.91 1776.71 2774.99 1788.03 C 2784.17 1779.38 2791.24 1768.85 2799.22 1759.14 C 2803.35 1754.22 2806.03 1748.13 2811.16 1744.05 C 2800.96 1763.93 2783.35 1778.90 2773.78 1799.15 C 2779.27 1793.58 2783.90 1787.23 2789.37 1781.63 C 2788.16 1784.44 2786.80 1787.19 2785.21 1789.82 C 2786.52 1789.07 2787.91 1788.45 2789.46 1788.18 C 2790.58 1786.42 2791.70 1784.66 2792.77 1782.86 C 2793.02 1778.67 2794.78 1773.95 2798.82 1772.05 C 2802.37 1770.70 2802.50 1766.38 2804.83 1763.83 C 2808.00 1760.37 2809.44 1755.82 2812.11 1752.02 C 2814.22 1749.12 2814.17 1745.21 2816.38 1742.37 C 2822.28 1736.40 2824.30 1727.72 2830.25 1721.78 C 2824.37 1736.94 2816.47 1751.25 2808.22 1765.24 C 2800.01 1778.76 2791.11 1791.91 2780.90 1804.00 C 2777.03 1808.42 2773.01 1812.77 2768.27 1816.28 C 2763.02 1814.02 2757.45 1812.39 2752.60 1809.35 C 2748.42 1806.33 2748.00 1800.68 2747.80 1795.98 C 2747.89 1782.92 2748.81 1769.86 2751.00 1756.98 C 2753.81 1741.20 2757.13 1725.52 2760.03 1709.76 C 2752.65 1717.79 2744.78 1725.33 2737.36 1733.32 C 2728.25 1743.50 2719.30 1754.63 2706.69 1760.62 C 2696.34 1765.34 2684.38 1761.64 2675.45 1755.55 C 2668.33 1750.78 2661.94 1743.08 2662.70 1734.00 C 2663.39 1716.68 2670.40 1700.38 2677.96 1685.05 C 2686.08 1669.45 2695.85 1654.65 2707.37 1641.35 C 2714.18 1633.41 2722.29 1626.62 2731.36 1621.40 C 2737.15 1618.13 2743.09 1614.94 2749.61 1613.40 M 2696.17 1673.07 C 2691.64 1681.30 2686.99 1689.49 2683.12 1698.06 C 2689.15 1688.65 2693.81 1678.45 2699.66 1668.93 C 2703.02 1663.07 2707.44 1657.93 2710.93 1652.17 C 2705.06 1658.40 2700.49 1665.72 2696.17 1673.07 M 2722.54 1664.41 C 2712.29 1678.16 2703.91 1693.27 2697.30 1709.08 C 2694.28 1716.17 2692.03 1723.65 2691.12 1731.32 C 2701.79 1703.48 2714.56 1675.94 2733.74 1652.84 C 2729.16 1655.78 2725.81 1660.16 2722.54 1664.41 M 2780.44 1797.73 C 2781.77 1797.87 2782.28 1797.25 2781.97 1795.88 C 2780.58 1795.68 2780.08 1796.30 2780.44 1797.73 Z" />
<path fill="#000000" opacity="1.00" d=" M 2235.94 1626.05 C 2254.20 1614.69 2278.15 1613.28 2297.63 1622.38 C 2310.13 1628.33 2321.21 1637.58 2328.60 1649.35 C 2330.83 1652.41 2329.16 1656.16 2328.11 1659.33 C 2319.10 1654.30 2310.92 1647.40 2300.91 1644.44 C 2284.97 1643.10 2269.68 1650.65 2257.87 1660.84 C 2238.80 1676.86 2225.99 1699.39 2218.90 1723.06 C 2215.89 1733.74 2213.57 1744.93 2214.83 1756.07 C 2222.26 1756.91 2228.28 1751.93 2234.12 1748.14 C 2247.85 1738.63 2259.00 1725.77 2267.64 1711.55 C 2274.12 1701.70 2278.67 1690.26 2288.04 1682.62 C 2293.77 1686.01 2299.51 1689.40 2305.27 1692.77 C 2308.97 1694.90 2313.06 1697.01 2315.15 1700.97 C 2317.55 1705.27 2316.55 1710.38 2316.76 1715.09 C 2316.45 1739.08 2314.87 1763.09 2311.36 1786.84 C 2305.55 1825.86 2292.06 1863.26 2276.28 1899.25 C 2267.96 1918.33 2257.88 1936.71 2245.32 1953.34 C 2231.82 1971.28 2216.42 1988.35 2197.15 2000.21 C 2186.18 2006.62 2174.01 2012.46 2160.98 2011.77 C 2146.43 2011.05 2131.69 2003.70 2123.99 1991.04 C 2119.69 1983.98 2120.66 1975.34 2121.72 1967.54 C 2124.47 1949.89 2131.93 1933.45 2139.53 1917.44 C 2155.53 1885.35 2175.77 1855.38 2199.36 1828.39 C 2215.88 1810.28 2234.47 1793.36 2256.90 1782.91 C 2257.68 1784.39 2258.49 1785.89 2259.32 1787.40 C 2263.96 1788.76 2268.54 1791.31 2270.53 1795.98 C 2275.45 1787.73 2277.88 1778.29 2279.37 1768.88 C 2280.86 1759.26 2282.21 1749.61 2283.04 1739.91 C 2268.86 1751.41 2258.25 1767.64 2241.13 1775.21 C 2225.25 1781.62 2206.59 1775.98 2194.45 1764.59 C 2185.34 1756.21 2178.97 1744.53 2178.11 1732.09 C 2177.54 1720.93 2179.36 1709.75 2182.44 1699.05 C 2191.01 1669.54 2209.58 1642.34 2235.94 1626.05 M 2236.04 1663.09 C 2224.71 1673.95 2215.39 1687.59 2212.06 1703.11 C 2217.30 1695.36 2220.48 1686.44 2225.82 1678.76 C 2230.75 1671.18 2237.03 1664.65 2242.96 1657.87 C 2240.34 1659.17 2238.06 1661.00 2236.04 1663.09 M 2203.89 1673.25 C 2207.67 1669.67 2210.64 1665.29 2213.13 1660.74 C 2209.57 1664.52 2206.59 1668.83 2203.89 1673.25 M 2261.64 1751.78 C 2263.66 1749.46 2265.42 1746.92 2267.04 1744.30 C 2264.57 1746.23 2261.74 1748.31 2261.64 1751.78 M 2234.79 1842.90 C 2209.78 1871.36 2187.43 1902.35 2169.92 1935.99 C 2162.52 1951.23 2154.58 1967.01 2153.92 1984.28 C 2160.11 1982.87 2165.18 1978.77 2170.39 1975.35 C 2191.67 1960.35 2207.58 1939.17 2221.58 1917.53 C 2242.69 1884.14 2257.29 1847.11 2269.32 1809.63 C 2256.34 1819.06 2245.50 1831.04 2234.79 1842.90 M 2286.78 1838.76 C 2276.29 1870.61 2262.26 1901.29 2245.10 1930.10 C 2240.39 1938.11 2234.36 1945.42 2230.89 1954.11 C 2247.81 1935.05 2259.95 1912.31 2270.12 1889.08 C 2277.07 1872.81 2283.37 1856.16 2286.78 1838.76 M 2185.85 1886.89 C 2175.68 1905.04 2164.69 1922.76 2155.53 1941.46 C 2151.19 1950.23 2149.30 1959.88 2146.21 1969.11 C 2149.69 1965.16 2151.44 1960.08 2152.88 1955.11 C 2157.78 1938.14 2166.82 1922.80 2175.43 1907.51 C 2180.59 1898.19 2186.78 1889.43 2191.22 1879.72 C 2188.51 1881.30 2187.34 1884.30 2185.85 1886.89 M 2231.13 1920.91 C 2237.95 1911.85 2242.48 1901.36 2246.95 1891.01 C 2241.20 1900.71 2236.05 1910.77 2231.13 1920.91 Z" />
</g>
</svg>
