<?xml version="1.0" encoding="UTF-8" ?>
<!DOCTYPE svg PUBLIC "-//W3C//DTD SVG 1.1//EN" "http://www.w3.org/Graphics/SVG/1.1/DTD/svg11.dtd">
<svg width="3508pt" height="2480pt" viewBox="0 0 3508 2480" version="1.1" xmlns="http://www.w3.org/2000/svg">
<g id="#000000ff">
<path fill="#000000" opacity="1.00" d=" M 504.88 514.01 C 505.65 513.83 507.20 513.47 507.98 513.29 C 515.03 518.07 522.37 522.54 528.61 528.41 C 554.38 552.04 571.93 583.69 581.60 617.08 C 586.73 634.88 588.67 653.48 588.00 671.97 C 587.31 714.97 580.31 757.77 567.95 798.94 C 538.26 898.07 493.31 992.38 437.25 1079.27 C 425.89 1096.76 413.90 1113.83 401.35 1130.49 C 382.17 1157.32 356.35 1179.37 326.58 1193.63 C 317.20 1198.17 307.49 1202.52 297.05 1203.81 C 281.79 1205.61 266.39 1201.13 253.03 1193.92 C 238.83 1186.16 226.29 1175.28 216.82 1162.14 C 209.76 1152.18 204.54 1140.45 204.21 1128.09 C 203.53 1114.39 204.02 1100.62 205.91 1087.04 C 210.76 1054.97 218.98 1023.57 226.43 992.05 C 233.13 964.25 239.64 936.40 246.47 908.63 C 252.55 884.62 259.43 860.83 266.40 837.07 C 272.44 816.63 278.19 796.08 285.12 775.92 C 288.24 766.81 290.40 757.39 291.73 747.87 C 276.17 750.40 261.41 756.37 247.30 763.22 C 229.12 771.92 210.07 778.62 190.95 784.95 C 172.25 791.15 153.67 798.43 134.00 800.93 C 123.82 802.06 113.17 803.12 103.29 799.72 C 89.40 794.86 76.43 785.84 69.15 772.81 C 66.18 767.70 64.66 761.89 64.08 756.05 C 72.78 754.96 81.30 757.87 89.99 757.39 C 107.27 756.93 124.25 753.12 140.86 748.55 C 163.03 742.51 184.66 734.67 206.09 726.42 C 223.10 719.68 240.11 712.80 256.37 704.37 C 272.67 695.75 289.36 687.89 305.94 679.81 C 309.79 677.73 314.50 677.45 318.31 679.81 C 329.95 686.40 338.62 697.07 345.93 708.06 C 351.07 716.48 358.15 725.44 356.04 735.97 C 354.64 747.15 350.97 757.88 349.06 768.98 C 345.96 787.51 342.17 805.92 338.67 824.39 C 334.15 847.68 329.67 870.99 323.87 894.01 C 315.88 926.56 307.51 959.01 299.47 991.55 C 290.88 1026.54 283.63 1061.84 276.00 1097.04 C 274.02 1105.66 272.59 1114.41 270.25 1122.94 C 268.17 1130.75 266.30 1138.67 265.91 1146.78 C 272.62 1142.15 280.53 1139.74 287.42 1135.43 C 314.39 1117.62 336.69 1093.67 356.12 1068.05 C 386.41 1027.90 411.95 984.36 434.43 939.43 C 450.17 907.82 464.79 875.65 477.91 842.87 C 492.18 806.87 505.67 770.47 515.77 733.05 C 520.82 713.20 526.18 693.39 529.66 673.18 C 533.22 652.98 532.85 632.36 531.75 611.96 C 530.58 592.56 526.81 573.27 519.78 555.12 C 514.69 541.46 508.78 528.08 504.88 514.01 M 511.51 883.47 C 505.91 895.46 501.14 907.81 496.02 920.00 C 491.37 931.37 485.85 942.36 480.26 953.29 C 458.86 994.80 433.73 1034.23 408.47 1073.46 C 397.01 1091.13 385.89 1109.10 372.63 1125.51 C 368.09 1131.56 362.62 1136.85 358.30 1143.07 C 363.20 1139.82 367.38 1135.65 371.54 1131.54 C 386.05 1116.77 398.33 1100.04 410.24 1083.17 C 435.46 1046.99 457.55 1008.70 477.45 969.38 C 489.07 946.34 499.39 922.67 508.76 898.64 C 515.14 882.73 521.61 866.86 527.86 850.90 C 519.03 859.77 516.56 872.45 511.51 883.47 M 441.58 960.36 C 440.67 961.13 440.02 963.58 441.65 963.90 C 443.50 963.68 443.88 958.99 441.58 960.36 M 449.45 981.39 C 449.26 981.85 448.86 982.76 448.67 983.22 C 450.13 986.80 453.07 979.46 449.45 981.39 M 408.96 1018.02 C 413.04 1012.24 417.83 1006.72 420.07 999.89 C 416.32 1005.90 411.90 1011.55 408.96 1018.02 M 413.99 1042.07 C 419.87 1034.70 426.13 1027.16 428.83 1017.94 C 423.85 1025.96 418.89 1034.00 413.99 1042.07 M 403.86 1026.16 C 386.47 1051.14 366.71 1074.61 352.11 1101.43 C 360.31 1096.20 365.52 1087.72 371.09 1080.00 C 382.84 1062.58 393.78 1044.59 403.86 1026.16 M 366.60 1109.59 C 379.66 1101.01 386.85 1086.48 393.97 1073.10 C 385.10 1085.45 374.82 1096.78 366.60 1109.59 Z" />
<path fill="#000000" opacity="1.00" d=" M 1732.37 606.22 C 1755.73 602.70 1779.42 600.99 1803.04 602.22 C 1842.78 604.53 1881.51 616.86 1916.62 635.32 C 1956.53 656.67 1992.36 686.18 2019.28 722.69 C 2029.76 736.74 2038.38 752.06 2046.52 767.55 C 2056.20 786.15 2064.65 805.39 2071.84 825.09 C 2078.69 844.38 2083.10 864.56 2084.71 884.97 C 2086.64 918.83 2084.77 953.30 2075.40 986.03 C 2070.50 1004.31 2064.57 1022.29 2058.00 1040.03 C 2052.81 1053.91 2045.57 1066.97 2037.16 1079.15 C 2028.63 1091.53 2020.51 1104.24 2010.69 1115.66 C 1989.51 1140.56 1964.86 1162.43 1938.01 1181.03 C 1912.42 1198.59 1884.83 1213.60 1855.34 1223.47 C 1837.22 1229.73 1818.07 1231.89 1799.07 1233.54 C 1781.19 1235.05 1763.03 1234.07 1745.62 1229.52 C 1729.14 1225.12 1712.47 1220.63 1697.32 1212.60 C 1668.99 1197.87 1646.63 1173.23 1631.61 1145.31 C 1624.24 1131.17 1617.55 1116.19 1616.26 1100.09 C 1614.93 1085.89 1616.92 1071.15 1623.26 1058.28 C 1630.28 1043.98 1639.26 1030.68 1649.72 1018.67 C 1654.21 1013.12 1659.90 1008.67 1664.28 1003.03 C 1666.56 1000.17 1665.89 996.31 1666.01 992.93 C 1665.62 975.30 1669.67 957.97 1674.39 941.11 C 1680.40 919.37 1688.22 898.19 1696.41 877.20 C 1702.99 860.57 1708.24 843.47 1713.67 826.44 C 1717.63 813.81 1721.02 801.00 1723.79 788.06 C 1725.93 778.42 1727.23 768.35 1725.29 758.56 C 1723.51 749.73 1718.51 742.00 1713.06 735.00 C 1708.61 729.09 1703.81 722.66 1703.69 714.93 C 1703.55 712.33 1703.72 708.71 1706.61 707.67 C 1711.81 706.43 1717.55 707.14 1722.20 709.86 C 1734.01 716.60 1742.99 727.26 1750.28 738.56 C 1760.40 754.06 1767.63 771.32 1772.66 789.11 C 1775.57 799.52 1778.09 810.11 1778.84 820.93 C 1780.21 839.17 1778.28 857.49 1775.26 875.47 C 1771.29 896.02 1763.99 915.72 1758.62 935.92 C 1755.67 946.27 1752.87 956.67 1750.14 967.09 C 1763.03 964.95 1775.87 962.41 1788.89 961.19 C 1807.31 959.91 1825.89 960.49 1844.16 963.27 C 1853.98 964.86 1864.01 966.51 1872.93 971.18 C 1887.14 978.16 1898.02 990.07 1907.85 1002.18 C 1914.11 1010.39 1920.68 1018.54 1925.10 1027.95 C 1926.22 1030.46 1927.49 1033.11 1927.22 1035.96 C 1926.87 1039.37 1925.24 1042.44 1923.98 1045.59 C 1917.06 1046.03 1911.03 1042.20 1905.69 1038.31 C 1897.86 1032.96 1892.59 1024.64 1884.42 1019.74 C 1876.87 1014.95 1867.59 1014.77 1858.95 1014.40 C 1833.64 1014.13 1808.43 1018.26 1784.04 1024.83 C 1765.16 1029.86 1746.72 1036.96 1730.08 1047.31 C 1729.91 1060.28 1729.91 1073.33 1731.77 1086.20 C 1732.84 1094.13 1736.12 1101.66 1740.84 1108.10 C 1745.13 1114.44 1751.01 1119.82 1753.81 1127.09 C 1755.87 1132.07 1750.02 1137.59 1745.10 1135.98 C 1732.33 1132.32 1718.90 1128.31 1709.12 1118.82 C 1700.77 1110.96 1694.70 1101.13 1688.05 1091.89 C 1687.43 1090.20 1686.04 1091.74 1685.70 1092.60 C 1677.06 1106.32 1675.30 1123.13 1675.69 1139.00 C 1675.64 1147.31 1679.40 1156.00 1687.05 1159.95 C 1704.91 1168.97 1725.24 1171.83 1745.07 1171.91 C 1769.00 1172.21 1792.48 1166.05 1814.81 1157.88 C 1830.36 1152.29 1845.12 1144.74 1859.42 1136.51 C 1911.20 1106.73 1956.71 1064.68 1986.59 1012.64 C 2003.95 982.34 2016.36 949.25 2023.54 915.09 C 2031.29 877.10 2029.12 837.38 2019.09 800.03 C 2013.60 780.66 2005.05 762.13 1993.66 745.52 C 1975.43 719.49 1950.15 698.96 1922.36 683.88 C 1901.89 672.81 1879.86 664.52 1857.02 659.99 C 1849.09 658.34 1841.03 657.57 1833.07 656.20 C 1800.23 651.36 1766.85 655.21 1734.45 661.30 C 1700.31 666.83 1667.70 681.16 1640.34 702.28 C 1625.65 713.49 1612.69 727.05 1602.66 742.60 C 1592.95 757.38 1586.11 774.32 1584.77 792.06 C 1584.04 802.40 1584.33 813.34 1589.23 822.74 C 1591.36 827.03 1594.79 830.43 1597.91 834.01 C 1603.68 840.71 1609.08 847.73 1614.15 854.98 C 1612.07 856.93 1609.29 858.85 1606.33 857.59 C 1568.70 844.02 1542.39 804.82 1543.17 764.96 C 1543.85 747.91 1549.82 731.50 1557.53 716.44 C 1565.95 700.61 1577.18 686.47 1589.28 673.31 C 1613.04 647.88 1644.14 630.13 1676.95 619.12 C 1694.99 613.18 1713.62 609.14 1732.37 606.22 M 1609.76 669.79 C 1603.85 674.27 1598.07 679.35 1594.77 686.13 C 1606.12 677.16 1616.88 667.48 1627.78 657.98 C 1621.38 661.28 1615.51 665.49 1609.76 669.79 M 1602.96 695.24 C 1605.33 693.98 1607.56 692.44 1609.65 690.73 C 1616.61 685.12 1623.61 679.50 1629.79 673.01 C 1619.44 678.41 1610.59 686.49 1602.96 695.24 M 1635.35 683.34 C 1624.26 689.46 1614.63 697.94 1606.33 707.46 C 1601.98 712.67 1597.93 718.28 1595.40 724.63 C 1609.15 710.01 1622.46 694.61 1639.17 683.22 C 1644.19 679.87 1650.17 677.57 1653.77 672.47 C 1647.49 675.85 1641.64 679.97 1635.35 683.34 M 1656.73 1037.06 C 1660.65 1033.54 1664.42 1029.74 1667.30 1025.30 C 1662.91 1028.29 1659.57 1032.63 1656.73 1037.06 M 1668.97 1047.36 C 1668.85 1047.78 1668.60 1048.62 1668.48 1049.04 C 1670.14 1052.23 1672.14 1045.53 1668.97 1047.36 M 1671.88 1074.76 C 1674.66 1072.56 1676.17 1069.21 1676.09 1065.69 C 1674.00 1068.34 1672.58 1071.45 1671.88 1074.76 M 1991.97 1095.00 C 1968.70 1123.80 1939.09 1146.49 1909.51 1168.37 C 1905.47 1171.47 1900.81 1173.91 1897.69 1178.05 C 1919.80 1168.04 1940.00 1154.14 1958.48 1138.48 C 1978.99 1120.69 1997.11 1099.76 2009.94 1075.74 C 2002.72 1080.90 1997.63 1088.30 1991.97 1095.00 M 1905.88 1126.78 C 1899.41 1131.58 1892.97 1136.62 1888.00 1143.02 C 1900.88 1135.64 1912.86 1126.79 1924.53 1117.63 C 1936.38 1108.15 1947.40 1097.43 1956.08 1084.92 C 1940.40 1100.08 1923.62 1114.10 1905.88 1126.78 M 1930.13 1131.10 C 1925.51 1136.12 1920.10 1140.36 1915.57 1145.45 C 1923.80 1140.62 1930.95 1134.20 1938.42 1128.29 C 1950.60 1118.19 1961.48 1106.56 1971.09 1094.01 C 1954.87 1103.22 1943.27 1118.24 1930.13 1131.10 M 1969.91 1141.02 C 1976.90 1137.15 1982.73 1131.30 1987.06 1124.62 C 1981.06 1129.78 1975.36 1135.29 1969.91 1141.02 M 1907.37 1149.02 C 1905.55 1149.31 1906.04 1152.14 1907.89 1151.53 C 1909.85 1151.33 1909.32 1148.19 1907.37 1149.02 Z" />
<path fill="#000000" opacity="1.00" d=" M 2283.07 818.97 C 2287.54 815.30 2293.61 817.50 2298.00 820.16 C 2308.14 826.49 2314.86 837.10 2318.84 848.16 C 2321.66 856.35 2319.91 865.15 2318.27 873.39 C 2310.00 911.27 2297.24 947.94 2286.33 985.09 C 2282.02 999.11 2276.89 1012.87 2272.98 1027.01 C 2265.01 1055.33 2257.12 1083.66 2249.17 1111.98 C 2237.73 1151.68 2227.26 1192.35 2227.75 1233.98 C 2227.44 1251.23 2234.40 1267.36 2237.53 1284.08 C 2228.94 1285.45 2219.89 1283.41 2212.85 1278.28 C 2200.53 1269.32 2190.64 1255.96 2188.57 1240.59 C 2184.24 1207.77 2189.36 1174.71 2195.28 1142.43 C 2206.53 1082.43 2222.36 1023.38 2240.45 965.10 C 2247.96 939.95 2258.45 915.84 2267.25 891.14 C 2272.99 875.50 2278.76 859.87 2284.00 844.06 C 2285.32 839.78 2286.90 835.48 2287.14 830.96 C 2287.13 826.62 2284.61 822.88 2283.07 818.97 M 2285.07 937.17 C 2283.52 940.19 2288.38 937.27 2285.07 937.17 M 2269.08 985.98 C 2257.19 1024.58 2246.44 1063.52 2235.59 1102.43 C 2227.40 1133.54 2220.07 1165.06 2217.38 1197.19 C 2220.19 1186.12 2221.51 1174.73 2223.68 1163.52 C 2226.59 1146.79 2231.37 1130.47 2235.18 1113.93 C 2241.32 1087.80 2247.90 1061.76 2255.80 1036.10 C 2263.52 1009.90 2273.36 984.26 2278.93 957.47 C 2274.82 966.66 2272.23 976.44 2269.08 985.98 Z" />
<path fill="#000000" opacity="1.00" d=" M 2748.60 863.70 C 2752.16 859.83 2757.27 862.83 2760.90 864.95 C 2759.91 867.24 2758.99 869.55 2758.17 871.90 C 2760.59 869.29 2762.81 866.50 2765.03 863.71 C 2765.74 864.79 2766.47 865.87 2767.24 866.97 C 2768.69 866.82 2770.17 866.69 2771.69 866.57 C 2770.90 868.77 2770.13 870.98 2769.39 873.20 C 2770.62 872.22 2771.82 871.23 2773.10 870.26 C 2775.17 871.02 2777.28 871.80 2779.39 872.62 C 2779.30 874.33 2779.29 876.06 2779.29 877.79 C 2780.58 877.43 2781.87 877.07 2783.22 876.73 C 2786.06 878.82 2789.34 880.59 2791.35 883.61 C 2792.80 886.53 2791.52 889.88 2790.68 892.81 C 2784.90 910.10 2778.85 927.28 2772.87 944.49 C 2777.32 944.50 2781.80 944.34 2786.17 943.28 C 2794.29 941.36 2802.71 941.65 2811.01 941.43 C 2815.49 941.50 2820.30 941.35 2824.41 943.48 C 2828.73 946.14 2832.10 950.20 2834.22 954.80 C 2835.37 957.71 2838.89 957.91 2841.43 959.02 C 2836.72 963.96 2830.59 967.33 2824.15 969.43 C 2803.93 976.38 2782.53 978.51 2761.49 981.59 C 2754.48 1004.09 2748.53 1026.92 2743.25 1049.89 C 2738.13 1072.61 2733.97 1095.54 2729.73 1118.43 C 2721.64 1164.34 2712.82 1210.33 2710.73 1257.00 C 2709.87 1277.24 2709.54 1297.85 2714.56 1317.63 C 2715.38 1321.24 2716.66 1325.05 2715.68 1328.76 C 2714.02 1331.83 2710.12 1332.33 2707.04 1332.89 C 2705.08 1333.55 2703.58 1332.13 2702.05 1331.24 C 2701.02 1332.41 2700.42 1334.16 2699.02 1334.88 C 2690.92 1331.24 2681.70 1329.93 2674.54 1324.42 C 2669.02 1320.19 2665.94 1313.67 2663.74 1307.26 C 2658.64 1292.09 2658.63 1275.87 2658.75 1260.05 C 2658.32 1198.87 2668.08 1138.29 2676.99 1077.95 C 2679.19 1055.30 2685.52 1033.34 2689.15 1010.92 C 2690.02 1005.24 2691.68 999.72 2692.30 994.00 C 2686.32 992.30 2680.12 993.18 2674.04 993.43 C 2668.81 993.72 2663.92 991.20 2660.01 987.96 C 2656.87 985.21 2652.68 982.41 2653.35 977.66 C 2651.78 976.79 2650.27 975.88 2648.74 975.04 C 2649.83 972.33 2650.16 968.53 2653.31 967.35 C 2665.37 962.75 2678.48 962.54 2690.96 959.64 C 2692.12 959.48 2693.05 958.72 2693.76 957.78 C 2705.09 942.82 2715.38 926.92 2722.60 909.54 C 2726.12 900.78 2730.50 892.41 2735.43 884.37 C 2739.85 877.51 2743.39 870.00 2748.60 863.70 M 2758.53 923.40 C 2755.20 932.03 2751.24 940.50 2749.49 949.64 C 2751.10 948.68 2753.41 948.15 2754.05 946.09 C 2759.70 932.64 2763.39 918.47 2768.53 904.83 C 2763.31 909.83 2761.19 916.90 2758.53 923.40 M 2736.08 950.36 C 2736.90 949.10 2737.66 947.81 2738.38 946.48 C 2738.39 946.47 2738.40 946.43 2738.41 946.41 C 2739.56 943.28 2740.16 939.97 2740.67 936.68 C 2737.55 940.54 2736.63 945.56 2736.08 950.36 M 2736.92 987.99 C 2729.28 1012.91 2723.54 1038.38 2718.91 1064.03 C 2714.14 1090.26 2709.04 1116.44 2705.33 1142.85 C 2702.12 1165.56 2698.65 1188.24 2696.39 1211.07 C 2694.24 1235.06 2693.36 1259.22 2694.47 1283.29 C 2694.99 1279.88 2695.28 1276.44 2695.43 1273.01 C 2700.22 1175.51 2717.93 1079.07 2742.12 984.64 C 2739.98 985.15 2737.12 985.20 2736.92 987.99 M 2724.44 988.97 C 2723.17 991.67 2722.11 994.46 2721.32 997.34 C 2709.20 1041.86 2701.84 1087.48 2694.99 1133.06 C 2693.65 1143.76 2691.63 1154.41 2691.37 1165.22 C 2697.38 1130.54 2702.09 1095.62 2709.14 1061.12 C 2713.91 1037.00 2719.74 1013.10 2724.44 988.97 M 2702.65 1014.53 C 2696.01 1040.98 2691.56 1067.92 2687.40 1094.86 C 2686.13 1103.99 2684.45 1113.10 2684.40 1122.35 C 2686.21 1116.66 2686.75 1110.69 2687.84 1104.85 C 2690.70 1088.24 2693.44 1071.61 2696.14 1054.98 C 2699.13 1035.34 2703.85 1016.01 2707.87 996.58 C 2705.67 1002.42 2704.23 1008.50 2702.65 1014.53 M 2742.42 1012.29 C 2741.18 1013.31 2740.54 1015.33 2741.21 1016.83 C 2742.60 1016.62 2743.77 1012.98 2742.42 1012.29 M 2734.19 1045.40 C 2732.89 1046.19 2733.92 1048.98 2735.39 1047.63 C 2736.59 1046.80 2735.61 1044.08 2734.19 1045.40 M 2732.37 1051.16 C 2730.96 1051.96 2731.87 1055.09 2733.55 1053.70 C 2734.90 1052.87 2734.01 1049.77 2732.37 1051.16 M 2727.07 1078.45 C 2725.48 1081.44 2730.38 1078.59 2727.07 1078.45 M 2724.06 1093.48 C 2722.51 1096.49 2727.37 1093.58 2724.06 1093.48 M 2718.40 1125.18 C 2717.03 1125.32 2717.01 1127.66 2718.36 1127.89 C 2719.68 1127.76 2719.70 1125.34 2718.40 1125.18 M 2681.25 1139.88 C 2680.09 1150.98 2678.33 1162.02 2677.44 1173.15 C 2679.42 1165.24 2679.52 1157.00 2680.99 1148.98 C 2681.73 1142.21 2683.65 1135.52 2683.41 1128.67 C 2681.66 1132.13 2681.84 1136.13 2681.25 1139.88 Z" />
<path fill="#000000" opacity="1.00" d=" M 558.26 932.30 C 559.97 929.12 562.15 925.56 565.96 924.73 C 567.84 925.62 569.62 926.73 571.47 927.70 C 571.50 928.54 571.57 930.21 571.60 931.05 C 572.81 930.16 574.02 929.29 575.23 928.42 C 577.08 929.38 578.94 930.35 580.78 931.37 C 580.47 932.27 579.85 934.07 579.55 934.98 C 581.69 935.32 583.84 935.68 585.99 936.04 C 586.00 937.68 586.01 939.34 586.04 941.00 C 586.79 940.96 588.30 940.88 589.06 940.84 C 591.17 943.16 593.83 945.55 593.97 948.93 C 595.21 961.33 588.41 972.67 588.16 984.94 C 587.61 993.12 590.45 1001.03 590.27 1009.20 C 585.62 1012.31 580.59 1009.28 575.97 1007.84 C 570.45 1006.40 567.01 1001.41 563.84 997.05 C 556.61 986.41 550.74 974.12 550.69 961.01 C 551.03 951.04 553.72 941.17 558.26 932.30 Z" />
<path fill="#000000" opacity="1.00" d=" M 1022.00 959.99 C 1026.88 954.82 1032.85 950.16 1040.02 948.89 C 1048.41 947.23 1056.83 950.15 1064.36 953.64 C 1073.72 957.84 1082.16 964.44 1087.54 973.28 C 1086.34 974.48 1085.15 975.68 1083.97 976.90 C 1078.06 975.85 1071.90 972.64 1065.92 974.97 C 1059.68 978.20 1055.91 984.51 1052.51 990.40 C 1049.43 996.12 1046.39 1001.90 1044.14 1008.00 C 1041.55 1015.39 1041.04 1023.31 1041.03 1031.08 C 1047.39 1025.84 1053.51 1020.32 1059.55 1014.70 C 1066.91 1007.86 1077.63 1004.57 1087.52 1006.72 C 1093.71 1008.36 1099.14 1011.90 1104.78 1014.82 C 1096.59 1022.45 1086.59 1027.76 1078.37 1035.32 C 1068.78 1044.84 1061.23 1056.17 1053.46 1067.17 C 1061.27 1082.72 1068.93 1098.41 1075.23 1114.65 C 1080.47 1129.49 1082.90 1145.31 1082.46 1161.04 C 1082.04 1175.13 1075.04 1188.44 1064.99 1198.10 C 1052.49 1210.03 1035.39 1217.51 1017.98 1217.07 C 1006.16 1216.76 994.05 1212.98 985.26 1204.83 C 979.61 1199.71 974.93 1192.84 974.54 1185.01 C 973.55 1167.17 979.68 1150.03 985.63 1133.51 C 994.17 1109.97 1005.54 1087.62 1016.88 1065.35 C 1013.08 1056.99 1009.57 1048.51 1006.01 1040.06 C 1001.25 1028.74 999.00 1016.15 1000.93 1003.93 C 1003.55 987.69 1010.72 972.05 1022.00 959.99 M 1018.88 983.23 C 1021.03 980.43 1022.59 977.22 1023.87 973.95 C 1021.71 976.74 1019.90 979.83 1018.88 983.23 M 1045.01 978.03 C 1036.27 983.70 1033.73 994.40 1031.14 1003.80 C 1037.24 996.11 1040.88 986.85 1045.01 978.03 M 1027.55 988.21 C 1030.16 985.61 1031.84 982.28 1032.81 978.75 C 1030.45 981.52 1028.89 984.85 1027.55 988.21 M 1028.74 1091.76 C 1023.23 1097.93 1020.53 1105.87 1017.35 1113.35 C 1012.29 1126.14 1007.82 1139.16 1003.18 1152.11 C 999.70 1161.78 998.17 1172.01 997.36 1182.22 C 1000.17 1171.73 1002.11 1161.00 1005.64 1150.71 C 1012.27 1130.65 1021.29 1111.50 1028.74 1091.76 M 1034.35 1105.12 C 1031.26 1109.77 1029.31 1115.02 1027.19 1120.16 C 1020.32 1137.18 1013.79 1154.41 1009.30 1172.24 C 1007.44 1179.72 1006.54 1187.96 1009.96 1195.15 C 1016.57 1193.14 1022.35 1189.06 1027.00 1184.02 C 1036.53 1173.47 1040.98 1159.06 1041.20 1145.02 C 1041.10 1131.44 1037.68 1118.19 1034.35 1105.12 M 991.07 1143.16 C 995.49 1134.91 998.69 1125.98 1000.89 1116.90 C 997.61 1125.65 993.64 1134.16 991.07 1143.16 M 1061.96 1183.71 C 1066.85 1177.07 1070.48 1169.00 1069.73 1160.58 C 1066.13 1167.86 1062.05 1175.37 1061.96 1183.71 M 1055.36 1174.00 C 1057.15 1171.92 1058.07 1169.32 1057.89 1166.57 C 1056.75 1168.93 1055.96 1171.44 1055.36 1174.00 M 1047.36 1168.26 C 1046.28 1168.97 1045.56 1170.63 1046.17 1171.87 C 1047.60 1172.14 1048.89 1168.63 1047.36 1168.26 Z" />
<path fill="#000000" opacity="1.00" d=" M 786.56 952.66 C 789.22 950.68 792.75 951.17 795.68 952.25 C 804.38 955.30 812.65 960.34 818.31 967.74 C 821.54 971.79 821.40 977.41 820.12 982.18 C 814.61 1002.06 806.26 1020.96 799.44 1040.39 C 784.38 1081.58 770.55 1123.31 760.56 1166.05 C 758.31 1176.50 756.13 1187.12 756.41 1197.87 C 756.58 1202.60 759.58 1206.57 763.15 1209.43 C 762.18 1211.27 761.59 1214.17 758.99 1214.18 C 749.95 1214.94 740.24 1212.69 733.46 1206.40 C 727.08 1200.69 723.71 1192.38 722.15 1184.12 C 718.70 1164.42 720.85 1144.21 725.27 1124.84 C 729.38 1105.68 735.33 1086.98 741.49 1068.39 C 745.07 1057.63 748.11 1046.69 752.01 1036.03 C 756.11 1025.18 761.11 1014.67 764.76 1003.65 C 757.30 1008.42 752.17 1015.84 746.24 1022.25 C 722.12 1050.96 702.70 1083.19 683.08 1115.03 C 673.54 1130.30 663.77 1145.49 652.43 1159.49 C 649.15 1163.19 645.82 1167.56 640.76 1168.77 C 632.63 1170.14 624.31 1167.07 617.99 1162.02 C 611.70 1157.17 606.63 1150.08 605.88 1141.99 C 604.93 1127.20 608.43 1112.67 610.99 1098.21 C 601.62 1112.22 593.84 1127.24 584.11 1141.03 C 571.85 1158.62 559.20 1175.97 545.28 1192.30 C 543.00 1194.91 540.48 1197.83 536.87 1198.42 C 527.10 1199.83 515.87 1197.51 509.39 1189.52 C 504.44 1183.20 504.52 1174.70 504.90 1167.08 C 505.55 1143.12 510.55 1119.54 516.61 1096.42 C 522.85 1072.53 530.14 1048.69 532.12 1023.96 C 532.61 1019.08 531.28 1014.30 530.46 1009.55 C 532.79 1008.48 535.20 1006.82 537.91 1007.49 C 549.03 1009.51 559.98 1013.90 568.52 1021.45 C 575.43 1027.56 578.52 1036.92 578.92 1045.93 C 579.31 1056.76 577.91 1067.67 574.80 1078.07 C 567.74 1101.62 560.52 1125.14 553.86 1148.82 C 565.43 1136.03 574.23 1121.09 583.84 1106.85 C 589.18 1098.86 594.41 1090.80 599.95 1082.96 C 606.36 1073.79 614.49 1065.97 620.81 1056.74 C 622.81 1053.85 623.43 1050.32 624.45 1047.03 C 628.29 1033.20 632.27 1019.40 636.40 1005.65 C 640.31 991.63 645.26 976.67 641.05 962.14 C 643.26 961.07 645.73 959.50 648.24 960.68 C 659.66 964.83 669.36 973.94 673.57 985.41 C 677.18 994.90 676.10 1005.29 674.77 1015.11 C 671.90 1034.00 667.28 1052.58 662.16 1070.96 C 657.06 1090.32 649.78 1109.00 644.54 1128.30 C 649.78 1122.48 653.88 1115.77 658.60 1109.55 C 681.83 1077.59 703.93 1044.70 729.75 1014.72 C 742.87 999.51 755.72 984.07 769.21 969.18 C 774.76 963.46 779.77 957.00 786.56 952.66 M 767.59 976.55 C 753.57 991.96 739.64 1007.46 726.33 1023.48 C 715.15 1037.05 704.84 1051.30 694.76 1065.69 C 689.00 1073.97 682.25 1081.69 678.00 1090.90 C 684.85 1084.51 689.10 1076.04 694.21 1068.32 C 704.47 1053.14 715.73 1038.63 727.95 1024.97 C 740.70 1011.07 753.42 997.12 765.35 982.51 C 769.34 977.23 774.37 972.64 777.30 966.64 C 773.63 969.49 770.74 973.17 767.59 976.55 M 801.38 993.34 C 788.61 1022.74 778.03 1053.05 768.72 1083.71 C 763.34 1102.09 757.76 1120.45 753.35 1139.09 C 757.04 1131.64 759.48 1123.66 761.89 1115.73 C 766.74 1099.27 770.75 1082.56 776.48 1066.37 C 783.98 1043.61 793.53 1021.63 802.37 999.38 C 804.98 991.79 808.52 984.45 810.05 976.54 C 806.07 981.51 804.09 987.65 801.38 993.34 M 780.94 993.79 C 778.35 999.86 775.13 1005.68 773.07 1011.97 C 775.21 1008.10 777.06 1004.09 778.96 1000.10 C 782.27 992.59 786.91 985.71 789.73 977.99 C 786.01 982.77 783.51 988.34 780.94 993.79 M 754.79 1006.32 C 758.42 1004.65 760.82 1001.35 763.59 998.61 C 766.08 996.18 767.69 993.05 769.11 989.92 C 764.25 995.29 758.89 1000.32 754.79 1006.32 M 756.82 997.36 C 757.40 998.75 759.87 997.52 758.69 996.27 L 757.91 996.09 C 757.64 996.41 757.09 997.05 756.82 997.36 M 755.17 998.78 C 752.74 1002.40 749.49 1005.36 746.69 1008.68 C 729.21 1028.19 713.28 1049.03 698.30 1070.50 C 697.07 1072.20 696.66 1074.27 696.27 1076.31 C 701.48 1070.36 705.66 1063.56 711.08 1057.76 C 710.83 1058.91 710.32 1061.20 710.07 1062.35 C 717.67 1059.14 719.54 1050.32 724.71 1044.68 C 732.82 1036.94 737.68 1026.54 745.61 1018.64 C 747.74 1015.96 751.19 1013.92 751.54 1010.23 C 745.05 1015.83 740.75 1023.79 733.17 1028.17 C 735.45 1024.23 738.28 1020.65 741.22 1017.19 C 746.23 1011.47 750.66 1005.21 756.16 999.94 C 755.83 999.53 755.50 999.14 755.17 998.78 M 615.08 1066.77 C 615.73 1066.92 617.04 1067.23 617.70 1067.38 C 615.85 1070.84 613.78 1074.20 612.34 1077.87 C 616.75 1074.23 619.25 1068.90 619.47 1063.21 C 617.99 1064.38 616.51 1065.54 615.08 1066.77 M 614.11 1067.57 C 610.37 1073.48 604.73 1077.94 601.06 1083.94 C 590.52 1101.30 579.00 1118.04 568.36 1135.34 C 563.50 1143.22 556.53 1149.70 552.60 1158.16 C 557.63 1154.63 560.31 1148.91 563.78 1144.03 C 580.76 1118.91 597.84 1093.85 615.32 1069.08 C 614.90 1068.57 614.50 1068.07 614.11 1067.57 M 704.47 1070.10 C 703.23 1070.27 701.97 1071.78 702.58 1073.03 C 704.05 1074.11 706.49 1070.66 704.47 1070.10 M 691.85 1080.44 C 691.38 1082.08 691.96 1082.61 693.57 1082.03 C 694.02 1080.38 693.44 1079.85 691.85 1080.44 M 613.40 1084.26 C 612.23 1084.97 611.01 1086.55 611.41 1087.99 C 612.96 1088.51 615.02 1084.87 613.40 1084.26 M 556.58 1085.03 C 551.29 1094.89 550.03 1106.18 546.75 1116.75 C 541.25 1136.19 533.77 1155.22 531.29 1175.39 C 534.46 1167.87 535.51 1159.70 537.97 1151.95 C 543.96 1129.58 551.03 1107.51 556.58 1085.03 M 687.26 1088.22 C 687.86 1088.74 687.86 1088.74 687.26 1088.22 M 682.55 1092.71 C 682.19 1094.80 685.21 1094.96 685.58 1093.05 C 685.18 1091.39 683.40 1091.45 682.55 1092.71 M 578.77 1131.03 C 578.20 1131.42 577.85 1133.31 579.10 1132.65 C 580.24 1131.71 582.20 1130.54 582.00 1128.91 C 580.60 1128.62 579.53 1130.06 578.77 1131.03 M 751.60 1145.89 C 750.47 1149.30 749.44 1152.78 749.11 1156.38 C 751.29 1153.32 751.46 1149.50 751.60 1145.89 Z" />
<path fill="#000000" opacity="1.00" d=" M 907.13 973.16 C 912.86 968.96 919.93 966.62 927.06 966.75 C 936.83 966.90 945.89 971.62 953.53 977.38 C 964.99 986.51 974.61 999.22 977.02 1013.95 C 978.66 1033.26 972.33 1052.17 964.50 1069.55 C 956.52 1087.71 945.60 1104.49 932.80 1119.63 C 923.26 1130.77 913.18 1141.60 901.52 1150.57 C 888.49 1160.90 870.34 1162.45 854.61 1158.64 C 835.26 1153.87 819.68 1137.99 813.99 1119.06 C 809.52 1103.78 809.95 1087.15 814.59 1071.96 C 819.61 1054.30 826.85 1036.89 838.67 1022.65 C 842.97 1017.44 848.31 1012.55 855.04 1010.90 C 860.14 1009.21 864.74 1012.81 869.25 1014.62 C 880.66 999.81 891.51 983.92 907.13 973.16 M 902.15 988.13 C 901.54 989.74 902.07 990.27 903.73 989.71 C 904.32 988.07 903.80 987.54 902.15 988.13 M 894.86 996.78 C 897.17 994.83 899.48 992.85 901.42 990.52 C 898.32 991.41 896.72 994.42 894.86 996.78 M 930.53 1001.54 C 916.89 1012.28 905.37 1025.70 896.65 1040.70 C 893.81 1045.71 891.14 1051.17 891.14 1057.06 C 891.26 1062.38 895.27 1066.38 898.92 1069.78 C 897.09 1070.96 895.36 1072.76 893.01 1072.61 C 886.77 1072.83 880.26 1070.73 875.89 1066.15 C 871.32 1061.34 867.27 1056.07 863.02 1051.00 C 859.30 1059.87 856.25 1069.01 853.22 1078.15 C 847.14 1096.28 845.43 1116.21 850.11 1134.87 C 865.28 1130.64 879.00 1122.19 890.49 1111.52 C 903.39 1099.87 914.13 1085.96 922.89 1070.99 C 933.16 1053.43 941.10 1034.39 945.31 1014.45 C 946.82 1007.86 948.27 1000.94 946.22 994.30 C 940.39 995.10 935.10 997.94 930.53 1001.54 M 897.79 1016.82 C 893.84 1022.36 889.74 1028.00 887.81 1034.62 C 894.23 1027.34 899.59 1019.21 905.71 1011.69 C 909.86 1006.16 914.97 1001.45 919.22 996.01 C 910.88 1001.56 903.64 1008.71 897.79 1016.82 M 850.04 1052.10 C 854.49 1045.60 859.04 1039.04 862.00 1031.68 C 856.03 1037.07 852.86 1044.76 850.04 1052.10 M 938.70 1090.57 C 932.19 1100.40 924.50 1109.37 917.94 1119.15 C 926.23 1111.69 933.26 1102.87 939.79 1093.85 C 944.89 1086.10 950.97 1078.28 952.07 1068.77 C 947.59 1076.02 943.61 1083.58 938.70 1090.57 M 914.27 1098.20 C 917.75 1095.45 920.23 1091.68 922.15 1087.74 C 919.01 1090.80 916.49 1094.43 914.27 1098.20 M 917.29 1119.37 C 917.82 1119.84 917.82 1119.84 917.29 1119.37 Z" />
<path fill="#000000" opacity="1.00" d=" M 2314.48 983.38 C 2316.85 978.34 2319.07 972.06 2325.00 970.32 C 2326.55 971.39 2328.12 972.48 2329.75 973.52 C 2329.87 974.66 2330.02 975.81 2330.21 976.98 C 2331.41 976.09 2332.62 975.20 2333.87 974.33 C 2335.63 975.22 2337.43 976.12 2339.23 977.03 C 2338.91 978.29 2338.63 979.56 2338.39 980.85 C 2340.51 981.20 2342.70 981.57 2344.86 981.95 C 2344.81 983.64 2344.79 985.34 2344.80 987.05 C 2345.59 986.97 2347.17 986.80 2347.96 986.72 C 2349.77 988.93 2352.15 991.05 2352.56 994.06 C 2353.32 1001.53 2351.55 1008.97 2349.40 1016.07 C 2346.96 1024.09 2346.10 1032.64 2347.44 1040.95 C 2348.22 1045.62 2348.92 1050.31 2349.12 1055.05 C 2344.21 1058.26 2339.03 1054.93 2334.16 1053.58 C 2329.74 1052.26 2326.81 1048.40 2324.01 1045.01 C 2317.77 1036.44 2312.71 1026.82 2310.37 1016.43 C 2307.80 1005.33 2310.50 993.81 2314.48 983.38 Z" />
<path fill="#000000" opacity="1.00" d=" M 2915.10 1005.12 C 2919.98 1000.09 2926.01 995.67 2933.10 994.61 C 2941.24 993.28 2949.32 996.04 2956.63 999.40 C 2965.95 1003.61 2974.56 1010.15 2979.80 1019.06 C 2978.83 1020.42 2977.60 1021.62 2976.15 1022.41 C 2970.15 1022.15 2964.07 1018.07 2958.15 1020.88 C 2952.06 1024.08 2948.45 1030.34 2945.01 1036.03 C 2940.83 1044.06 2936.20 1052.13 2934.67 1061.17 C 2933.69 1066.39 2933.47 1071.72 2933.33 1077.02 C 2939.88 1071.71 2946.04 1065.95 2952.28 1060.28 C 2959.56 1053.53 2970.14 1050.58 2979.87 1052.59 C 2986.09 1054.10 2991.46 1057.76 2997.14 1060.57 C 2990.17 1067.31 2981.70 1072.18 2974.16 1078.22 C 2962.74 1088.01 2954.60 1100.84 2945.92 1112.95 C 2953.86 1129.06 2961.85 1145.20 2968.15 1162.04 C 2973.31 1176.72 2975.24 1192.41 2974.74 1207.93 C 2974.25 1222.03 2966.81 1235.12 2956.69 1244.64 C 2943.70 1256.74 2925.83 1264.02 2907.97 1262.84 C 2896.16 1262.12 2884.31 1257.59 2875.94 1249.06 C 2870.62 1243.76 2866.76 1236.61 2866.76 1228.97 C 2866.47 1212.43 2871.87 1196.53 2877.38 1181.15 C 2886.06 1156.99 2897.61 1134.02 2909.28 1111.20 C 2905.46 1102.76 2901.91 1094.20 2898.32 1085.67 C 2893.37 1073.90 2891.33 1060.75 2893.62 1048.12 C 2896.54 1032.16 2903.80 1016.85 2915.10 1005.12 M 2915.78 1020.60 C 2913.72 1023.09 2912.28 1026.00 2911.28 1029.06 C 2913.18 1026.49 2914.91 1023.71 2915.78 1020.60 M 2920.04 1034.09 C 2922.49 1031.46 2924.29 1028.27 2925.01 1024.73 C 2922.83 1027.54 2921.27 1030.76 2920.04 1034.09 M 2923.35 1049.82 C 2929.78 1042.19 2932.95 1032.57 2937.71 1023.93 C 2928.34 1029.12 2926.47 1040.55 2923.35 1049.82 M 2915.04 1147.05 C 2907.36 1163.45 2901.89 1180.75 2895.67 1197.72 C 2891.92 1207.74 2890.77 1218.44 2889.47 1228.98 C 2892.22 1219.91 2893.52 1210.46 2896.55 1201.47 C 2903.12 1179.62 2913.10 1159.03 2921.14 1137.74 C 2918.54 1140.43 2916.58 1143.65 2915.04 1147.05 M 2926.69 1151.13 C 2922.17 1158.33 2919.50 1166.43 2916.31 1174.25 C 2911.16 1187.61 2906.15 1201.07 2902.52 1214.94 C 2900.15 1223.29 2898.81 1232.39 2902.00 1240.73 C 2908.60 1239.52 2914.11 1235.30 2918.70 1230.60 C 2930.47 1218.08 2934.99 1199.96 2933.24 1183.13 C 2932.04 1172.30 2929.67 1161.59 2926.69 1151.13 M 2893.74 1162.06 C 2889.93 1171.29 2885.83 1180.49 2883.18 1190.14 C 2887.62 1181.16 2891.00 1171.68 2893.74 1162.06 M 2961.78 1206.64 C 2958.52 1214.11 2954.57 1221.57 2954.03 1229.87 C 2958.99 1223.31 2963.30 1215.09 2961.78 1206.64 M 2947.91 1219.50 C 2949.60 1217.66 2950.21 1215.22 2950.62 1212.83 C 2949.22 1214.82 2948.28 1217.09 2947.91 1219.50 Z" />
<path fill="#000000" opacity="1.00" d=" M 3037.32 1004.30 C 3041.87 999.60 3047.55 995.71 3054.15 994.70 C 3062.31 993.08 3070.39 996.04 3077.76 999.29 C 3087.07 1003.55 3095.83 1010.00 3101.01 1019.01 C 3100.31 1020.51 3098.90 1021.55 3097.90 1022.83 C 3091.95 1021.82 3085.77 1018.46 3079.75 1020.77 C 3073.15 1024.06 3069.34 1030.79 3065.84 1036.96 C 3062.26 1043.87 3058.36 1050.76 3056.54 1058.38 C 3055.08 1064.42 3054.74 1070.66 3054.80 1076.86 C 3061.43 1071.52 3067.62 1065.66 3073.96 1059.97 C 3081.49 1053.23 3092.41 1050.36 3102.25 1052.87 C 3107.97 1054.71 3113.28 1057.67 3118.36 1060.89 C 3111.62 1066.75 3104.20 1071.71 3097.02 1076.97 C 3084.69 1086.78 3076.33 1100.39 3067.17 1112.98 C 3075.13 1129.00 3083.07 1145.09 3089.40 1161.85 C 3094.40 1175.99 3096.34 1191.09 3096.19 1206.05 C 3096.06 1220.88 3088.54 1234.90 3077.81 1244.83 C 3065.68 1255.94 3049.53 1262.99 3032.97 1262.98 C 3020.31 1262.91 3007.25 1258.85 2998.07 1249.85 C 2992.60 1244.69 2988.46 1237.73 2988.12 1230.09 C 2987.71 1220.60 2989.42 1211.16 2991.88 1202.04 C 3000.89 1170.26 3015.53 1140.50 3030.55 1111.21 C 3026.82 1102.92 3023.37 1094.52 3019.82 1086.16 C 3014.97 1074.68 3012.65 1061.89 3014.67 1049.50 C 3017.54 1032.67 3025.05 1016.35 3037.32 1004.30 M 3032.16 1029.90 C 3034.15 1027.04 3035.96 1024.02 3037.14 1020.72 C 3034.70 1023.29 3033.36 1026.62 3032.16 1029.90 M 3041.76 1033.51 C 3044.06 1031.11 3045.70 1028.10 3046.08 1024.76 C 3044.28 1027.48 3042.83 1030.43 3041.76 1033.51 M 3051.09 1032.07 C 3048.39 1037.58 3046.34 1043.42 3044.94 1049.39 C 3051.30 1041.91 3054.32 1032.37 3059.01 1023.87 C 3055.84 1026.02 3052.72 1028.51 3051.09 1032.07 M 3035.63 1148.62 C 3028.60 1163.89 3023.45 1179.92 3017.71 1195.69 C 3013.83 1206.07 3011.67 1217.10 3011.29 1228.17 C 3013.61 1217.72 3015.76 1207.20 3019.26 1197.07 C 3025.81 1176.87 3034.77 1157.58 3042.51 1137.84 C 3039.29 1140.76 3037.42 1144.75 3035.63 1148.62 M 3044.50 1157.44 C 3036.42 1176.66 3028.76 1196.14 3023.47 1216.35 C 3021.48 1224.21 3019.81 1232.97 3023.58 1240.60 C 3029.60 1239.76 3034.44 1235.75 3038.80 1231.81 C 3049.16 1221.78 3054.14 1207.26 3054.88 1193.08 C 3055.26 1178.78 3051.47 1164.84 3048.16 1151.06 C 3046.74 1153.07 3045.45 1155.17 3044.50 1157.44 M 3014.82 1162.00 C 3011.61 1170.85 3007.58 1179.42 3004.96 1188.48 C 3009.53 1180.23 3012.60 1171.15 3014.82 1162.00 M 3075.44 1229.89 C 3080.13 1223.29 3084.40 1215.44 3083.20 1207.05 C 3079.45 1214.17 3075.90 1221.73 3075.44 1229.89 M 3069.11 1219.99 C 3070.73 1217.77 3071.79 1215.18 3071.98 1212.43 C 3070.46 1214.70 3069.58 1217.31 3069.11 1219.99 Z" />
<path fill="#000000" opacity="1.00" d=" M 3412.94 1002.96 C 3415.30 1000.67 3417.88 998.33 3421.14 997.41 C 3423.63 996.62 3426.22 997.61 3428.61 998.43 C 3436.99 1001.46 3444.89 1006.42 3450.39 1013.55 C 3453.56 1017.62 3453.48 1023.22 3452.18 1027.99 C 3447.66 1044.72 3440.83 1060.68 3434.95 1076.95 C 3418.78 1120.58 3403.82 1164.77 3393.03 1210.08 C 3390.83 1219.92 3388.81 1229.88 3388.49 1239.99 C 3388.39 1244.15 3388.69 1248.93 3391.90 1252.00 C 3392.81 1253.23 3394.50 1254.09 3394.95 1255.65 C 3394.43 1257.56 3393.34 1260.01 3391.06 1260.10 C 3381.82 1260.84 3371.84 1258.47 3365.09 1251.84 C 3359.02 1246.14 3355.75 1238.13 3354.24 1230.09 C 3350.62 1210.14 3353.02 1189.68 3357.48 1170.08 C 3363.29 1142.90 3373.08 1116.85 3381.13 1090.31 C 3385.62 1076.40 3392.20 1063.28 3396.86 1049.44 C 3389.39 1054.31 3384.16 1061.71 3378.21 1068.21 C 3355.23 1095.62 3336.47 1126.22 3317.79 1156.63 C 3307.61 1173.00 3297.29 1189.36 3285.26 1204.45 C 3281.91 1208.29 3278.60 1212.72 3273.60 1214.42 C 3266.71 1216.11 3259.48 1213.91 3253.57 1210.35 C 3245.33 1205.31 3238.49 1196.84 3237.82 1186.92 C 3237.32 1178.92 3238.43 1170.92 3239.63 1163.03 C 3243.66 1137.88 3250.82 1113.40 3257.62 1088.91 C 3260.47 1078.52 3263.53 1068.20 3266.60 1057.88 C 3269.87 1046.42 3273.64 1034.97 3274.67 1023.03 C 3275.13 1017.97 3274.55 1012.88 3273.10 1008.03 C 3275.18 1007.08 3277.42 1005.32 3279.85 1006.41 C 3294.01 1011.19 3305.56 1023.95 3307.57 1038.94 C 3308.92 1049.03 3307.15 1059.17 3305.51 1069.11 C 3302.05 1088.73 3296.74 1107.97 3291.32 1127.12 C 3286.59 1142.88 3280.92 1158.35 3276.54 1174.22 C 3281.89 1168.23 3286.15 1161.39 3290.96 1154.97 C 3311.61 1126.65 3331.19 1097.52 3353.55 1070.49 C 3364.96 1056.61 3376.86 1043.13 3388.49 1029.44 C 3396.33 1020.33 3404.38 1011.40 3412.94 1002.96 M 3390.97 1031.98 C 3377.58 1046.96 3364.11 1061.88 3351.69 1077.68 C 3340.65 1091.50 3330.80 1106.20 3320.33 1120.44 C 3316.16 1126.04 3312.31 1131.88 3309.08 1138.08 C 3314.36 1132.52 3318.97 1126.37 3322.78 1119.71 C 3333.85 1102.23 3346.60 1085.86 3360.38 1070.44 C 3372.67 1057.05 3384.90 1043.59 3396.45 1029.54 C 3400.71 1023.92 3405.96 1018.97 3409.30 1012.70 C 3402.42 1018.34 3397.11 1025.60 3390.97 1031.98 M 3434.30 1037.31 C 3416.99 1076.61 3403.81 1117.57 3392.29 1158.89 C 3390.02 1167.60 3387.13 1176.15 3385.48 1185.01 C 3396.02 1161.23 3400.03 1135.26 3408.98 1110.92 C 3416.00 1089.65 3424.96 1069.11 3433.20 1048.30 C 3436.30 1039.75 3440.24 1031.42 3442.08 1022.47 C 3438.44 1026.81 3436.70 1032.28 3434.30 1037.31 M 3411.68 1042.54 C 3409.72 1047.07 3407.22 1051.40 3405.99 1056.21 C 3409.94 1048.71 3413.20 1040.85 3417.39 1033.47 C 3417.41 1033.45 3417.44 1033.39 3417.45 1033.37 C 3419.09 1030.30 3420.62 1027.16 3421.79 1023.88 C 3417.39 1029.48 3414.68 1036.14 3411.68 1042.54 M 3386.69 1052.04 C 3387.79 1051.48 3389.23 1051.23 3390.14 1050.23 C 3394.18 1045.78 3399.13 1041.83 3401.05 1035.90 C 3396.17 1041.19 3391.07 1046.33 3386.69 1052.04 M 3389.21 1042.33 C 3388.64 1043.77 3389.08 1044.20 3390.52 1043.60 C 3391.01 1042.13 3390.57 1041.71 3389.21 1042.33 M 3379.67 1053.51 C 3363.30 1071.73 3348.22 1091.08 3334.09 1111.08 C 3331.78 1114.52 3328.49 1117.69 3328.38 1122.12 C 3333.75 1115.88 3338.13 1108.84 3343.81 1102.84 C 3343.21 1104.56 3342.49 1106.24 3342.00 1108.00 C 3349.18 1105.45 3351.45 1097.30 3355.66 1091.70 C 3361.81 1085.98 3366.33 1078.84 3371.20 1072.07 C 3374.83 1066.98 3379.63 1062.89 3383.47 1057.99 C 3383.25 1057.60 3382.83 1056.81 3382.62 1056.41 C 3377.33 1062.45 3372.64 1069.30 3365.72 1073.60 C 3372.18 1062.68 3381.68 1054.01 3389.13 1043.82 C 3385.47 1046.53 3382.73 1050.20 3379.67 1053.51 M 3323.88 1126.40 C 3323.34 1128.02 3323.90 1128.56 3325.56 1128.03 C 3326.01 1126.39 3325.45 1125.84 3323.88 1126.40 M 3318.89 1133.38 C 3318.36 1135.00 3318.92 1135.54 3320.58 1135.00 C 3321.01 1133.35 3320.45 1132.81 3318.89 1133.38 M 3315.63 1137.55 C 3315.35 1137.85 3314.80 1138.44 3314.53 1138.73 C 3315.78 1143.02 3319.64 1136.90 3315.63 1137.55 M 3381.20 1202.28 C 3383.33 1199.19 3383.54 1195.40 3383.63 1191.78 C 3382.47 1195.19 3381.51 1198.68 3381.20 1202.28 Z" />
<path fill="#000000" opacity="1.00" d=" M 2144.23 1024.93 C 2151.62 1023.78 2158.15 1028.16 2164.05 1031.99 C 2176.76 1040.70 2184.97 1055.54 2185.05 1071.02 C 2185.92 1085.48 2179.62 1099.45 2170.03 1110.01 C 2161.25 1120.00 2149.92 1127.45 2137.86 1132.88 C 2127.06 1137.69 2115.34 1140.58 2103.49 1140.63 C 2101.34 1147.57 2102.01 1154.94 2102.19 1162.10 C 2102.51 1168.85 2103.46 1175.93 2107.23 1181.70 C 2110.12 1185.54 2115.56 1183.66 2119.38 1182.48 C 2127.14 1179.93 2131.40 1172.47 2135.24 1165.82 C 2135.60 1171.58 2131.41 1175.89 2129.15 1180.78 C 2134.18 1177.61 2136.09 1171.78 2139.36 1167.13 C 2141.51 1171.47 2138.69 1175.77 2136.48 1179.39 C 2138.18 1179.81 2140.04 1180.14 2140.88 1181.97 C 2142.14 1179.89 2143.66 1177.98 2145.48 1176.36 C 2146.45 1174.08 2147.56 1171.87 2148.92 1169.80 C 2148.76 1176.35 2146.06 1182.84 2141.33 1187.41 C 2135.38 1193.12 2127.25 1196.56 2118.99 1196.62 C 2107.81 1196.83 2096.17 1194.62 2086.87 1188.13 C 2075.36 1180.16 2068.17 1166.86 2066.39 1153.12 C 2063.88 1133.68 2067.91 1113.78 2076.07 1096.09 C 2082.25 1082.70 2089.70 1069.63 2100.11 1059.05 C 2114.23 1045.19 2135.76 1040.27 2154.77 1045.09 C 2151.24 1038.38 2147.28 1031.88 2144.23 1024.93 M 2128.49 1080.61 C 2118.48 1091.23 2111.53 1104.67 2108.50 1118.94 C 2121.24 1116.34 2131.38 1107.26 2139.95 1097.99 C 2148.28 1088.26 2156.27 1076.79 2156.43 1063.47 C 2145.67 1066.27 2136.10 1072.60 2128.49 1080.61 M 2105.77 1091.74 C 2102.43 1097.02 2099.74 1102.84 2099.10 1109.13 C 2102.98 1098.60 2110.71 1090.12 2114.96 1079.79 C 2111.19 1083.18 2108.48 1087.51 2105.77 1091.74 M 2164.34 1102.25 C 2169.07 1097.93 2171.71 1091.92 2173.82 1085.99 C 2170.30 1091.19 2166.74 1096.43 2164.34 1102.25 Z" />
<path fill="#000000" opacity="1.00" d=" M 2832.13 1025.32 C 2834.31 1025.08 2836.64 1024.31 2838.85 1025.15 C 2854.58 1030.73 2867.95 1043.99 2871.64 1060.55 C 2874.72 1073.46 2872.76 1087.57 2865.96 1099.01 C 2857.67 1113.11 2844.47 1123.81 2829.89 1130.92 C 2817.86 1136.95 2804.57 1140.47 2791.11 1140.80 C 2789.62 1147.43 2789.95 1154.26 2790.08 1161.00 C 2790.25 1167.45 2791.09 1174.08 2794.04 1179.92 C 2795.02 1181.75 2796.51 1183.91 2798.86 1183.94 C 2806.65 1184.19 2814.29 1179.92 2818.53 1173.44 C 2820.09 1170.96 2821.41 1168.35 2823.06 1165.92 C 2823.54 1171.64 2819.28 1175.86 2817.15 1180.74 C 2822.45 1177.81 2823.32 1171.11 2827.83 1167.54 C 2828.89 1171.94 2826.59 1175.91 2824.39 1179.52 C 2825.46 1179.70 2826.57 1179.90 2827.72 1180.11 C 2827.97 1180.64 2828.49 1181.70 2828.74 1182.23 C 2831.59 1178.18 2834.70 1174.36 2836.89 1169.88 C 2836.63 1177.79 2832.64 1185.55 2826.12 1190.09 C 2819.56 1195.04 2811.17 1197.16 2803.03 1196.62 C 2793.57 1196.31 2783.99 1194.06 2775.97 1188.91 C 2765.87 1182.45 2758.80 1171.81 2755.79 1160.30 C 2751.17 1141.81 2753.97 1122.19 2760.51 1104.52 C 2766.70 1088.58 2774.98 1073.20 2786.57 1060.52 C 2800.62 1045.60 2823.05 1040.01 2842.72 1045.14 C 2839.14 1038.56 2835.49 1032.01 2832.13 1025.32 M 2823.88 1073.84 C 2809.72 1084.98 2800.18 1101.43 2796.42 1118.96 C 2802.54 1117.72 2808.30 1115.03 2813.26 1111.23 C 2823.31 1103.99 2831.77 1094.61 2838.09 1083.97 C 2841.87 1077.80 2844.12 1070.72 2844.42 1063.48 C 2836.94 1065.45 2829.87 1068.94 2823.88 1073.84 M 2787.02 1109.29 C 2790.70 1098.62 2798.65 1090.24 2802.84 1079.82 C 2795.21 1088.00 2788.43 1097.95 2787.02 1109.29 M 2861.67 1086.09 C 2858.14 1091.28 2854.68 1096.57 2852.19 1102.35 C 2856.87 1097.99 2859.61 1092.04 2861.67 1086.09 Z" />
<path fill="#000000" opacity="1.00" d=" M 3194.88 1025.30 C 3200.80 1023.47 3206.32 1026.97 3211.32 1029.72 C 3221.19 1035.62 3229.27 1044.79 3233.09 1055.71 C 3236.39 1065.75 3236.77 1076.80 3233.96 1087.00 C 3229.89 1101.02 3219.90 1112.64 3208.46 1121.35 C 3192.77 1132.83 3173.77 1140.52 3154.16 1140.64 C 3152.31 1146.91 3152.71 1153.51 3152.85 1159.96 C 3153.03 1166.79 3153.74 1173.84 3156.93 1180.00 C 3157.88 1181.93 3159.53 1184.03 3161.96 1183.95 C 3168.22 1184.02 3174.45 1181.28 3178.74 1176.73 C 3181.86 1173.51 3183.58 1169.29 3186.07 1165.62 C 3186.32 1171.21 3182.54 1175.55 3180.11 1180.21 C 3185.31 1177.66 3186.68 1171.48 3190.11 1167.25 C 3192.17 1171.57 3189.44 1175.79 3187.24 1179.41 C 3188.90 1179.84 3190.76 1180.18 3191.78 1181.81 C 3194.83 1178.09 3197.49 1174.12 3199.76 1169.87 C 3199.50 1179.29 3193.68 1188.09 3185.36 1192.38 C 3175.59 1198.09 3163.62 1197.22 3152.99 1194.90 C 3140.26 1192.07 3129.25 1183.28 3123.17 1171.83 C 3117.54 1161.55 3115.97 1149.58 3116.48 1138.01 C 3117.01 1117.38 3124.81 1097.69 3135.09 1080.06 C 3141.66 1069.09 3149.42 1058.23 3160.58 1051.53 C 3173.89 1043.39 3190.46 1041.38 3205.53 1045.12 C 3202.00 1038.50 3198.30 1031.97 3194.88 1025.30 M 3179.80 1080.02 C 3169.46 1090.73 3162.34 1104.43 3159.24 1118.98 C 3164.90 1117.79 3170.25 1115.36 3174.98 1112.02 C 3185.31 1104.80 3194.08 1095.34 3200.56 1084.54 C 3204.55 1078.23 3207.00 1070.95 3207.17 1063.46 C 3196.67 1066.19 3187.32 1072.31 3179.80 1080.02 M 3149.45 1110.49 C 3150.26 1108.61 3150.96 1106.69 3151.80 1104.82 C 3155.47 1096.03 3162.26 1088.91 3165.57 1079.93 C 3157.55 1088.30 3151.07 1098.83 3149.45 1110.49 M 3215.09 1102.21 C 3219.57 1098.14 3222.30 1092.53 3224.11 1086.84 C 3220.60 1091.64 3217.43 1096.73 3215.09 1102.21 Z" />
<path fill="#000000" opacity="1.00" d=" M 2575.90 1029.75 C 2586.74 1025.45 2599.57 1025.15 2610.00 1030.82 C 2616.34 1034.24 2622.24 1038.58 2627.40 1043.62 C 2629.73 1045.52 2629.04 1048.60 2628.76 1051.22 C 2623.04 1050.31 2617.67 1047.55 2611.88 1047.32 C 2598.14 1051.32 2586.82 1060.99 2577.56 1071.59 C 2564.90 1085.74 2555.44 1102.43 2547.72 1119.69 C 2544.79 1126.36 2541.04 1132.71 2539.01 1139.74 C 2545.94 1135.71 2551.68 1130.05 2557.66 1124.78 C 2567.17 1116.26 2576.69 1107.74 2586.20 1099.21 C 2594.70 1091.11 2604.89 1084.23 2610.47 1073.57 C 2613.24 1068.07 2618.44 1064.41 2623.90 1061.87 C 2623.97 1063.29 2624.06 1064.73 2624.18 1066.18 C 2626.19 1065.88 2628.24 1065.78 2630.33 1065.88 C 2630.20 1067.33 2630.10 1068.80 2630.01 1070.28 C 2631.59 1069.33 2633.26 1069.70 2634.95 1070.27 C 2630.91 1082.62 2626.19 1094.74 2622.10 1107.08 C 2627.88 1095.40 2631.83 1082.91 2637.92 1071.39 C 2639.67 1072.67 2642.56 1073.51 2642.73 1076.10 C 2643.01 1079.43 2641.95 1082.67 2640.87 1085.78 C 2632.53 1109.11 2624.18 1132.45 2617.17 1156.22 C 2613.96 1167.63 2610.27 1179.03 2609.31 1190.91 C 2612.09 1188.88 2614.87 1186.77 2617.16 1184.17 C 2620.71 1180.24 2623.52 1175.44 2628.30 1172.81 C 2622.28 1183.27 2612.27 1190.98 2607.31 1202.13 C 2613.90 1196.07 2619.24 1188.83 2624.77 1181.83 C 2628.39 1177.09 2632.36 1172.60 2635.62 1167.60 C 2637.74 1164.36 2640.00 1161.15 2643.08 1158.75 C 2633.07 1178.42 2615.82 1193.32 2606.05 1213.16 C 2611.70 1207.78 2616.17 1201.31 2621.74 1195.84 C 2620.45 1198.68 2618.95 1201.41 2617.46 1204.15 C 2618.94 1203.45 2620.62 1203.01 2621.99 1202.01 C 2624.98 1198.39 2625.11 1193.37 2627.44 1189.39 C 2629.18 1186.85 2632.63 1186.02 2634.11 1183.23 C 2636.97 1177.84 2640.80 1173.04 2643.55 1167.58 C 2645.72 1163.56 2647.21 1159.22 2649.13 1155.08 L 2650.38 1155.62 C 2654.09 1148.54 2657.78 1141.33 2662.92 1135.16 C 2656.33 1151.67 2647.86 1167.38 2638.63 1182.55 C 2627.69 1199.79 2616.31 1217.19 2600.81 1230.72 C 2595.42 1228.76 2589.94 1226.90 2584.98 1224.00 C 2581.01 1221.50 2580.21 1216.34 2580.05 1212.04 C 2579.02 1182.47 2586.84 1153.68 2592.01 1124.82 C 2585.57 1131.09 2579.37 1137.61 2573.13 1144.07 C 2565.04 1152.30 2558.04 1161.67 2548.90 1168.81 C 2543.21 1173.29 2536.49 1177.19 2529.05 1177.28 C 2520.00 1177.27 2511.36 1173.28 2504.43 1167.66 C 2498.86 1163.11 2494.27 1156.46 2494.74 1148.98 C 2495.25 1132.62 2501.63 1117.16 2508.54 1102.57 C 2516.94 1085.72 2527.34 1069.83 2539.67 1055.60 C 2549.44 1044.23 2562.01 1035.35 2575.90 1029.75 M 2544.32 1094.42 C 2535.04 1110.22 2526.35 1126.86 2523.19 1145.10 C 2528.09 1134.24 2532.12 1122.99 2537.53 1112.37 C 2544.94 1096.58 2554.36 1081.82 2565.02 1068.04 C 2556.10 1075.03 2550.33 1085.02 2544.32 1094.42 M 2528.46 1087.46 C 2524.49 1094.61 2520.31 1101.69 2517.05 1109.20 C 2521.05 1103.26 2524.08 1096.74 2527.60 1090.52 C 2530.79 1084.50 2534.93 1079.05 2538.10 1073.02 C 2534.19 1077.33 2531.40 1082.48 2528.46 1087.46 M 2623.44 1080.09 C 2621.82 1080.50 2621.87 1083.85 2623.89 1083.10 C 2625.64 1082.65 2625.59 1079.21 2623.44 1080.09 Z" />
<path fill="#000000" opacity="1.00" d=" M 2416.29 1034.36 C 2429.20 1029.14 2444.55 1031.20 2456.00 1038.98 C 2465.51 1045.29 2473.59 1053.78 2479.26 1063.69 C 2481.29 1067.14 2482.93 1070.94 2483.13 1075.00 C 2484.20 1085.66 2477.24 1095.41 2479.24 1106.13 C 2479.96 1110.46 2481.74 1114.53 2482.89 1118.77 C 2474.78 1117.54 2466.56 1114.26 2461.26 1107.75 C 2455.20 1100.78 2453.05 1091.12 2453.93 1082.08 C 2454.44 1075.47 2456.68 1069.17 2459.03 1063.03 C 2454.21 1063.14 2448.89 1062.68 2444.78 1065.67 C 2431.06 1075.27 2421.22 1089.55 2414.83 1104.86 C 2408.96 1118.87 2405.74 1133.86 2404.27 1148.94 C 2403.52 1160.05 2401.96 1171.32 2403.69 1182.40 C 2413.80 1181.63 2423.77 1178.68 2432.50 1173.47 C 2440.85 1169.06 2448.05 1162.67 2456.83 1159.03 C 2460.12 1161.64 2463.47 1164.19 2466.93 1166.61 C 2466.65 1167.52 2466.08 1169.35 2465.79 1170.26 C 2466.88 1169.30 2467.95 1168.30 2469.09 1167.36 C 2470.61 1168.27 2472.15 1169.20 2473.72 1170.13 C 2471.59 1174.58 2469.28 1179.13 2465.52 1182.45 C 2458.19 1188.86 2449.66 1193.72 2440.91 1197.91 C 2431.57 1202.10 2421.28 1205.39 2410.95 1203.86 C 2399.15 1202.51 2388.53 1196.02 2380.28 1187.73 C 2371.33 1178.58 2365.89 1166.49 2363.38 1154.04 C 2357.66 1163.14 2352.44 1172.54 2346.48 1181.49 C 2332.92 1201.34 2318.79 1220.84 2303.14 1239.11 C 2301.00 1241.57 2298.39 1244.07 2294.96 1244.31 C 2285.92 1245.38 2275.77 1243.60 2269.29 1236.76 C 2265.18 1232.61 2263.66 1226.67 2263.48 1221.00 C 2263.07 1189.66 2270.58 1158.95 2278.89 1128.95 C 2284.08 1108.57 2289.90 1088.11 2290.92 1066.99 C 2291.15 1063.13 2289.08 1059.46 2289.60 1055.64 C 2291.35 1053.59 2294.31 1052.81 2296.92 1053.36 C 2305.78 1055.06 2314.45 1058.21 2321.97 1063.27 C 2326.95 1066.50 2331.37 1070.83 2333.88 1076.29 C 2338.30 1085.13 2337.86 1095.35 2337.17 1104.93 C 2336.26 1117.18 2331.91 1128.74 2328.53 1140.43 C 2323.00 1158.61 2317.66 1176.85 2312.25 1195.06 C 2321.33 1184.97 2328.80 1173.58 2336.21 1162.25 C 2343.30 1151.39 2350.48 1140.59 2357.85 1129.92 C 2360.19 1126.32 2363.69 1123.28 2364.64 1118.93 C 2370.03 1093.19 2380.68 1068.01 2398.27 1048.21 C 2403.44 1042.66 2409.13 1037.21 2416.29 1034.36 M 2397.68 1066.34 C 2402.52 1062.77 2406.11 1057.80 2409.24 1052.73 C 2404.14 1056.00 2400.64 1061.17 2397.68 1066.34 M 2408.46 1068.41 C 2411.67 1066.21 2414.57 1063.53 2416.82 1060.33 C 2412.94 1061.60 2409.90 1064.62 2408.46 1068.41 M 2419.57 1068.55 C 2412.47 1077.38 2407.22 1087.58 2403.01 1098.06 C 2411.33 1085.38 2419.67 1072.63 2430.08 1061.52 C 2426.00 1062.84 2422.24 1065.17 2419.57 1068.55 M 2347.42 1149.38 C 2340.41 1160.06 2333.53 1170.82 2326.73 1181.62 C 2321.92 1189.36 2315.10 1195.74 2311.22 1204.07 C 2313.89 1202.12 2316.08 1199.61 2317.87 1196.83 C 2331.92 1175.65 2346.31 1154.70 2360.84 1133.85 C 2362.83 1131.34 2363.08 1128.06 2363.42 1125.01 C 2357.30 1132.58 2352.92 1141.37 2347.42 1149.38 M 2308.97 1148.93 C 2305.84 1162.33 2301.46 1175.39 2297.54 1188.57 C 2294.38 1199.25 2290.99 1210.01 2290.22 1221.18 C 2291.96 1216.56 2292.94 1211.72 2294.19 1206.95 C 2298.29 1191.62 2302.64 1176.35 2307.03 1161.10 C 2309.67 1151.28 2312.97 1141.62 2314.97 1131.65 C 2312.00 1137.02 2310.38 1142.99 2308.97 1148.93 M 2336.66 1179.46 C 2338.78 1178.04 2340.41 1176.05 2341.56 1173.78 C 2339.09 1174.81 2337.02 1176.68 2336.66 1179.46 Z" />
<path fill="#000000" opacity="1.00" d=" M 1451.38 1228.41 C 1461.65 1223.83 1472.72 1220.97 1483.97 1220.25 C 1516.39 1219.27 1549.91 1225.11 1578.06 1241.88 C 1588.02 1247.63 1596.96 1254.91 1606.06 1261.90 C 1617.35 1270.86 1628.67 1280.61 1635.38 1293.63 C 1638.26 1299.24 1642.23 1305.45 1640.02 1312.00 C 1626.52 1351.82 1620.67 1393.97 1620.67 1435.94 C 1620.44 1450.02 1622.86 1463.98 1623.08 1478.05 C 1623.09 1483.39 1623.27 1488.85 1621.79 1494.05 C 1620.73 1498.07 1618.80 1501.78 1616.88 1505.45 C 1608.90 1500.85 1600.28 1497.42 1592.62 1492.29 C 1586.02 1487.89 1581.41 1481.26 1577.37 1474.59 C 1568.36 1459.98 1563.04 1443.23 1561.33 1426.20 C 1558.88 1403.20 1559.11 1380.05 1559.24 1356.96 C 1559.48 1340.70 1560.50 1324.40 1563.56 1308.41 C 1565.25 1297.88 1568.96 1287.82 1574.07 1278.49 C 1566.37 1274.42 1557.76 1271.79 1548.99 1272.24 C 1530.14 1272.54 1512.16 1280.24 1497.01 1291.09 C 1470.14 1308.60 1448.34 1332.58 1428.47 1357.48 C 1379.89 1419.27 1347.95 1494.02 1336.91 1571.84 C 1333.22 1597.07 1332.30 1622.64 1333.41 1648.09 C 1334.13 1663.18 1334.90 1678.34 1337.88 1693.20 C 1341.66 1712.25 1347.69 1731.25 1358.72 1747.44 C 1362.62 1753.02 1366.80 1758.64 1372.51 1762.52 C 1382.48 1769.37 1395.24 1771.56 1407.08 1769.47 C 1421.45 1766.99 1434.68 1760.35 1447.23 1753.17 C 1472.95 1737.97 1496.18 1718.13 1513.89 1693.98 C 1522.25 1682.43 1529.37 1668.69 1528.13 1654.01 C 1527.26 1639.31 1518.14 1627.15 1512.32 1614.12 C 1512.93 1613.11 1513.56 1612.11 1514.21 1611.14 C 1525.18 1612.12 1535.17 1617.18 1544.74 1622.28 C 1562.34 1631.88 1577.78 1646.64 1585.58 1665.36 C 1592.37 1681.69 1590.17 1700.42 1583.44 1716.39 C 1572.51 1742.40 1553.31 1763.94 1532.29 1782.32 C 1510.92 1800.29 1485.86 1814.10 1458.94 1821.66 C 1439.96 1826.82 1420.06 1828.49 1400.48 1826.68 C 1386.07 1825.30 1371.72 1822.25 1358.40 1816.48 C 1328.66 1803.63 1303.24 1781.63 1285.11 1754.88 C 1275.39 1740.78 1267.68 1725.38 1261.53 1709.43 C 1253.90 1689.69 1248.28 1669.16 1245.29 1648.20 C 1239.13 1604.31 1240.37 1559.41 1248.85 1515.90 C 1263.02 1442.76 1294.76 1372.73 1342.24 1315.15 C 1360.64 1292.71 1381.67 1272.38 1405.04 1255.15 C 1419.44 1244.57 1434.91 1235.39 1451.38 1228.41 M 1400.81 1344.70 C 1370.16 1378.03 1347.68 1418.33 1333.01 1461.06 C 1326.77 1479.43 1321.25 1498.16 1318.05 1517.31 C 1320.79 1511.04 1322.97 1504.55 1325.26 1498.11 C 1331.83 1478.95 1339.23 1460.06 1347.83 1441.72 C 1362.95 1409.49 1381.81 1379.17 1401.80 1349.77 C 1404.79 1345.26 1408.51 1341.06 1409.90 1335.70 C 1406.46 1338.26 1403.73 1341.59 1400.81 1344.70 M 1325.20 1374.26 C 1315.81 1390.10 1307.70 1406.79 1301.92 1424.29 C 1309.05 1414.70 1314.80 1404.18 1321.13 1394.07 C 1332.07 1375.73 1343.38 1357.50 1352.07 1337.96 C 1341.52 1348.74 1333.14 1361.48 1325.20 1374.26 M 1361.95 1363.06 C 1359.36 1365.44 1356.98 1368.04 1354.92 1370.89 C 1344.56 1385.09 1336.06 1400.54 1328.24 1416.24 C 1325.37 1421.97 1322.70 1428.13 1323.24 1434.71 C 1326.71 1429.51 1329.30 1423.81 1332.38 1418.40 C 1342.25 1399.96 1352.46 1381.69 1361.95 1363.06 M 1299.70 1429.56 C 1298.27 1433.02 1297.15 1436.62 1296.44 1440.31 C 1299.49 1437.63 1300.23 1433.41 1299.70 1429.56 M 1313.90 1452.67 C 1314.40 1452.80 1315.38 1453.05 1315.88 1453.17 C 1316.49 1451.09 1317.12 1449.02 1317.72 1446.95 C 1316.37 1448.80 1315.11 1450.72 1313.90 1452.67 M 1311.19 1462.24 C 1309.70 1462.25 1309.20 1464.99 1310.94 1465.02 C 1312.39 1464.96 1312.89 1462.24 1311.19 1462.24 M 1528.02 1703.29 C 1531.88 1700.07 1535.97 1696.31 1535.95 1690.86 C 1532.83 1694.68 1530.18 1698.86 1528.02 1703.29 M 1543.02 1738.71 C 1549.93 1735.64 1554.25 1729.10 1557.76 1722.71 C 1561.83 1714.91 1565.08 1706.51 1566.05 1697.71 C 1557.87 1711.08 1550.84 1725.13 1543.02 1738.71 M 1542.94 1710.19 C 1545.21 1708.00 1547.03 1705.40 1548.48 1702.61 C 1545.24 1703.86 1543.74 1707.04 1542.94 1710.19 Z" />
<path fill="#000000" opacity="1.00" d=" M 1996.34 1453.41 C 1998.18 1450.57 2000.18 1446.95 2003.96 1446.62 C 2007.05 1446.57 2009.67 1448.45 2012.31 1449.84 C 2011.27 1452.12 2010.30 1454.42 2009.48 1456.80 C 2011.95 1454.25 2014.11 1451.43 2016.20 1448.57 C 2017.10 1449.63 2017.89 1450.88 2019.04 1451.78 C 2020.03 1451.67 2022.01 1451.47 2022.99 1451.37 C 2022.30 1453.59 2021.58 1455.80 2020.89 1458.03 C 2022.03 1457.04 2023.18 1456.05 2024.36 1455.09 C 2026.40 1455.81 2028.45 1456.53 2030.52 1457.28 C 2030.51 1458.99 2030.49 1460.70 2030.54 1462.46 C 2035.11 1460.21 2038.73 1464.41 2041.80 1467.22 C 2044.74 1470.23 2042.86 1474.56 2041.88 1478.01 C 2036.24 1495.21 2030.07 1512.23 2024.27 1529.37 C 2032.98 1529.86 2041.32 1526.63 2050.00 1526.53 C 2056.75 1526.32 2063.53 1526.07 2070.28 1526.64 C 2077.49 1527.40 2082.65 1533.43 2085.57 1539.62 C 2086.79 1542.51 2090.27 1542.79 2092.83 1543.91 C 2088.85 1547.81 2084.20 1551.05 2078.96 1552.98 C 2057.74 1561.12 2034.92 1562.98 2012.68 1566.58 C 2004.93 1592.31 1998.03 1618.31 1992.43 1644.60 C 1987.58 1667.46 1983.45 1690.47 1979.25 1713.46 C 1970.67 1761.91 1961.92 1810.65 1961.55 1860.01 C 1961.25 1875.17 1962.78 1890.39 1966.54 1905.10 C 1967.14 1908.15 1968.41 1911.75 1966.43 1914.58 C 1962.86 1917.61 1957.23 1918.92 1953.14 1916.15 C 1952.32 1917.41 1951.52 1918.69 1950.74 1919.99 C 1946.31 1917.93 1941.68 1916.37 1937.03 1914.93 C 1929.45 1912.45 1922.08 1907.78 1918.63 1900.32 C 1909.71 1883.02 1910.13 1862.96 1910.00 1844.02 C 1909.93 1785.74 1918.58 1727.95 1927.24 1670.46 C 1928.85 1660.49 1929.62 1650.40 1931.65 1640.50 C 1934.70 1624.28 1938.63 1608.23 1941.19 1591.92 C 1941.86 1587.49 1943.74 1583.23 1943.24 1578.69 C 1935.92 1576.77 1928.40 1578.84 1921.03 1578.05 C 1915.24 1576.22 1910.18 1572.41 1906.18 1567.92 C 1904.70 1566.48 1904.94 1564.27 1904.59 1562.44 C 1903.06 1561.55 1901.54 1560.66 1900.04 1559.80 C 1901.18 1557.00 1901.68 1553.14 1905.01 1552.10 C 1916.93 1547.41 1930.01 1547.59 1942.30 1544.35 C 1944.06 1543.99 1945.15 1542.44 1946.25 1541.14 C 1957.00 1526.70 1966.84 1511.41 1973.81 1494.75 C 1979.52 1480.05 1988.27 1466.87 1996.34 1453.41 M 2009.97 1508.06 C 2006.47 1516.63 2002.81 1525.21 2000.85 1534.30 C 2002.36 1533.46 2004.65 1533.24 2005.23 1531.31 C 2011.00 1517.80 2014.64 1503.50 2019.86 1489.78 C 2014.55 1494.60 2012.66 1501.67 2009.97 1508.06 M 1989.44 1525.41 C 1989.43 1525.43 1989.41 1525.47 1989.41 1525.50 C 1988.26 1528.65 1987.64 1531.97 1987.21 1535.30 C 1988.10 1534.06 1989.15 1532.92 1989.86 1531.56 C 1989.86 1531.55 1989.87 1531.53 1989.88 1531.51 L 1990.04 1529.92 L 1990.93 1529.73 L 1991.34 1528.72 L 1990.82 1527.96 C 1991.68 1525.88 1991.78 1523.58 1992.04 1521.39 C 1991.11 1522.68 1990.06 1523.92 1989.44 1525.41 M 1989.05 1570.22 C 1986.17 1579.74 1983.46 1589.31 1980.99 1598.95 C 1974.13 1625.38 1969.69 1652.34 1964.70 1679.16 C 1959.59 1706.32 1955.73 1733.68 1951.96 1761.05 C 1948.36 1786.21 1945.80 1811.56 1945.50 1837.00 C 1945.42 1847.36 1944.56 1857.83 1946.20 1868.12 C 1948.66 1817.13 1953.79 1766.23 1962.31 1715.88 C 1970.45 1666.74 1980.96 1617.99 1993.49 1569.78 C 1991.98 1569.91 1990.51 1570.05 1989.05 1570.22 M 1975.65 1573.86 C 1973.20 1579.71 1971.61 1585.87 1970.02 1592.00 C 1962.73 1620.66 1957.24 1649.73 1952.45 1678.90 C 1948.60 1702.56 1944.69 1726.24 1942.42 1750.12 C 1943.74 1745.31 1944.36 1740.36 1945.21 1735.46 C 1949.36 1710.25 1952.97 1684.94 1957.83 1659.85 C 1963.02 1631.03 1970.29 1602.64 1975.65 1573.86 M 1998.26 1580.14 C 1998.76 1580.67 1998.76 1580.67 1998.26 1580.14 M 1937.98 1685.02 C 1937.13 1692.02 1935.39 1699.05 1936.40 1706.14 C 1936.98 1702.11 1937.63 1698.11 1938.43 1694.13 C 1944.20 1662.40 1948.27 1630.35 1955.44 1598.89 C 1956.62 1593.22 1958.41 1587.65 1958.83 1581.85 C 1948.82 1615.55 1943.23 1650.32 1937.98 1685.02 M 1995.20 1594.38 C 1995.89 1592.14 1996.40 1589.85 1996.66 1587.54 C 1995.30 1589.56 1995.01 1591.98 1995.20 1594.38 M 1992.13 1603.26 C 1993.19 1601.18 1993.95 1598.95 1994.44 1596.67 C 1992.88 1598.52 1992.26 1600.87 1992.13 1603.26 M 1985.22 1630.38 C 1985.06 1630.81 1984.72 1631.67 1984.56 1632.10 C 1986.28 1635.61 1988.90 1628.61 1985.22 1630.38 M 1978.26 1664.15 C 1978.75 1664.71 1978.75 1664.71 1978.26 1664.15 M 1974.07 1686.22 C 1972.52 1689.23 1977.39 1686.32 1974.07 1686.22 M 1971.26 1703.09 C 1971.74 1703.61 1971.74 1703.61 1971.26 1703.09 M 1932.79 1723.18 C 1931.36 1734.70 1930.14 1746.25 1928.56 1757.76 C 1928.78 1757.76 1929.23 1757.76 1929.45 1757.76 C 1930.42 1742.94 1933.83 1728.37 1934.84 1713.58 C 1933.13 1716.49 1933.23 1719.93 1932.79 1723.18 M 1940.13 1764.56 C 1939.90 1766.43 1939.97 1768.34 1940.23 1770.24 C 1941.44 1768.44 1941.74 1766.22 1940.13 1764.56 Z" />
<path fill="#000000" opacity="1.00" d=" M 1015.69 1488.67 C 1024.45 1485.21 1034.83 1487.00 1042.23 1492.74 C 1054.30 1501.38 1060.82 1516.35 1060.59 1531.02 C 1060.40 1548.85 1053.94 1565.84 1046.99 1582.02 C 1039.09 1599.98 1029.12 1617.01 1017.72 1632.97 C 1006.64 1648.92 992.66 1662.48 979.82 1676.95 C 977.74 1679.14 976.71 1682.09 976.61 1685.09 C 976.01 1723.67 975.13 1762.38 978.75 1800.85 C 980.15 1812.50 981.04 1824.71 986.75 1835.21 C 990.15 1841.51 997.59 1843.42 1004.00 1845.08 C 1003.86 1847.35 1003.78 1850.46 1000.99 1851.08 C 988.86 1854.62 974.21 1852.31 965.66 1842.38 C 955.28 1830.14 951.12 1814.17 947.14 1798.98 C 942.00 1778.64 940.65 1757.65 937.53 1736.98 C 937.49 1735.23 935.72 1736.50 935.47 1737.46 C 927.39 1749.07 921.32 1762.13 911.66 1772.60 C 905.49 1779.37 898.39 1785.60 889.85 1789.17 C 879.34 1793.14 867.25 1792.57 856.99 1788.08 C 844.34 1781.84 835.98 1769.19 832.03 1755.97 C 825.63 1732.97 826.84 1707.87 835.72 1685.68 C 842.10 1669.38 852.76 1654.01 868.23 1645.23 C 881.58 1638.17 898.02 1638.63 911.86 1644.04 C 920.72 1647.45 928.76 1652.61 937.50 1656.29 C 944.04 1617.60 949.55 1577.85 967.13 1542.28 C 973.82 1528.11 982.74 1514.90 994.08 1504.04 C 1000.47 1497.92 1007.38 1492.01 1015.69 1488.67 M 1026.80 1510.81 C 1011.29 1528.43 1002.45 1550.71 995.90 1572.96 C 988.96 1596.86 985.53 1621.57 981.09 1646.01 C 988.77 1639.17 993.69 1629.98 1000.24 1622.16 C 1011.17 1607.79 1021.32 1592.78 1029.93 1576.91 C 1037.36 1562.82 1044.57 1548.09 1046.50 1532.10 C 1047.22 1521.96 1047.32 1510.72 1041.06 1502.12 C 1035.60 1503.58 1030.49 1506.46 1026.80 1510.81 M 1004.58 1524.52 C 999.64 1532.69 995.24 1541.25 992.04 1550.26 C 998.04 1540.98 1002.44 1530.75 1008.53 1521.51 C 1011.70 1516.41 1015.85 1512.03 1019.22 1507.08 C 1012.90 1511.51 1008.64 1518.10 1004.58 1524.52 M 1055.08 1532.52 C 1051.67 1539.30 1050.39 1546.90 1047.98 1554.07 C 1043.34 1570.67 1035.08 1585.91 1026.87 1600.96 C 1023.25 1607.73 1018.19 1613.55 1014.15 1620.05 C 1012.56 1622.67 1010.14 1624.99 1009.89 1628.22 C 1017.13 1618.59 1022.74 1607.70 1031.13 1598.94 C 1028.73 1607.48 1023.13 1614.60 1018.20 1621.82 C 1024.39 1619.37 1027.66 1612.97 1030.22 1607.23 C 1031.40 1602.35 1034.89 1598.64 1037.35 1594.40 C 1041.38 1587.78 1044.87 1580.84 1047.76 1573.65 C 1049.61 1568.95 1052.45 1564.67 1053.85 1559.80 C 1055.78 1553.33 1057.44 1546.72 1058.09 1540.00 C 1058.56 1537.09 1056.83 1534.60 1055.08 1532.52 M 1043.63 1553.88 C 1034.87 1574.65 1024.43 1594.76 1011.92 1613.53 L 1012.47 1613.82 C 1023.77 1597.21 1034.37 1580.03 1042.80 1561.76 C 1046.30 1554.00 1049.50 1545.85 1049.89 1537.25 C 1045.94 1541.87 1046.19 1548.51 1043.63 1553.88 M 989.29 1555.97 C 987.90 1556.09 987.34 1558.81 989.06 1558.83 C 990.46 1558.69 991.02 1555.94 989.29 1555.97 M 1010.12 1615.27 C 1008.62 1618.26 1013.45 1615.32 1010.12 1615.27 M 1008.04 1618.23 C 1006.41 1621.15 1011.37 1618.43 1008.04 1618.23 M 1010.67 1633.47 C 1013.22 1631.16 1014.84 1628.09 1016.04 1624.93 C 1013.96 1627.57 1012.07 1630.39 1010.67 1633.47 M 1004.49 1634.65 C 1006.39 1633.04 1008.48 1631.39 1009.13 1628.86 C 1006.34 1629.46 1005.69 1632.48 1004.49 1634.65 M 1005.13 1639.37 C 1003.81 1639.58 1003.26 1641.84 1004.83 1642.16 C 1006.81 1642.57 1007.45 1638.68 1005.13 1639.37 M 998.92 1642.08 C 996.10 1644.08 994.05 1646.92 992.76 1650.12 C 995.31 1647.86 997.65 1645.27 998.92 1642.08 M 897.38 1662.40 C 889.21 1670.35 882.84 1680.09 878.68 1690.69 C 871.70 1708.54 868.68 1727.94 870.11 1747.07 C 870.63 1757.37 872.18 1768.09 878.11 1776.81 C 882.90 1772.33 888.06 1768.11 891.67 1762.55 C 904.79 1744.57 917.97 1726.61 929.76 1707.71 C 932.21 1703.43 935.81 1699.28 935.74 1694.08 C 935.78 1688.18 935.63 1682.28 935.67 1676.39 C 930.27 1672.84 925.92 1668.04 921.78 1663.15 C 917.75 1658.39 911.17 1655.50 904.95 1656.89 C 901.91 1657.86 899.65 1660.26 897.38 1662.40 M 867.96 1685.02 C 865.39 1690.88 862.89 1696.79 860.74 1702.83 C 856.13 1715.70 855.27 1729.75 857.46 1743.21 C 859.79 1729.80 859.89 1716.08 862.75 1702.76 C 864.48 1694.96 868.23 1687.87 871.22 1680.53 C 869.86 1681.80 868.65 1683.25 867.96 1685.02 M 842.49 1697.01 C 839.62 1703.67 838.64 1710.97 838.39 1718.18 C 839.92 1711.15 841.08 1704.05 842.49 1697.01 M 849.10 1712.24 C 847.38 1712.67 847.15 1713.59 848.42 1714.99 C 847.94 1717.08 848.22 1719.27 848.34 1721.42 C 850.23 1714.63 851.83 1707.75 852.77 1700.77 C 851.14 1704.42 849.27 1708.17 849.10 1712.24 Z" />
<path fill="#000000" opacity="1.00" d=" M 1783.26 1513.12 C 1792.75 1510.50 1802.52 1514.37 1810.45 1519.48 C 1823.62 1527.79 1831.71 1542.59 1833.68 1557.83 C 1835.11 1569.88 1836.30 1581.98 1836.98 1594.11 C 1854.27 1604.53 1872.31 1614.05 1887.63 1627.36 C 1893.49 1632.25 1898.56 1638.31 1901.35 1645.50 C 1905.84 1657.33 1903.49 1670.38 1900.33 1682.24 C 1888.08 1723.39 1870.29 1762.99 1862.69 1805.45 C 1860.90 1817.53 1859.96 1830.56 1865.03 1842.01 C 1869.64 1844.47 1875.07 1844.83 1880.06 1846.29 C 1879.90 1847.68 1879.75 1849.08 1879.63 1850.51 C 1881.77 1848.69 1884.40 1847.74 1887.20 1847.48 C 1888.41 1851.26 1889.84 1855.79 1887.49 1859.45 C 1884.31 1864.04 1878.83 1866.38 1873.52 1867.42 C 1863.34 1869.24 1852.24 1868.32 1843.30 1862.76 C 1831.67 1855.52 1823.58 1843.50 1819.60 1830.54 C 1814.18 1813.33 1814.08 1794.79 1817.49 1777.18 C 1824.97 1738.84 1838.87 1702.19 1852.88 1665.86 C 1855.82 1657.48 1858.78 1648.98 1859.77 1640.11 C 1860.48 1634.34 1858.15 1628.02 1853.12 1624.85 C 1847.53 1621.24 1841.47 1618.41 1835.40 1615.71 C 1832.06 1642.60 1824.45 1669.04 1812.29 1693.30 C 1801.34 1715.55 1788.55 1736.89 1774.05 1757.02 C 1769.20 1763.43 1764.20 1769.85 1757.96 1774.99 C 1754.80 1777.56 1752.79 1781.14 1750.50 1784.44 C 1742.69 1795.65 1734.27 1806.60 1723.86 1815.55 C 1718.53 1813.56 1713.01 1811.86 1708.15 1808.86 C 1704.21 1806.38 1703.23 1801.33 1703.04 1797.02 C 1702.14 1767.35 1709.82 1738.44 1715.14 1709.49 C 1705.07 1719.63 1694.97 1729.77 1685.55 1740.52 C 1679.37 1747.39 1672.69 1754.02 1664.59 1758.59 C 1651.93 1766.04 1635.94 1760.39 1625.89 1751.10 C 1621.44 1746.93 1617.73 1741.31 1617.82 1735.01 C 1617.76 1724.17 1620.79 1713.60 1624.58 1703.54 C 1630.65 1687.35 1639.18 1672.17 1649.05 1658.01 C 1655.02 1649.47 1661.45 1641.20 1668.93 1633.94 C 1676.52 1626.50 1685.59 1620.71 1695.15 1616.15 C 1704.67 1611.59 1715.81 1610.05 1726.08 1612.84 C 1733.26 1614.79 1739.36 1619.28 1745.16 1623.78 C 1747.34 1625.55 1749.65 1627.27 1751.35 1629.57 C 1752.85 1631.43 1751.78 1633.94 1751.79 1636.12 C 1746.83 1635.10 1742.08 1633.24 1737.12 1632.31 C 1734.28 1631.62 1731.66 1633.21 1729.12 1634.19 C 1717.40 1639.23 1707.87 1648.08 1699.59 1657.60 C 1688.24 1670.58 1679.42 1685.59 1672.30 1701.25 C 1668.84 1708.93 1664.75 1716.35 1662.02 1724.35 C 1666.81 1721.92 1670.86 1718.34 1674.87 1714.84 C 1687.87 1703.19 1700.87 1691.55 1713.88 1679.90 C 1719.57 1674.65 1725.86 1669.88 1730.34 1663.47 C 1732.86 1659.94 1734.56 1655.81 1737.67 1652.71 C 1740.28 1650.05 1743.69 1648.43 1746.98 1646.75 C 1747.02 1648.08 1747.09 1649.42 1747.18 1650.79 C 1749.27 1650.70 1751.36 1650.69 1753.49 1650.79 C 1753.31 1652.32 1753.15 1653.87 1753.01 1655.44 C 1753.59 1655.10 1754.74 1654.43 1755.32 1654.09 C 1756.14 1654.43 1756.99 1654.80 1757.85 1655.19 C 1754.06 1667.61 1749.13 1679.64 1745.13 1691.98 C 1750.88 1680.28 1754.91 1667.82 1760.91 1656.24 C 1762.61 1657.52 1765.57 1658.26 1765.73 1660.83 C 1766.15 1665.37 1764.21 1669.63 1762.76 1673.82 C 1753.33 1700.28 1743.92 1726.79 1736.57 1753.92 C 1735.08 1759.57 1733.63 1765.27 1732.91 1771.09 C 1741.70 1762.67 1748.59 1752.53 1755.36 1742.47 C 1782.38 1700.17 1800.81 1652.47 1809.69 1603.08 C 1798.39 1594.85 1785.92 1588.04 1776.13 1577.91 C 1771.15 1572.70 1766.60 1566.90 1763.67 1560.28 C 1759.68 1550.81 1759.49 1539.51 1764.26 1530.28 C 1768.20 1522.56 1774.84 1515.75 1783.26 1513.12 M 1794.31 1547.20 C 1792.33 1560.27 1798.97 1574.24 1810.30 1581.05 C 1811.18 1572.35 1810.44 1563.60 1808.97 1555.02 C 1807.67 1547.62 1806.26 1540.02 1802.29 1533.52 C 1798.60 1537.35 1795.27 1541.84 1794.31 1547.20 M 1786.21 1542.36 C 1786.87 1540.13 1787.42 1537.89 1787.72 1535.60 C 1786.18 1537.53 1785.63 1539.93 1786.21 1542.36 M 1796.13 1708.25 C 1801.03 1701.93 1803.85 1694.35 1807.08 1687.12 C 1814.47 1669.66 1820.81 1651.57 1823.78 1632.81 C 1815.65 1658.33 1806.79 1683.66 1796.13 1708.25 M 1648.97 1676.79 C 1646.00 1682.55 1642.39 1688.02 1640.16 1694.13 C 1645.67 1685.26 1650.05 1675.74 1655.63 1666.91 C 1658.49 1662.09 1662.10 1657.75 1665.03 1652.98 C 1658.45 1660.00 1653.65 1668.45 1648.97 1676.79 M 1673.98 1668.96 C 1670.21 1674.64 1666.49 1680.36 1663.26 1686.38 C 1655.67 1700.07 1648.80 1714.50 1646.22 1730.08 C 1652.30 1715.98 1657.79 1701.59 1665.16 1688.09 C 1671.51 1675.59 1679.60 1664.11 1687.97 1652.91 C 1682.31 1657.29 1677.98 1663.09 1673.98 1668.96 M 1746.12 1665.38 C 1745.97 1665.77 1745.68 1666.57 1745.53 1666.96 C 1747.09 1670.20 1749.43 1663.76 1746.12 1665.38 M 1877.51 1695.65 C 1868.52 1722.48 1860.04 1749.48 1851.49 1776.45 C 1847.65 1788.95 1845.75 1802.25 1847.28 1815.29 C 1849.15 1802.80 1851.12 1790.29 1854.45 1778.10 C 1860.89 1753.61 1869.72 1729.86 1877.91 1705.93 C 1882.49 1692.42 1888.19 1678.94 1888.80 1664.50 C 1884.06 1674.50 1881.31 1685.28 1877.51 1695.65 M 1857.05 1688.01 C 1850.33 1708.59 1843.53 1729.15 1836.77 1749.71 C 1833.55 1759.82 1829.76 1769.86 1828.08 1780.38 C 1832.92 1768.55 1835.88 1756.07 1840.22 1744.07 C 1848.08 1719.30 1857.86 1695.10 1863.75 1669.74 C 1860.13 1675.25 1859.11 1681.87 1857.05 1688.01 M 1651.92 1691.09 C 1655.72 1685.18 1659.73 1679.38 1662.95 1673.12 C 1658.62 1678.66 1654.61 1684.56 1651.92 1691.09 M 1868.78 1689.77 C 1861.86 1710.17 1854.85 1730.54 1847.97 1750.96 C 1843.68 1763.36 1841.71 1776.39 1839.38 1789.26 C 1843.36 1777.79 1845.70 1765.84 1849.15 1754.22 C 1853.29 1740.39 1858.14 1726.78 1863.35 1713.33 C 1868.05 1701.39 1872.58 1689.16 1873.90 1676.31 C 1871.57 1680.53 1870.29 1685.21 1868.78 1689.77 M 1732.27 1774.15 C 1732.47 1777.46 1735.21 1772.52 1732.27 1774.15 M 1737.27 1775.58 C 1734.93 1779.07 1732.52 1782.54 1730.80 1786.40 C 1734.35 1783.40 1737.33 1779.82 1740.17 1776.16 C 1739.45 1776.02 1738.00 1775.73 1737.27 1775.58 M 1742.29 1777.23 C 1737.75 1783.70 1732.96 1790.09 1729.66 1797.30 C 1735.19 1792.24 1739.35 1785.88 1744.79 1780.72 C 1743.50 1783.45 1742.13 1786.16 1740.55 1788.76 C 1741.93 1788.19 1743.36 1787.71 1744.81 1787.27 C 1746.57 1784.78 1747.94 1782.03 1748.29 1778.99 C 1746.27 1778.39 1744.28 1777.80 1742.29 1777.23 Z" />
<path fill="#000000" opacity="1.00" d=" M 2631.03 1589.14 C 2634.76 1585.68 2639.23 1580.76 2644.89 1582.31 C 2652.36 1584.07 2659.14 1588.12 2664.98 1593.03 C 2669.63 1596.90 2673.67 1602.59 2672.42 1608.98 C 2670.75 1618.52 2667.08 1627.58 2663.91 1636.71 C 2644.20 1688.58 2625.40 1740.99 2612.56 1795.06 C 2610.15 1806.23 2607.61 1817.58 2608.13 1829.09 C 2608.25 1833.70 2611.49 1837.34 2614.85 1840.17 C 2613.77 1841.79 2613.36 1844.60 2611.02 1844.81 C 2601.59 1845.83 2591.40 1843.30 2584.50 1836.55 C 2578.56 1830.93 2575.37 1823.05 2573.84 1815.16 C 2569.98 1794.29 2572.82 1772.90 2577.58 1752.44 C 2581.56 1734.56 2587.15 1717.11 2592.89 1699.75 C 2596.73 1688.24 2599.98 1676.53 2604.22 1665.15 C 2608.16 1654.83 2612.96 1644.83 2616.36 1634.30 C 2609.10 1638.96 2604.12 1646.17 2598.32 1652.39 C 2574.46 1680.69 2555.22 1712.45 2535.83 1743.88 C 2526.08 1759.53 2516.14 1775.14 2504.59 1789.56 C 2501.36 1793.30 2498.13 1797.62 2493.24 1799.21 C 2486.99 1800.80 2480.36 1799.09 2474.79 1796.16 C 2465.55 1791.13 2457.83 1781.88 2457.30 1771.04 C 2456.98 1761.11 2458.50 1751.23 2460.27 1741.50 C 2465.92 1711.20 2475.06 1681.73 2483.35 1652.09 C 2487.68 1636.57 2493.58 1621.23 2494.40 1604.98 C 2494.72 1600.92 2493.32 1597.05 2492.96 1593.07 C 2494.56 1590.99 2497.46 1590.60 2499.87 1591.40 C 2510.07 1595.02 2518.86 1602.61 2523.57 1612.41 C 2527.95 1620.87 2528.10 1630.74 2527.08 1640.01 C 2525.34 1655.86 2521.61 1671.41 2517.76 1686.85 C 2512.77 1706.50 2506.68 1725.84 2500.24 1745.06 C 2498.72 1749.73 2497.27 1754.43 2496.09 1759.21 C 2501.11 1753.41 2505.23 1746.91 2509.82 1740.78 C 2532.51 1709.58 2554.06 1677.49 2579.10 1648.09 C 2596.27 1628.32 2612.67 1607.84 2631.03 1589.14 M 2614.91 1611.99 C 2600.99 1627.41 2587.04 1642.84 2574.02 1659.04 C 2564.26 1671.07 2555.31 1683.72 2546.36 1696.35 C 2540.34 1704.78 2533.85 1712.95 2529.02 1722.16 C 2536.91 1714.92 2541.56 1705.16 2547.59 1696.49 C 2558.49 1680.35 2570.80 1665.20 2583.95 1650.84 C 2595.20 1638.74 2606.15 1626.36 2616.66 1613.61 C 2620.85 1608.17 2625.83 1603.26 2629.14 1597.19 C 2623.74 1601.47 2619.63 1607.04 2614.91 1611.99 M 2653.93 1621.97 C 2636.55 1661.33 2623.40 1702.41 2611.80 1743.80 C 2609.57 1752.56 2606.62 1761.17 2605.14 1770.10 C 2615.79 1744.83 2620.21 1717.53 2629.90 1691.92 C 2636.94 1670.64 2646.21 1650.21 2654.27 1629.31 C 2656.87 1621.87 2660.28 1614.66 2661.80 1606.89 C 2658.12 1611.30 2656.44 1616.90 2653.93 1621.97 M 2625.01 1642.01 C 2629.35 1633.93 2632.90 1625.44 2637.38 1617.43 C 2638.91 1614.75 2640.20 1611.92 2641.05 1608.95 C 2634.31 1619.22 2629.51 1630.63 2625.01 1642.01 M 2606.21 1636.97 C 2610.03 1635.47 2612.37 1631.98 2615.24 1629.24 C 2617.90 1626.70 2619.46 1623.32 2621.03 1620.06 C 2616.16 1625.76 2610.69 1630.95 2606.21 1636.97 M 2610.19 1626.83 C 2611.53 1627.15 2612.07 1626.63 2611.80 1625.25 C 2610.39 1624.88 2609.85 1625.41 2610.19 1626.83 M 2592.26 1646.23 C 2578.61 1662.10 2565.83 1678.70 2553.75 1695.79 C 2551.35 1699.31 2547.94 1702.60 2547.99 1707.18 C 2553.05 1700.84 2557.50 1694.00 2563.02 1688.03 C 2562.56 1689.68 2562.03 1691.29 2561.63 1692.98 C 2569.76 1689.68 2571.43 1679.98 2577.26 1674.26 C 2584.83 1666.95 2589.41 1657.22 2596.80 1649.76 C 2599.11 1646.98 2602.46 1644.77 2603.31 1641.05 C 2596.54 1646.32 2592.44 1654.42 2584.93 1658.85 C 2591.74 1647.49 2601.65 1638.37 2609.47 1627.75 C 2603.16 1633.33 2597.90 1639.99 2592.26 1646.23 M 2555.40 1700.81 C 2554.33 1701.28 2553.22 1703.59 2554.86 1704.03 C 2556.86 1704.30 2558.06 1699.73 2555.40 1700.81 M 2546.09 1708.09 C 2544.53 1711.09 2549.41 1708.19 2546.09 1708.09 M 2540.57 1715.04 C 2539.71 1715.99 2540.27 1718.30 2541.86 1717.90 C 2543.91 1717.19 2542.34 1712.99 2540.57 1715.04 M 2539.15 1718.38 C 2537.55 1721.34 2542.45 1718.53 2539.15 1718.38 M 2603.55 1775.93 C 2602.38 1779.21 2601.41 1782.56 2600.53 1785.94 C 2600.82 1786.14 2601.41 1786.55 2601.70 1786.76 C 2602.49 1783.18 2603.07 1779.56 2603.55 1775.93 Z" />
<path fill="#000000" opacity="1.00" d=" M 1088.15 1609.96 C 1092.50 1608.95 1096.87 1610.21 1100.66 1612.38 C 1110.49 1617.34 1119.09 1625.12 1124.03 1635.05 C 1131.86 1651.01 1130.65 1671.06 1120.82 1685.89 C 1110.76 1701.60 1094.79 1712.71 1077.62 1719.46 C 1068.06 1723.37 1057.75 1725.14 1047.47 1725.66 C 1045.53 1731.56 1045.99 1737.85 1046.09 1743.97 C 1046.30 1751.30 1046.94 1758.97 1050.58 1765.51 C 1051.49 1767.07 1052.93 1768.71 1054.92 1768.73 C 1061.45 1768.96 1067.91 1766.01 1072.34 1761.26 C 1075.27 1758.15 1076.85 1754.11 1079.17 1750.58 C 1079.71 1756.27 1075.62 1760.60 1073.22 1765.33 C 1078.54 1762.52 1079.84 1756.15 1083.74 1751.99 C 1085.09 1756.27 1082.99 1760.29 1080.79 1763.83 C 1082.25 1764.79 1083.70 1765.77 1085.17 1766.79 C 1087.66 1762.68 1091.07 1759.24 1092.80 1754.67 C 1092.97 1760.78 1090.36 1766.78 1086.30 1771.28 C 1080.07 1777.86 1071.04 1781.60 1062.00 1781.55 C 1049.78 1781.53 1036.98 1778.55 1027.56 1770.38 C 1016.58 1761.22 1010.71 1747.06 1009.90 1732.98 C 1008.16 1710.31 1015.38 1687.92 1026.39 1668.35 C 1033.11 1656.64 1040.86 1644.87 1052.35 1637.34 C 1065.88 1628.35 1083.20 1626.10 1098.85 1629.93 C 1095.18 1623.32 1091.54 1616.70 1088.15 1609.96 M 1081.01 1657.88 C 1066.31 1669.03 1056.41 1685.86 1052.54 1703.79 C 1057.61 1702.73 1062.47 1700.73 1066.79 1697.85 C 1077.90 1690.48 1087.23 1680.50 1094.03 1669.04 C 1097.97 1662.85 1100.27 1655.67 1100.45 1648.32 C 1093.43 1650.22 1086.73 1653.36 1081.01 1657.88 M 1052.85 1671.92 C 1048.41 1678.43 1044.08 1685.43 1043.16 1693.43 C 1047.20 1683.27 1054.80 1675.02 1058.77 1664.84 C 1056.48 1666.91 1054.55 1669.34 1052.85 1671.92 M 1108.52 1686.84 C 1113.17 1682.65 1115.73 1676.75 1117.73 1670.95 C 1114.31 1676.02 1110.85 1681.15 1108.52 1686.84 Z" />
<path fill="#000000" opacity="1.00" d=" M 2414.40 1609.93 C 2420.51 1608.46 2426.15 1611.77 2431.21 1614.76 C 2442.90 1621.79 2451.95 1633.63 2454.43 1647.18 C 2456.41 1658.75 2455.30 1671.19 2449.59 1681.60 C 2442.12 1695.55 2429.78 1706.41 2415.97 1713.86 C 2402.97 1720.85 2388.46 1725.45 2373.61 1725.49 C 2372.55 1729.89 2372.12 1734.42 2372.24 1738.96 C 2372.41 1747.39 2372.41 1756.19 2376.04 1764.00 C 2377.03 1766.06 2378.47 1768.60 2381.09 1768.73 C 2387.55 1769.01 2393.97 1766.13 2398.40 1761.47 C 2401.35 1758.37 2402.97 1754.34 2405.46 1750.92 C 2405.89 1756.45 2401.73 1760.48 2399.74 1765.24 C 2404.65 1762.23 2406.37 1756.44 2409.65 1752.02 C 2411.86 1756.16 2409.01 1760.35 2406.97 1763.90 C 2408.56 1764.73 2410.09 1765.71 2411.60 1766.76 C 2412.46 1765.00 2413.35 1763.25 2414.26 1761.53 C 2414.63 1761.71 2415.36 1762.08 2415.73 1762.27 C 2416.47 1759.61 2417.46 1757.01 2419.27 1754.89 C 2418.96 1763.66 2413.93 1771.97 2406.37 1776.40 C 2396.78 1782.56 2384.69 1782.39 2373.93 1780.07 C 2364.02 1777.93 2354.68 1772.72 2348.26 1764.80 C 2338.30 1753.07 2335.07 1737.03 2336.04 1722.00 C 2336.96 1700.41 2345.32 1679.81 2356.64 1661.65 C 2363.01 1651.35 2370.91 1641.53 2381.60 1635.49 C 2394.65 1628.05 2410.54 1626.40 2425.06 1629.90 C 2421.45 1623.27 2417.77 1616.68 2414.40 1609.93 M 2406.49 1658.48 C 2392.25 1669.63 2382.64 1686.12 2378.82 1703.70 C 2386.28 1702.44 2392.90 1698.42 2398.72 1693.74 C 2407.15 1687.15 2414.28 1678.93 2419.86 1669.81 C 2423.84 1663.36 2426.67 1656.03 2426.69 1648.36 C 2419.34 1650.28 2412.40 1653.71 2406.49 1658.48 M 2369.19 1693.98 C 2373.39 1683.47 2381.09 1674.84 2385.34 1664.37 C 2377.70 1672.69 2371.08 1682.64 2369.19 1693.98 M 2443.63 1671.89 C 2440.18 1676.54 2436.80 1681.40 2434.95 1686.93 C 2439.02 1682.71 2441.85 1677.45 2443.63 1671.89 Z" />
<path fill="#000000" opacity="1.00" d=" M 2081.26 1617.18 C 2090.30 1612.37 2100.87 1610.23 2111.02 1612.09 C 2119.70 1613.55 2127.04 1618.83 2133.82 1624.16 C 2136.23 1626.18 2138.96 1628.13 2140.35 1631.08 C 2140.58 1632.75 2140.03 1634.41 2139.88 1636.10 C 2134.46 1634.94 2129.27 1632.94 2123.85 1631.90 C 2108.79 1636.09 2096.64 1647.05 2086.74 1658.74 C 2075.36 1672.10 2066.65 1687.47 2059.45 1703.41 C 2056.29 1710.49 2052.56 1717.32 2049.95 1724.64 C 2056.39 1721.18 2061.65 1716.04 2067.07 1711.23 C 2077.65 1701.74 2088.23 1692.28 2098.81 1682.80 C 2105.03 1677.03 2111.82 1671.81 2117.22 1665.22 C 2120.45 1661.31 2122.21 1656.37 2125.83 1652.75 C 2128.42 1650.06 2131.82 1648.39 2135.13 1646.73 C 2135.21 1648.06 2135.30 1649.41 2135.42 1650.78 C 2137.36 1650.64 2139.37 1650.34 2141.30 1651.04 C 2141.57 1652.31 2141.57 1653.62 2141.31 1654.98 C 2142.84 1654.59 2144.42 1654.46 2146.04 1654.69 C 2142.79 1666.75 2137.55 1678.18 2134.15 1690.18 C 2139.49 1679.06 2143.39 1667.31 2149.01 1656.32 C 2150.88 1657.46 2153.84 1658.27 2153.98 1660.95 C 2154.27 1665.94 2152.02 1670.55 2150.45 1675.16 C 2142.57 1697.31 2134.71 1719.47 2128.10 1742.04 C 2124.98 1753.16 2121.41 1764.29 2120.53 1775.88 C 2128.21 1771.32 2131.95 1762.57 2139.34 1757.71 C 2133.66 1768.22 2123.46 1775.65 2118.69 1786.74 C 2127.59 1778.53 2134.33 1768.35 2142.01 1759.05 C 2146.30 1754.05 2148.98 1747.67 2154.34 1743.63 C 2144.44 1763.05 2127.26 1777.65 2117.80 1797.33 C 2123.33 1792.30 2127.42 1785.93 2132.89 1780.84 C 2131.62 1783.60 2130.14 1786.26 2128.71 1788.95 C 2133.94 1787.97 2136.00 1782.68 2136.94 1778.05 C 2137.62 1773.88 2141.41 1771.78 2144.42 1769.40 C 2149.57 1760.75 2155.62 1752.54 2159.00 1742.95 C 2164.82 1735.86 2168.14 1727.13 2173.98 1720.05 C 2167.21 1737.63 2158.00 1754.17 2148.12 1770.17 C 2137.63 1786.44 2126.71 1802.84 2111.93 1815.59 C 2106.57 1813.52 2101.04 1811.72 2096.11 1808.73 C 2092.27 1806.26 2091.43 1801.28 2091.27 1797.07 C 2090.24 1767.45 2098.02 1738.62 2103.23 1709.72 C 2097.12 1715.43 2091.45 1721.60 2085.60 1727.57 C 2076.98 1736.26 2069.60 1746.25 2059.89 1753.81 C 2054.19 1758.29 2047.40 1762.15 2039.94 1762.08 C 2030.04 1761.92 2020.58 1757.26 2013.48 1750.53 C 2009.29 1746.47 2005.91 1741.05 2005.99 1735.06 C 2005.93 1722.67 2009.83 1710.71 2014.40 1699.34 C 2023.08 1678.18 2035.45 1658.62 2050.22 1641.18 C 2058.72 1631.10 2069.42 1622.95 2081.26 1617.18 M 2052.30 1653.41 C 2042.67 1665.94 2034.97 1679.85 2028.20 1694.08 C 2036.65 1680.66 2042.92 1665.76 2053.27 1653.57 C 2053.02 1653.53 2052.54 1653.45 2052.30 1653.41 M 2062.54 1668.45 C 2054.94 1679.29 2048.50 1690.92 2043.03 1702.98 C 2039.01 1711.59 2035.96 1720.69 2034.37 1730.07 C 2039.22 1719.31 2043.19 1708.15 2048.53 1697.61 C 2055.95 1681.72 2065.46 1666.92 2076.07 1652.99 C 2070.50 1657.10 2066.53 1662.89 2062.54 1668.45 M 2134.25 1665.44 C 2134.09 1665.84 2133.78 1666.62 2133.62 1667.01 C 2135.14 1670.23 2137.61 1663.82 2134.25 1665.44 M 2039.89 1691.17 C 2044.23 1684.96 2048.26 1678.51 2051.98 1671.91 C 2047.16 1677.77 2043.12 1684.31 2039.89 1691.17 Z" />
<path fill="#000000" opacity="1.00" d=" M 2751.22 1612.36 C 2760.03 1610.59 2769.60 1611.24 2777.64 1615.51 C 2783.32 1618.52 2788.48 1622.43 2793.37 1626.60 C 2795.12 1628.32 2797.66 1630.28 2796.95 1633.10 C 2796.87 1633.84 2796.72 1635.33 2796.64 1636.07 C 2791.02 1635.09 2785.73 1632.57 2780.04 1632.09 C 2766.58 1635.83 2755.48 1645.22 2746.31 1655.44 C 2733.55 1669.48 2723.92 1686.06 2716.16 1703.29 C 2712.99 1710.38 2709.19 1717.21 2706.74 1724.60 C 2714.76 1719.92 2721.32 1713.26 2728.25 1707.17 C 2741.18 1695.47 2754.34 1684.02 2767.16 1672.19 C 2769.43 1670.08 2771.82 1668.04 2773.71 1665.55 C 2776.87 1661.36 2778.94 1656.38 2782.64 1652.59 C 2785.20 1649.96 2788.55 1648.36 2791.80 1646.75 C 2791.85 1648.10 2791.93 1649.48 2792.04 1650.87 C 2793.95 1650.55 2795.93 1650.49 2797.91 1650.77 C 2797.92 1652.25 2797.96 1653.76 2798.02 1655.28 C 2798.56 1654.97 2799.65 1654.33 2800.19 1654.01 C 2800.98 1654.45 2801.82 1654.90 2802.70 1655.34 C 2798.82 1667.40 2794.26 1679.23 2790.15 1691.21 C 2796.10 1679.87 2799.70 1667.45 2805.85 1656.20 C 2807.61 1657.53 2810.60 1658.41 2810.64 1661.10 C 2810.83 1664.38 2809.75 1667.57 2808.73 1670.66 C 2800.49 1693.65 2792.33 1716.69 2785.32 1740.10 C 2781.99 1751.82 2778.23 1763.55 2777.18 1775.76 C 2779.76 1773.85 2782.34 1771.89 2784.53 1769.51 C 2788.34 1765.47 2791.24 1760.41 2796.20 1757.59 C 2790.32 1767.98 2780.28 1775.52 2775.48 1786.59 C 2784.40 1778.38 2791.12 1768.16 2798.83 1758.86 C 2803.00 1753.92 2805.68 1747.68 2810.95 1743.74 C 2800.92 1763.30 2783.52 1778.05 2774.13 1798.01 C 2779.49 1792.47 2784.03 1786.20 2789.53 1780.79 C 2788.25 1783.54 2786.80 1786.22 2785.42 1788.92 C 2789.74 1788.08 2792.24 1784.06 2793.05 1780.02 C 2793.66 1776.83 2794.99 1773.59 2797.96 1771.92 C 2801.19 1770.08 2802.73 1766.65 2804.54 1763.59 C 2808.29 1757.86 2812.14 1752.09 2814.48 1745.60 C 2815.74 1741.80 2818.73 1739.02 2820.77 1735.67 C 2823.81 1730.74 2826.17 1725.34 2830.05 1720.96 C 2824.23 1737.39 2815.35 1752.55 2806.45 1767.47 C 2795.57 1784.68 2784.13 1801.91 2768.82 1815.55 C 2763.38 1813.69 2757.91 1811.79 2752.96 1808.88 C 2748.67 1806.15 2747.97 1800.56 2747.83 1795.94 C 2747.77 1782.57 2748.77 1769.19 2751.02 1756.01 C 2753.79 1740.47 2757.02 1725.01 2759.89 1709.49 C 2754.12 1715.20 2748.60 1721.16 2742.86 1726.91 C 2734.52 1735.22 2727.50 1744.83 2718.38 1752.34 C 2712.76 1756.87 2706.44 1761.26 2699.06 1761.96 C 2690.05 1762.76 2681.23 1759.08 2674.06 1753.90 C 2668.55 1749.79 2663.46 1744.03 2662.87 1736.90 C 2662.01 1727.73 2664.48 1718.67 2667.18 1710.00 C 2673.59 1690.19 2683.95 1671.88 2696.01 1654.99 C 2704.87 1642.73 2714.91 1630.88 2727.89 1622.82 C 2735.15 1618.36 2742.78 1614.09 2751.22 1612.36 M 2709.87 1652.96 C 2704.06 1659.01 2699.81 1666.32 2695.61 1673.52 C 2691.99 1680.34 2687.86 1686.93 2684.95 1694.09 C 2690.08 1686.05 2694.07 1677.33 2699.05 1669.19 C 2702.26 1663.52 2706.43 1658.48 2709.87 1652.96 M 2717.27 1671.27 C 2709.96 1682.09 2703.75 1693.63 2698.55 1705.60 C 2695.08 1713.39 2692.23 1721.56 2691.30 1730.08 C 2701.70 1702.65 2714.57 1675.84 2732.95 1652.79 C 2726.37 1657.66 2721.92 1664.68 2717.27 1671.27 M 2780.34 1795.19 C 2779.77 1796.81 2780.31 1797.36 2781.96 1796.86 C 2782.46 1795.19 2781.92 1794.63 2780.34 1795.19 Z" />
<path fill="#000000" opacity="1.00" d=" M 2233.72 1626.73 C 2250.93 1615.15 2273.75 1612.54 2293.15 1619.83 C 2307.52 1625.40 2320.26 1635.48 2328.54 1648.53 C 2330.78 1651.65 2329.11 1655.54 2328.23 1658.83 C 2319.22 1653.77 2311.08 1646.81 2301.00 1643.96 C 2284.64 1642.27 2269.00 1650.46 2257.00 1660.96 C 2242.65 1673.24 2231.97 1689.37 2224.61 1706.67 C 2218.19 1722.08 2213.44 1738.70 2214.80 1755.56 C 2221.93 1755.74 2227.99 1751.63 2233.59 1747.74 C 2247.36 1738.33 2258.55 1725.53 2267.26 1711.39 C 2273.82 1701.33 2278.61 1689.79 2287.96 1681.85 C 2294.31 1685.56 2300.64 1689.32 2307.01 1693.03 C 2310.06 1694.82 2313.23 1696.82 2315.03 1699.99 C 2317.15 1703.62 2316.77 1707.98 2316.83 1712.03 C 2316.30 1751.65 2313.03 1791.64 2301.76 1829.80 C 2295.71 1850.79 2288.03 1871.27 2279.39 1891.32 C 2274.15 1903.74 2268.47 1916.00 2261.71 1927.67 C 2252.70 1943.46 2241.82 1958.13 2229.70 1971.66 C 2218.02 1984.55 2204.60 1996.20 2188.91 2003.93 C 2182.95 2006.90 2176.68 2009.39 2170.08 2010.46 C 2156.69 2012.64 2142.54 2008.48 2132.17 1999.82 C 2125.98 1994.66 2120.86 1987.30 2120.80 1978.98 C 2120.73 1969.08 2122.73 1959.28 2125.70 1949.87 C 2130.13 1936.31 2136.09 1923.29 2142.59 1910.61 C 2157.86 1881.12 2176.81 1853.54 2198.59 1828.48 C 2208.59 1817.22 2219.58 1806.82 2231.47 1797.58 C 2239.24 1791.54 2247.85 1786.71 2256.56 1782.18 C 2257.93 1784.20 2259.14 1786.61 2261.65 1787.44 C 2265.47 1788.89 2268.59 1791.61 2270.79 1795.05 C 2274.63 1787.69 2277.33 1779.76 2278.74 1771.58 C 2280.54 1760.86 2282.01 1750.09 2282.99 1739.28 C 2269.16 1750.67 2258.60 1766.31 2242.05 1774.14 C 2226.86 1780.75 2208.68 1776.06 2196.40 1765.62 C 2187.51 1758.23 2180.94 1747.87 2178.76 1736.47 C 2176.97 1725.93 2178.45 1715.16 2180.74 1704.82 C 2188.16 1673.59 2206.64 1644.45 2233.72 1626.73 M 2234.75 1663.71 C 2224.19 1674.28 2215.42 1687.29 2212.22 1702.07 C 2217.69 1693.70 2221.20 1684.19 2227.11 1676.09 C 2231.53 1669.49 2237.33 1663.99 2242.13 1657.69 C 2239.40 1659.35 2236.97 1661.43 2234.75 1663.71 M 2211.88 1661.78 C 2209.17 1664.57 2206.85 1667.74 2204.96 1671.13 C 2207.84 1668.50 2210.21 1665.31 2211.88 1661.78 M 2261.56 1750.63 C 2263.51 1748.83 2265.09 1746.67 2266.36 1744.34 C 2264.06 1745.82 2262.32 1747.99 2261.56 1750.63 M 2233.15 1844.10 C 2208.73 1872.17 2186.85 1902.63 2169.74 1935.73 C 2162.34 1950.83 2154.67 1966.50 2153.90 1983.62 C 2156.45 1982.68 2159.00 1981.70 2161.38 1980.34 C 2175.49 1972.02 2187.81 1960.90 2198.39 1948.44 C 2232.34 1908.14 2253.38 1858.85 2269.16 1809.05 C 2255.64 1819.06 2244.30 1831.60 2233.15 1844.10 M 2244.83 1929.83 C 2240.22 1937.53 2234.57 1944.65 2231.06 1952.97 C 2247.98 1934.01 2259.96 1911.27 2270.13 1888.14 C 2276.57 1872.79 2282.91 1857.17 2285.92 1840.74 C 2275.39 1871.76 2261.68 1901.73 2244.83 1929.83 M 2183.12 1891.03 C 2174.02 1907.05 2164.45 1922.81 2156.26 1939.33 C 2151.63 1948.41 2149.31 1958.40 2146.44 1968.12 C 2149.23 1964.37 2151.15 1960.07 2152.44 1955.60 C 2157.74 1936.90 2167.83 1920.12 2177.34 1903.34 C 2181.91 1895.21 2187.46 1887.57 2191.00 1878.89 C 2187.48 1882.30 2185.57 1886.88 2183.12 1891.03 M 2245.91 1892.03 C 2241.02 1900.85 2236.02 1909.65 2231.99 1918.92 C 2237.76 1910.60 2242.31 1901.47 2245.91 1892.03 Z" />
</g>
<g id="#020202ff">
<path fill="#020202" opacity="1.00" d=" M 1170.60 753.42 C 1176.45 743.57 1182.16 733.60 1188.75 724.22 C 1172.97 753.12 1158.09 782.73 1148.17 814.22 C 1141.35 835.55 1136.70 857.62 1135.03 879.97 C 1131.67 915.11 1138.15 951.54 1155.65 982.39 C 1172.34 1012.23 1197.95 1037.35 1228.94 1052.07 C 1242.22 1058.46 1256.54 1062.46 1271.02 1065.03 C 1292.49 1068.79 1314.60 1068.94 1336.12 1065.43 C 1353.04 1062.64 1369.76 1057.85 1384.97 1049.79 C 1425.50 1028.55 1456.33 989.97 1468.61 945.93 C 1474.64 924.75 1476.16 902.43 1474.22 880.54 C 1471.30 839.39 1458.22 799.58 1440.45 762.56 C 1434.42 749.77 1427.22 737.57 1421.08 724.84 C 1440.37 754.76 1458.11 785.97 1470.62 819.40 C 1479.21 842.42 1485.31 866.47 1487.62 890.97 C 1489.49 909.01 1489.23 927.34 1485.51 945.15 C 1479.13 977.05 1462.63 1006.65 1439.52 1029.46 C 1420.38 1048.58 1396.89 1063.25 1371.45 1072.41 C 1357.78 1077.32 1345.88 1086.67 1337.44 1098.44 C 1326.06 1113.96 1319.84 1132.55 1315.66 1151.15 C 1308.99 1182.42 1307.25 1214.46 1305.17 1246.29 C 1303.75 1242.73 1304.01 1238.85 1303.58 1235.13 C 1300.84 1206.80 1299.85 1178.16 1293.47 1150.33 C 1289.99 1135.75 1285.44 1121.21 1277.83 1108.21 C 1268.22 1091.81 1253.39 1078.11 1235.38 1071.58 C 1203.80 1059.71 1175.37 1039.26 1154.70 1012.53 C 1133.72 985.32 1121.07 951.44 1120.65 916.97 C 1119.81 880.61 1128.40 844.56 1141.97 811.00 C 1150.02 791.11 1159.84 771.97 1170.60 753.42 Z" />
</g>
<g id="#940101ff">
<path fill="#940101" opacity="1.00" d=" M 1359.00 761.80 C 1361.22 760.38 1363.53 759.08 1365.98 758.07 C 1355.71 768.10 1343.59 776.14 1330.96 782.88 C 1310.34 793.68 1287.23 799.18 1264.10 800.66 C 1243.80 802.22 1223.43 800.73 1203.30 798.08 C 1221.80 805.72 1242.12 807.63 1261.97 808.15 C 1313.14 809.17 1364.46 800.68 1415.46 807.74 C 1427.17 809.29 1438.61 812.37 1449.82 816.04 C 1453.86 827.68 1459.93 840.05 1456.41 852.61 C 1453.15 859.38 1446.21 863.48 1439.62 866.55 C 1421.74 874.43 1402.33 877.93 1383.17 881.14 C 1357.26 884.93 1331.15 887.25 1305.01 888.51 C 1294.01 889.14 1283.01 889.77 1271.99 889.70 C 1256.39 889.75 1240.47 888.93 1225.29 893.22 C 1220.41 894.24 1215.99 897.03 1213.19 901.17 C 1211.35 903.05 1212.55 905.83 1212.99 908.05 C 1214.55 914.41 1220.66 918.11 1226.29 920.49 C 1237.00 924.58 1248.63 925.17 1259.98 925.60 C 1279.07 926.17 1298.06 923.73 1317.06 922.25 C 1296.67 928.58 1276.15 934.66 1255.16 938.68 C 1235.11 942.58 1214.42 945.09 1194.07 942.04 C 1182.14 940.19 1170.26 936.63 1160.00 930.15 C 1153.41 925.79 1147.23 919.34 1146.46 911.11 C 1145.47 903.38 1149.36 895.96 1154.61 890.55 C 1163.30 881.53 1174.86 876.02 1186.38 871.53 C 1210.92 862.33 1237.57 860.69 1263.52 862.21 C 1285.96 863.80 1308.48 864.46 1330.97 863.65 C 1350.16 862.85 1369.46 861.41 1388.13 856.65 C 1403.80 852.73 1419.17 846.48 1431.94 836.42 C 1385.75 827.22 1338.60 833.53 1291.99 834.10 C 1266.35 834.30 1240.16 833.62 1215.55 825.68 C 1196.72 819.67 1179.12 807.99 1168.73 790.89 C 1169.99 786.07 1172.92 781.84 1174.73 777.20 C 1210.17 785.30 1246.67 790.25 1283.06 787.33 C 1309.77 784.20 1336.03 775.90 1359.00 761.80 Z" />
<path fill="#940101" opacity="1.00" d=" M 1399.91 904.41 C 1420.22 900.03 1441.12 897.74 1461.87 899.61 C 1462.76 935.96 1449.23 972.12 1426.16 1000.05 C 1405.46 1025.27 1376.69 1043.73 1345.14 1052.04 C 1310.60 1061.28 1272.97 1058.22 1240.36 1043.60 C 1194.49 1023.21 1159.22 979.68 1150.45 930.06 C 1169.64 943.77 1193.76 948.78 1217.03 948.29 C 1234.50 947.76 1251.78 944.62 1268.79 940.74 C 1312.98 930.41 1355.44 913.69 1399.91 904.41 Z" />
</g>
<g id="#00000026">
<path fill="#000000" opacity="0.15" d=" M 2285.07 937.17 C 2288.38 937.27 2283.52 940.19 2285.07 937.17 Z" />
</g>
<g id="#000000ac">
<path fill="#000000" opacity="0.67" d=" M 2738.38 946.48 C 2738.39 946.47 2738.40 946.43 2738.41 946.41 C 2738.40 946.43 2738.39 946.47 2738.38 946.48 Z" />
</g>
<g id="#00000028">
<path fill="#000000" opacity="0.16" d=" M 441.58 960.36 C 443.88 958.99 443.50 963.68 441.65 963.90 C 440.02 963.58 440.67 961.13 441.58 960.36 Z" />
</g>
<g id="#0000008b">
<path fill="#000000" opacity="0.55" d=" M 902.15 988.13 C 903.80 987.54 904.32 988.07 903.73 989.71 C 902.07 990.27 901.54 989.74 902.15 988.13 Z" />
</g>
<g id="#00000095">
<path fill="#000000" opacity="0.58" d=" M 756.82 997.36 C 757.09 997.05 757.64 996.41 757.91 996.09 L 758.69 996.27 C 759.87 997.52 757.40 998.75 756.82 997.36 Z" />
</g>
<g id="#00000062">
<path fill="#000000" opacity="0.38" d=" M 2742.42 1012.29 C 2743.77 1012.98 2742.60 1016.62 2741.21 1016.83 C 2740.54 1015.33 2741.18 1013.31 2742.42 1012.29 Z" />
</g>
<g id="#000000a4">
<path fill="#000000" opacity="0.64" d=" M 3417.39 1033.47 C 3417.41 1033.45 3417.44 1033.39 3417.45 1033.37 C 3417.44 1033.39 3417.41 1033.45 3417.39 1033.47 Z" />
</g>
<g id="#000000a5">
<path fill="#000000" opacity="0.65" d=" M 3389.21 1042.33 C 3390.57 1041.71 3391.01 1042.13 3390.52 1043.60 C 3389.08 1044.20 3388.64 1043.77 3389.21 1042.33 Z" />
</g>
<g id="#00000037">
<path fill="#000000" opacity="0.22" d=" M 2734.19 1045.40 C 2735.61 1044.08 2736.59 1046.80 2735.39 1047.63 C 2733.92 1048.98 2732.89 1046.19 2734.19 1045.40 Z" />
</g>
<g id="#0000003f">
<path fill="#000000" opacity="0.25" d=" M 2732.37 1051.16 C 2734.01 1049.77 2734.90 1052.87 2733.55 1053.70 C 2731.87 1055.09 2730.96 1051.96 2732.37 1051.16 Z" />
</g>
<g id="#0000002d">
<path fill="#000000" opacity="0.18" d=" M 2408.46 1068.41 C 2409.90 1064.62 2412.94 1061.60 2416.82 1060.33 C 2414.57 1063.53 2411.67 1066.21 2408.46 1068.41 Z" />
</g>
<g id="#0000002e">
<path fill="#000000" opacity="0.18" d=" M 2727.07 1078.45 C 2730.38 1078.59 2725.48 1081.44 2727.07 1078.45 Z" />
</g>
<g id="#0000001a">
<path fill="#000000" opacity="0.10" d=" M 687.26 1088.22 C 687.86 1088.74 687.86 1088.74 687.26 1088.22 Z" />
</g>
<g id="#00000030">
<path fill="#000000" opacity="0.19" d=" M 2724.06 1093.48 C 2727.37 1093.58 2722.51 1096.49 2724.06 1093.48 Z" />
</g>
<g id="#0000008c">
<path fill="#000000" opacity="0.55" d=" M 917.29 1119.37 C 917.82 1119.84 917.82 1119.84 917.29 1119.37 Z" />
</g>
<g id="#00000042">
<path fill="#000000" opacity="0.26" d=" M 2718.40 1125.18 C 2719.70 1125.34 2719.68 1127.76 2718.36 1127.89 C 2717.01 1127.66 2717.03 1125.32 2718.40 1125.18 Z" />
</g>
<g id="#0000002f">
<path fill="#000000" opacity="0.18" d=" M 1907.37 1149.02 C 1909.32 1148.19 1909.85 1151.33 1907.89 1151.53 C 1906.04 1152.14 1905.55 1149.31 1907.37 1149.02 Z" />
</g>
<g id="#00000090">
<path fill="#000000" opacity="0.56" d=" M 1047.36 1168.26 C 1048.89 1168.63 1047.60 1172.14 1046.17 1171.87 C 1045.56 1170.63 1046.28 1168.97 1047.36 1168.26 Z" />
</g>
<g id="#00000058">
<path fill="#000000" opacity="0.35" d=" M 2336.66 1179.46 C 2337.02 1176.68 2339.09 1174.81 2341.56 1173.78 C 2340.41 1176.05 2338.78 1178.04 2336.66 1179.46 Z" />
</g>
<g id="#0000002a">
<path fill="#000000" opacity="0.16" d=" M 1311.19 1462.24 C 1312.89 1462.24 1312.39 1464.96 1310.94 1465.02 C 1309.20 1464.99 1309.70 1462.25 1311.19 1462.24 Z" />
</g>
<g id="#00000047">
<path fill="#000000" opacity="0.28" d=" M 1989.44 1525.41 C 1990.06 1523.92 1991.11 1522.68 1992.04 1521.39 C 1991.78 1523.58 1991.68 1525.88 1990.82 1527.96 C 1990.63 1528.45 1990.24 1529.43 1990.04 1529.92 L 1989.88 1531.51 C 1989.87 1531.53 1989.86 1531.55 1989.86 1531.56 C 1989.15 1532.92 1988.10 1534.06 1987.21 1535.30 C 1987.64 1531.97 1988.26 1528.65 1989.41 1525.50 C 1989.41 1525.47 1989.43 1525.43 1989.44 1525.41 Z" />
<path fill="#000000" opacity="0.28" d=" M 1971.26 1703.09 C 1971.74 1703.61 1971.74 1703.61 1971.26 1703.09 Z" />
</g>
<g id="#000000a1">
<path fill="#000000" opacity="0.63" d=" M 1989.41 1525.50 C 1989.41 1525.47 1989.43 1525.43 1989.44 1525.41 C 1989.43 1525.43 1989.41 1525.47 1989.41 1525.50 Z" />
</g>
<g id="#00000085">
<path fill="#000000" opacity="0.52" d=" M 1990.04 1529.92 C 1990.24 1529.43 1990.63 1528.45 1990.82 1527.96 L 1991.34 1528.72 L 1990.93 1529.73 L 1990.04 1529.92 Z" />
</g>
<g id="#00000069">
<path fill="#000000" opacity="0.41" d=" M 1989.86 1531.56 C 1989.86 1531.55 1989.87 1531.53 1989.88 1531.51 C 1989.87 1531.53 1989.86 1531.55 1989.86 1531.56 Z" />
</g>
<g id="#00000038">
<path fill="#000000" opacity="0.22" d=" M 1998.26 1580.14 C 1998.76 1580.67 1998.76 1580.67 1998.26 1580.14 Z" />
</g>
<g id="#0000009f">
<path fill="#000000" opacity="0.62" d=" M 1010.12 1615.27 C 1013.45 1615.32 1008.62 1618.26 1010.12 1615.27 Z" />
</g>
<g id="#000000b9">
<path fill="#000000" opacity="0.73" d=" M 1008.04 1618.23 C 1011.37 1618.43 1006.41 1621.15 1008.04 1618.23 Z" />
</g>
<g id="#000000a8">
<path fill="#000000" opacity="0.66" d=" M 2610.19 1626.83 C 2609.85 1625.41 2610.39 1624.88 2611.80 1625.25 C 2612.07 1626.63 2611.53 1627.15 2610.19 1626.83 Z" />
</g>
<g id="#0000002c">
<path fill="#000000" opacity="0.17" d=" M 1978.26 1664.15 C 1978.75 1664.71 1978.75 1664.71 1978.26 1664.15 Z" />
</g>
<g id="#00000025">
<path fill="#000000" opacity="0.15" d=" M 1974.07 1686.22 C 1977.39 1686.32 1972.52 1689.23 1974.07 1686.22 Z" />
</g>
<g id="#00000031">
<path fill="#000000" opacity="0.19" d=" M 2546.09 1708.09 C 2549.41 1708.19 2544.53 1711.09 2546.09 1708.09 Z" />
</g>
<g id="#00000097">
<path fill="#000000" opacity="0.59" d=" M 848.42 1714.99 C 847.15 1713.59 847.38 1712.67 849.10 1712.24 C 849.22 1713.22 849.00 1714.14 848.42 1714.99 Z" />
</g>
<g id="#0000007d">
<path fill="#000000" opacity="0.49" d=" M 2539.15 1718.38 C 2542.45 1718.53 2537.55 1721.34 2539.15 1718.38 Z" />
</g>
<g id="#0000007b">
<path fill="#000000" opacity="0.48" d=" M 1732.27 1774.15 C 1735.21 1772.52 1732.47 1777.46 1732.27 1774.15 Z" />
</g>
<g id="#00000068">
<path fill="#000000" opacity="0.41" d=" M 2780.34 1795.19 C 2781.92 1794.63 2782.46 1795.19 2781.96 1796.86 C 2780.31 1797.36 2779.77 1796.81 2780.34 1795.19 Z" />
</g>
</svg>
